<?xml version="1.0" encoding="UTF-8" standalone="no"?>
<svg
   viewBox="0 0 50 50"
   width="50px"
   height="50px"
   version="1.1"
   id="svg4"
   sodipodi:docname="icons8-закрыть_active.svg"
   inkscape:version="1.2.2 (732a01da63, 2022-12-09)"
   xmlns:inkscape="http://www.inkscape.org/namespaces/inkscape"
   xmlns:sodipodi="http://sodipodi.sourceforge.net/DTD/sodipodi-0.dtd"
   xmlns="http://www.w3.org/2000/svg"
   xmlns:svg="http://www.w3.org/2000/svg">
  <defs
     id="defs8" />
  <sodipodi:namedview
     id="namedview6"
     pagecolor="#ffffff"
     bordercolor="#000000"
     borderopacity="0.25"
     inkscape:showpageshadow="2"
     inkscape:pageopacity="0.0"
     inkscape:pagecheckerboard="0"
     inkscape:deskcolor="#d1d1d1"
     showgrid="false"
     inkscape:zoom="16.74"
     inkscape:cx="21.863799"
     inkscape:cy="25.029869"
     inkscape:window-width="1920"
     inkscape:window-height="1017"
     inkscape:window-x="-8"
     inkscape:window-y="-8"
     inkscape:window-maximized="1"
     inkscape:current-layer="svg4" />
  <path
     d="M25,2C12.319,2,2,12.319,2,25s10.319,23,23,23s23-10.319,23-23S37.681,2,25,2z M33.71,32.29c0.39,0.39,0.39,1.03,0,1.42 C33.51,33.9,33.26,34,33,34s-0.51-0.1-0.71-0.29L25,26.42l-7.29,7.29C17.51,33.9,17.26,34,17,34s-0.51-0.1-0.71-0.29 c-0.39-0.39-0.39-1.03,0-1.42L23.58,25l-7.29-7.29c-0.39-0.39-0.39-1.03,0-1.42c0.39-0.39,1.03-0.39,1.42,0L25,23.58l7.29-7.29 c0.39-0.39,1.03-0.39,1.42,0c0.39,0.39,0.39,1.03,0,1.42L26.42,25L33.71,32.29z"
     id="path2"
     style="fill:#b1c2b5;fill-opacity:1" />
</svg>
