<svg width="285" height="169" viewBox="0 0 285 169" fill="none" xmlns="http://www.w3.org/2000/svg">
<g clip-path="url(#clip0_323_510)">
<mask id="mask0_323_510" style="mask-type:luminance" maskUnits="userSpaceOnUse" x="12" y="8" width="263" height="151">
<path fill-rule="evenodd" clip-rule="evenodd" d="M53.7106 108.74C64.9188 110.82 75.9466 109.063 85.4324 104.401C89.7614 123.571 105.152 139.297 125.768 143.123C140.032 145.77 154.006 142.202 164.878 134.34C173.764 145.957 186.838 154.456 202.379 157.341C235.593 163.504 267.494 141.687 273.633 108.61C279.771 75.5325 257.822 43.7214 224.609 37.5576C203.352 33.6128 182.633 41.1289 168.861 55.7226C162.146 49.718 153.744 45.417 144.228 43.6511C133.02 41.571 121.992 43.3281 112.506 47.9902C108.177 28.8201 92.7871 13.0941 72.1706 9.26809C44.5889 4.14946 18.0971 22.2676 12.9995 49.736C7.9019 77.2043 26.1289 103.621 53.7106 108.74Z" fill="#FF9E00"/>
</mask>
<g mask="url(#mask0_323_510)">
<path d="M85.4326 104.401L89.5829 103.477L88.3953 98.216L83.5453 100.6L85.4326 104.401ZM164.879 134.341L168.261 131.775L165.74 128.477L162.376 130.909L164.879 134.341ZM168.862 55.7228L166.022 58.8747L169.118 61.643L171.963 58.628L168.862 55.7228ZM112.506 47.9903L108.356 48.9148L109.544 54.1752L114.394 51.7916L112.506 47.9903ZM83.5453 100.6C74.8552 104.871 64.7577 106.48 54.484 104.574L52.9376 112.907C65.0798 115.16 77.0384 113.255 87.3195 108.202L83.5453 100.6ZM126.541 138.957C107.658 135.452 93.5515 121.05 89.5829 103.477L81.2818 105.325C85.9712 126.092 102.644 143.142 124.995 147.29L126.541 138.957ZM162.376 130.909C152.408 138.118 139.611 141.382 126.541 138.957L124.995 147.29C140.454 150.158 155.604 146.287 167.381 137.771L162.376 130.909ZM203.153 153.174C188.69 150.49 176.531 142.587 168.261 131.775L161.496 136.906C170.997 149.327 184.987 158.423 201.606 161.507L203.153 153.174ZM269.449 107.833C263.738 138.609 234.056 158.909 203.153 153.174L201.606 161.507C237.13 168.1 271.251 144.764 277.816 109.386L269.449 107.833ZM223.836 41.7241C254.739 47.459 275.161 77.0572 269.449 107.833L277.816 109.386C284.382 74.0079 260.906 39.9839 225.382 33.3913L223.836 41.7241ZM171.963 58.628C184.786 45.0401 204.062 38.0545 223.836 41.7241L225.382 33.3913C202.642 29.1713 180.481 37.218 165.76 52.8175L171.963 58.628ZM143.455 47.8176C152.18 49.4368 159.873 53.3759 166.022 58.8747L171.701 52.5708C164.42 46.0602 155.308 41.3975 145.001 39.4848L143.455 47.8176ZM114.394 51.7916C123.084 47.5202 133.181 45.911 143.455 47.8176L145.001 39.4848C132.859 37.2315 120.901 39.1362 110.62 44.1892L114.394 51.7916ZM71.3976 13.4346C90.2806 16.9389 104.388 31.3414 108.356 48.9148L116.657 47.0661C111.968 26.2993 95.2946 9.24968 72.944 5.10184L71.3976 13.4346ZM17.1832 50.5125C21.8538 25.3451 46.1264 8.74474 71.3976 13.4346L72.944 5.10184C43.0518 -0.445567 14.3407 19.1903 8.81612 48.9597L17.1832 50.5125ZM54.484 104.574C29.2128 99.884 12.5126 75.6799 17.1832 50.5125L8.81612 48.9597C3.29155 78.7289 23.0453 107.359 52.9376 112.907L54.484 104.574Z" fill="#B4BFC5"/>
</g>
</g>
<defs>
<clipPath id="clip0_323_510">
<rect width="267" height="121.828" fill="white" transform="translate(22.2295) rotate(10.5134)"/>
</clipPath>
</defs>
</svg>
