<svg width="132" height="119" viewBox="0 0 132 119" fill="none" xmlns="http://www.w3.org/2000/svg">
<g clip-path="url(#clip0_434_126)">
<mask id="mask0_434_126" style="mask-type:luminance" maskUnits="userSpaceOnUse" x="0" y="0" width="132" height="119">
<path d="M132 0H0V119H132V0Z" fill="white"/>
</mask>
<g mask="url(#mask0_434_126)">
<path d="M42.4834 41.9358C37.6223 31.5795 23.8198 28.8533 14.2929 34.1464C2.28219 40.8205 -1.37246 55.4609 0.437124 68.1897C2.14026 80.1392 7.39161 96.8153 21.7441 97.7534C34.287 98.5681 46.2268 88.2295 51.2475 77.4834C57.1554 64.826 54.3344 48.8223 42.1819 40.9091C39.7867 39.3512 37.5691 43.175 39.9464 44.7329C48.746 50.4687 51.7442 61.94 48.7815 71.6768C45.8188 81.4137 37.0191 90.6368 26.8003 92.9378C21.4957 94.1245 16.2444 92.7966 12.6785 88.5832C9.11245 84.3704 7.26741 78.3864 5.91911 73.0403C3.1515 62.0818 3.71921 49.3711 12.3591 41.086C16.2799 37.3329 21.5312 35.2617 26.9777 36.0053C32.0162 36.6957 36.4869 39.5459 38.6691 44.1841C39.8755 46.7688 43.7075 44.5204 42.5011 41.9535L42.4834 41.9358Z" fill="#FF9E00"/>
<path d="M46.8305 44.0957C58.3977 30.9778 73.3532 21.188 90.0654 15.9478C92.7801 15.0981 91.6266 10.8316 88.8947 11.6814C71.4908 17.134 55.7543 27.2778 43.7081 40.9623C41.8275 43.0867 44.9499 46.2378 46.8482 44.0957H46.8305Z" fill="#FF9E00"/>
<path d="M42.0755 39.5815C36.6291 30.7654 29.6568 17.5235 37.658 7.96382C39.3256 5.98108 41.7562 4.3524 44.4173 4.31699C47.0786 4.28159 49.172 6.06961 50.6089 8.14088C53.8556 12.779 54.8668 19.0106 53.5717 24.4809C52.1702 30.4113 48.2139 35.3681 42.8916 38.2715C40.3902 39.6346 42.6255 43.4585 45.127 42.0954C57.5105 35.3328 62.3889 19.1345 55.0442 6.86624C51.496 0.935712 45.0028 -2.00301 38.5805 1.51991C32.5841 4.83038 29.8342 11.8762 29.7277 18.4264C29.6035 26.9769 33.8792 34.7486 38.2435 41.8299C39.7337 44.2551 43.5836 42.0245 42.0755 39.5992V39.5815Z" fill="#FF9E00"/>
<path d="M41.5246 40.6261C42.9439 38.1654 49.3839 26.3752 44.5406 15.0806C43.8487 13.4696 42.8551 11.6639 41.3472 9.82275" stroke="#FF9E00" stroke-width="5" stroke-miterlimit="10" stroke-linecap="round"/>
<path d="M78.3914 68.7915C72.643 70.7917 68.5449 75.4833 66.6824 81.2192C64.8193 86.9546 66.0435 93.1337 68.1901 98.8863C70.3366 104.64 73.3175 110.252 78.3557 113.827C83.394 117.404 90.8456 117.917 96.877 118.148C100.319 118.289 103.778 118.2 107.185 117.829C110.183 117.51 113.43 117.209 116.162 115.864C121.715 113.137 125.547 107.047 128.9 102.091C136.972 90.1592 127.835 74.0136 117.989 66.3309C111.975 61.6393 104.488 58.8066 96.789 59.267C89.089 59.7275 81.9571 62.985 77.185 68.8621C75.4111 71.0575 78.5334 74.2088 80.3252 71.9956C87.794 62.7725 101.082 61.4624 111.141 67.0565C120.597 72.332 130.178 84.8304 126.806 96.231C126.062 98.7628 124.376 100.816 122.85 102.941C121.218 105.224 119.533 107.473 117.51 109.42C113.483 113.297 107.788 113.527 102.448 113.722C96.6469 113.934 90.6858 113.598 85.0799 112.058C80.1124 110.713 76.9366 106.871 74.5946 102.48C72.0576 97.6829 69.627 91.5755 70.1595 86.0693C70.6919 80.5642 74.0978 74.9522 79.5621 73.0399C82.2411 72.1018 81.0876 67.8356 78.3914 68.7737V68.7915Z" fill="#FF9E00"/>
<path d="M80.2008 67.4992C73.9032 60.8252 66.1147 54.1156 56.907 52.062C54.1218 51.4425 52.9332 55.7088 55.7362 56.3282C64.2165 58.2228 71.2772 64.472 77.0785 70.6327C79.0301 72.7041 82.1702 69.5706 80.2186 67.4992H80.2008Z" fill="#FF9E00"/>
<path d="M81.7448 64.9852C73.69 58.3112 63.0275 48.2915 67.197 36.5898C68.0129 34.3061 69.5741 32.1463 71.7563 31.031C74.3823 29.7032 77.2028 30.6592 79.4735 32.2702C83.927 35.4213 86.8538 40.8208 87.5812 46.1671C88.4328 52.3455 86.2685 58.6832 82.0818 63.2508C80.148 65.3395 83.2882 68.4907 85.2219 66.3843C94.7488 56.028 94.4474 39.0859 83.448 29.7918C80.7512 27.5258 77.3983 25.7378 73.7613 25.9856C70.6919 26.198 67.8358 27.8621 65.8664 30.1812C61.4135 35.439 61.0587 42.9452 63.276 49.2475C66.0613 57.1429 72.3065 62.8966 78.6047 68.1015C80.7868 69.907 83.9443 66.7914 81.7448 64.968V64.9852Z" fill="#FF9E00"/>
<path d="M81.4428 66.0473C81.9931 63.2681 84.2994 50.0263 76.0854 40.8914C74.9141 39.5991 73.3885 38.2006 71.3662 36.9436" stroke="#FF9E00" stroke-width="5" stroke-miterlimit="10" stroke-linecap="round"/>
</g>
</g>
<defs>
<clipPath id="clip0_434_126">
<rect width="132" height="119" fill="white"/>
</clipPath>
</defs>
</svg>
