<svg width="145" height="134" viewBox="0 0 145 134" fill="none" xmlns="http://www.w3.org/2000/svg">
<g clip-path="url(#clip0_447_2594)">
<path fill-rule="evenodd" clip-rule="evenodd" d="M81.8913 17.2916C81.888 17.3322 81.8845 17.3728 81.8809 17.4135H81.8736C81.772 18.5487 79.9584 18.5559 80.0599 17.4135C80.4299 13.3152 78.6018 9.41675 75.5766 6.64646C69.6133 1.18441 60.7119 2.03406 54.4367 6.52508C47.6174 11.4088 44.8316 20.0267 44.9477 28.0448C44.9544 28.5753 44.5718 28.8609 44.1564 28.9018C43.9178 29.4073 43.2113 29.7265 42.6772 29.2224C39.5734 26.3009 35.4978 24.4038 31.2265 24.0359C24.6708 23.4732 17.3609 26.7842 14.7793 33.0817C12.5239 38.5784 14.6342 45.7343 20.1021 48.4538C20.6416 48.7221 20.6566 49.2677 20.402 49.6609V49.6681C21.5581 49.8557 21.0637 51.594 19.9221 51.4065C18.5987 51.1901 17.2825 50.9881 15.9446 50.8799C13.3705 50.6708 10.6364 50.7862 8.35318 52.1133C6.28081 53.3251 4.90651 55.4025 4.09938 57.6096C2.44876 62.0961 2.48511 67.2534 3.48857 71.8769C5.63365 81.8163 12.6361 90.1978 22.2926 93.7466C24.3795 94.5112 26.6336 95.2397 28.8805 95.2613C30.3282 95.2768 31.7797 95.1443 33.2268 95.0122C33.8003 94.9599 34.3732 94.9076 34.9449 94.8646C36.8136 94.7203 38.7769 94.5761 40.6239 94.9872C42.34 95.3695 43.3071 96.4226 44.0706 97.9445C44.4204 98.6415 44.7112 99.3713 45.0021 100.102C45.4188 101.147 45.8357 102.194 46.4265 103.145C47.9462 105.59 49.8877 107.805 51.8656 109.889C55.8721 114.109 60.4386 117.773 65.0123 121.365C68.8662 124.394 74.1889 128.152 79.2717 125.678C83.3 123.716 85.3579 119.122 86.7758 115.155C86.878 114.871 87.0729 114.691 87.2982 114.6C87.339 114.41 87.3842 114.221 87.434 114.033L87.4268 114.062C87.7205 112.945 89.4467 113.418 89.153 114.534C87.8494 119.492 90.1701 124.886 94.2528 127.848C101.788 133.321 114.287 131.453 119.451 123.534C121.915 119.749 122.531 114.505 120.095 110.549C118.76 108.375 116.547 106.766 114.098 106.118C112.415 106.202 110.734 106.211 109.079 106.163C108.069 106.128 107.869 104.69 108.843 104.403C110.691 103.857 112.625 103.875 114.452 104.343C118.446 104.137 122.41 103.494 126.162 102.057C134.65 98.8017 142.013 89.9806 139.105 80.487C136.025 70.4211 125.253 66.1859 116.12 63.3314C115.103 63.0094 115.382 61.6716 116.357 61.5714C122.065 60.9705 127.724 59.1605 132.458 55.8624C136.548 53.0151 139.735 49.0016 141.24 44.2298C142.665 39.7012 142.651 34.5716 140.459 30.2863C137.998 25.46 132.401 22.2646 126.986 22.3227C124.746 24.2427 121.848 25.4126 118.77 25.3285C118.047 25.3142 117.517 24.334 118.14 23.8046C120.457 21.8326 123.312 20.8048 126.255 20.613C126.897 20.0126 127.469 19.3355 127.953 18.5964C129.751 15.842 130.073 12.4438 128.82 9.45338C127.566 6.46294 124.945 3.98045 121.8 3.1148C114.516 1.10448 108.026 7.49314 103.478 12.2507C102.898 12.8516 101.63 12.2292 101.981 11.3779C102.912 9.1386 102.103 6.72765 100.434 5.07504C98.536 3.20065 95.8286 2.79286 93.3073 3.47966C87.2549 5.11796 84.483 11.2777 82.6064 16.6862C82.4798 17.0558 82.196 17.2453 81.8913 17.2916ZM81.7242 13.8859C80.5195 7.22074 74.3133 1.87489 67.4514 1.11301C58.6444 0.127698 50.3523 5.70398 46.4421 13.2152C44.1983 17.5373 43.1747 22.3833 43.1318 27.2153C37.1892 22.161 28.6865 20.6565 21.4945 23.9854C18.1659 25.5219 15.2361 28.0971 13.5754 31.3793C12.0308 34.4234 11.7117 37.958 12.5094 41.2691C13.2862 44.4793 15.1631 47.4269 17.9101 49.2686C13.3952 48.696 8.59919 48.7684 5.24827 52.2504C1.7507 55.8857 0.899934 61.4686 1.00901 66.294C1.24897 76.7023 6.73164 86.7933 15.6028 92.4194C19.7039 95.0233 24.8885 97.1872 29.8331 97.0213C31.0396 96.9822 32.244 96.8752 33.4485 96.7682C34.4654 96.6779 35.4824 96.5875 36.501 96.538C36.6497 96.5313 36.8076 96.5227 36.9725 96.5136C38.4116 96.4348 40.3836 96.3267 41.4601 97.2521C42.0556 97.762 42.4242 98.5989 42.7475 99.333C42.7992 99.4505 42.8497 99.5652 42.8999 99.6756C43.1364 100.202 43.3548 100.735 43.5732 101.269C43.771 101.753 43.9688 102.236 44.1796 102.712C45.2267 105.057 47.0155 107.134 48.6952 109.067C52.7672 113.763 57.5736 117.737 62.4382 121.603L62.7643 121.862C66.9114 125.157 71.778 129.023 77.4247 128.124C82.1842 127.36 85.2518 123.178 87.1266 119.102C87.5593 122.411 89.1772 125.565 91.5954 127.905C95.4776 131.661 101.179 133.142 106.465 132.619C111.751 132.097 116.922 129.715 120.217 125.501C123.512 121.287 124.472 115.485 122.201 110.649C121.261 108.646 119.705 106.969 117.837 105.8C125.553 104.855 132.96 102.031 137.794 95.5251C140.674 91.6475 142.135 86.8042 141.318 81.9966C140.502 77.189 137.329 72.6675 133.482 69.5555C129.567 66.3923 124.939 64.3911 120.204 62.7663C129.779 60.8399 138.921 55.4363 142.536 45.9611C144.384 41.1177 144.62 35.5088 142.608 30.6726C140.752 26.2227 137.078 22.9533 132.515 21.4366C131.253 21.0167 129.944 20.7469 128.628 20.6366C130.852 17.8997 131.947 14.2788 131.09 10.641C130.259 7.09251 127.738 3.90175 124.486 2.24199C120.955 0.446294 116.908 0.725305 113.341 2.26345C109.848 3.77257 106.885 6.29421 104.179 8.97565C103.957 5.70856 101.357 2.63813 98.1994 1.71973C92.9707 0.195898 87.7634 3.55835 84.8698 7.69346C83.5386 9.59811 82.5581 11.7168 81.7242 13.8859Z" fill="#FF9E00"/>
<mask id="mask0_447_2594" style="mask-type:luminance" maskUnits="userSpaceOnUse" x="0" y="0" width="145" height="134">
<path d="M145 0H0V134H145V0Z" fill="white"/>
<path fill-rule="evenodd" clip-rule="evenodd" d="M81.8913 17.2916C81.888 17.3322 81.8845 17.3728 81.8809 17.4135H81.8736C81.772 18.5487 79.9584 18.5559 80.0599 17.4135C80.4299 13.3152 78.6018 9.41675 75.5766 6.64646C69.6133 1.18441 60.7119 2.03406 54.4367 6.52508C47.6174 11.4088 44.8316 20.0267 44.9477 28.0448C44.9544 28.5753 44.5718 28.8609 44.1564 28.9018C43.9178 29.4073 43.2113 29.7265 42.6772 29.2224C39.5734 26.3009 35.4978 24.4038 31.2265 24.0359C24.6708 23.4732 17.3609 26.7842 14.7793 33.0817C12.5239 38.5784 14.6342 45.7343 20.1021 48.4538C20.6416 48.7221 20.6566 49.2677 20.402 49.6609V49.6681C21.5581 49.8557 21.0637 51.594 19.9221 51.4065C18.5987 51.1901 17.2825 50.9881 15.9446 50.8799C13.3705 50.6708 10.6364 50.7862 8.35318 52.1133C6.28081 53.3251 4.90651 55.4025 4.09938 57.6096C2.44876 62.0961 2.48511 67.2534 3.48857 71.8769C5.63365 81.8163 12.6361 90.1978 22.2926 93.7466C24.3795 94.5112 26.6336 95.2397 28.8805 95.2613C30.3282 95.2768 31.7797 95.1443 33.2268 95.0122C33.8003 94.9599 34.3732 94.9076 34.9449 94.8646C36.8136 94.7203 38.7769 94.5761 40.6239 94.9872C42.34 95.3695 43.3071 96.4226 44.0706 97.9445C44.4204 98.6415 44.7112 99.3713 45.0021 100.102C45.4188 101.147 45.8357 102.194 46.4265 103.145C47.9462 105.59 49.8877 107.805 51.8656 109.889C55.8721 114.109 60.4386 117.773 65.0123 121.365C68.8662 124.394 74.1889 128.152 79.2717 125.678C83.3 123.716 85.3579 119.122 86.7758 115.155C86.878 114.871 87.0729 114.691 87.2982 114.6C87.339 114.41 87.3842 114.221 87.434 114.033L87.4268 114.062C87.7205 112.945 89.4467 113.418 89.153 114.534C87.8494 119.492 90.1701 124.886 94.2528 127.848C101.788 133.321 114.287 131.453 119.451 123.534C121.915 119.749 122.531 114.505 120.095 110.549C118.76 108.375 116.547 106.766 114.098 106.118C112.415 106.202 110.734 106.211 109.079 106.163C108.069 106.128 107.869 104.69 108.843 104.403C110.691 103.857 112.625 103.875 114.452 104.343C118.446 104.137 122.41 103.494 126.162 102.057C134.65 98.8017 142.013 89.9806 139.105 80.487C136.025 70.4211 125.253 66.1859 116.12 63.3314C115.103 63.0094 115.382 61.6716 116.357 61.5714C122.065 60.9705 127.724 59.1605 132.458 55.8624C136.548 53.0151 139.735 49.0016 141.24 44.2298C142.665 39.7012 142.651 34.5716 140.459 30.2863C137.998 25.46 132.401 22.2646 126.986 22.3227C124.746 24.2427 121.848 25.4126 118.77 25.3285C118.047 25.3142 117.517 24.334 118.14 23.8046C120.457 21.8326 123.312 20.8048 126.255 20.613C126.897 20.0126 127.469 19.3355 127.953 18.5964C129.751 15.842 130.073 12.4438 128.82 9.45338C127.566 6.46294 124.945 3.98045 121.8 3.1148C114.516 1.10448 108.026 7.49314 103.478 12.2507C102.898 12.8516 101.63 12.2292 101.981 11.3779C102.912 9.1386 102.103 6.72765 100.434 5.07504C98.536 3.20065 95.8286 2.79286 93.3073 3.47966C87.2549 5.11796 84.483 11.2777 82.6064 16.6862C82.4798 17.0558 82.196 17.2453 81.8913 17.2916ZM81.7242 13.8859C80.5195 7.22074 74.3133 1.87489 67.4514 1.11301C58.6444 0.127698 50.3523 5.70398 46.4421 13.2152C44.1983 17.5373 43.1747 22.3833 43.1318 27.2153C37.1892 22.161 28.6865 20.6565 21.4945 23.9854C18.1659 25.5219 15.2361 28.0971 13.5754 31.3793C12.0308 34.4234 11.7117 37.958 12.5094 41.2691C13.2862 44.4793 15.1631 47.4269 17.9101 49.2686C13.3952 48.696 8.59919 48.7684 5.24827 52.2504C1.7507 55.8857 0.899934 61.4686 1.00901 66.294C1.24897 76.7023 6.73164 86.7933 15.6028 92.4194C19.7039 95.0233 24.8885 97.1872 29.8331 97.0213C31.0396 96.9822 32.244 96.8752 33.4485 96.7682C34.4654 96.6779 35.4824 96.5875 36.501 96.538C36.6497 96.5313 36.8076 96.5227 36.9725 96.5136C38.4116 96.4348 40.3836 96.3267 41.4601 97.2521C42.0556 97.762 42.4242 98.5989 42.7475 99.333C42.7992 99.4505 42.8497 99.5652 42.8999 99.6756C43.1364 100.202 43.3548 100.735 43.5732 101.269C43.771 101.753 43.9688 102.236 44.1796 102.712C45.2267 105.057 47.0155 107.134 48.6952 109.067C52.7672 113.763 57.5736 117.737 62.4382 121.603L62.7643 121.862C66.9114 125.157 71.778 129.023 77.4247 128.124C82.1842 127.36 85.2518 123.178 87.1266 119.102C87.5593 122.411 89.1772 125.565 91.5954 127.905C95.4776 131.661 101.179 133.142 106.465 132.619C111.751 132.097 116.922 129.715 120.217 125.501C123.512 121.287 124.472 115.485 122.201 110.649C121.261 108.646 119.705 106.969 117.837 105.8C125.553 104.855 132.96 102.031 137.794 95.5251C140.674 91.6475 142.135 86.8042 141.318 81.9966C140.502 77.189 137.329 72.6675 133.482 69.5555C129.567 66.3923 124.939 64.3911 120.204 62.7663C129.779 60.8399 138.921 55.4363 142.536 45.9611C144.384 41.1177 144.62 35.5088 142.608 30.6726C140.752 26.2227 137.078 22.9533 132.515 21.4366C131.253 21.0167 129.944 20.7469 128.628 20.6366C130.852 17.8997 131.947 14.2788 131.09 10.641C130.259 7.09251 127.738 3.90175 124.486 2.24199C120.955 0.446294 116.908 0.725305 113.341 2.26345C109.848 3.77257 106.885 6.29421 104.179 8.97565C103.957 5.70856 101.357 2.63813 98.1994 1.71973C92.9707 0.195898 87.7634 3.55835 84.8698 7.69346C83.5386 9.59811 82.5581 11.7168 81.7242 13.8859Z" fill="#FF9E00"/>
</mask>
<g mask="url(#mask0_447_2594)">
<path d="M81.8809 17.4135V17.9135H82.3375L82.3788 17.4587L81.8809 17.4135ZM81.8913 17.2916L81.8161 16.7973L81.4252 16.8568L81.393 17.251L81.8913 17.2916ZM81.8736 17.4135V16.9135H81.4163L81.3756 17.3689L81.8736 17.4135ZM44.1564 28.9018L44.1074 28.4043L43.8252 28.432L43.7042 28.6884L44.1564 28.9018ZM20.402 49.6609L19.9823 49.389L19.902 49.5131V49.6609H20.402ZM20.402 49.668H19.902V50.0936L20.3219 50.1617L20.402 49.668ZM8.35318 52.1133L8.1019 51.681L8.10079 51.6817L8.35318 52.1133ZM4.09938 57.6096L4.56863 57.7822L4.56896 57.7812L4.09938 57.6096ZM34.9449 94.8646L34.9824 95.3632L34.9834 95.3631L34.9449 94.8646ZM45.0021 100.102L45.4703 99.9259L45.4666 99.9165L45.0021 100.102ZM45.0021 100.102L44.5339 100.277L44.5376 100.287L45.0021 100.102ZM86.7758 115.155L86.3054 114.985L86.305 114.986L86.7758 115.155ZM87.2982 114.6L87.4857 115.064L87.7313 114.964L87.787 114.705L87.2982 114.6ZM87.434 114.033L87.919 114.154L86.9505 113.905L87.434 114.033ZM87.4268 114.062L86.9418 113.94L87.9103 114.189L87.4268 114.062ZM89.153 114.534L88.6695 114.406L88.6694 114.407L89.153 114.534ZM114.098 106.118L114.226 105.634L114.151 105.614L114.073 105.618L114.098 106.118ZM109.079 106.163L109.062 106.663H109.065L109.079 106.163ZM114.452 104.343L114.328 104.827L114.402 104.846L114.478 104.842L114.452 104.343ZM116.12 63.3314L115.969 63.8081L115.971 63.8086L116.12 63.3314ZM116.357 61.5714L116.408 62.0688L116.409 62.0686L116.357 61.5714ZM140.459 30.2863L140.013 30.5135L140.014 30.514L140.459 30.2863ZM126.986 22.3227L126.981 21.8228L126.799 21.8247L126.661 21.9431L126.986 22.3227ZM118.77 25.3285L118.784 24.8286H118.78L118.77 25.3285ZM126.255 20.613L126.288 21.112L126.466 21.1004L126.597 20.9782L126.255 20.613ZM127.953 18.5964L128.371 18.8701L128.372 18.8697L127.953 18.5964ZM103.478 12.2507L103.838 12.5979L103.84 12.5962L103.478 12.2507ZM101.981 11.3779L101.52 11.1859L101.519 11.1873L101.981 11.3779ZM100.434 5.07499L100.786 4.7197L100.785 4.71922L100.434 5.07499ZM82.6064 16.6862L82.134 16.5223L82.1333 16.5242L82.6064 16.6862ZM81.7242 13.8859L81.2321 13.9748L81.5499 15.7327L82.1909 14.0653L81.7242 13.8859ZM43.1318 27.2153L42.8078 27.5962L43.6223 28.2889L43.6318 27.2197L43.1318 27.2153ZM17.9101 49.2686L17.8472 49.7645L18.1886 48.8532L17.9101 49.2686ZM36.501 96.538L36.4786 96.0385L36.4767 96.0386L36.501 96.538ZM42.8999 99.6756L43.3559 99.4706L43.3551 99.4689L42.8999 99.6756ZM43.5732 101.269L43.1104 101.458L43.1136 101.466L43.5732 101.269ZM43.5732 101.269L44.0361 101.08L44.0329 101.072L43.5732 101.269ZM44.1796 102.712L43.7224 102.915L43.7231 102.916L44.1796 102.712ZM62.4382 121.603L62.1272 121.994L62.1273 121.995L62.4382 121.603ZM62.7643 121.862L63.0753 121.471L63.0752 121.47L62.7643 121.862ZM87.1266 119.102L87.6224 119.038L87.3974 117.318L86.6724 118.893L87.1266 119.102ZM117.837 105.8L117.776 105.304L116.376 105.475L117.572 106.224L117.837 105.8ZM120.204 62.7663L120.106 62.2761L118.296 62.6402L120.042 63.2393L120.204 62.7663ZM128.628 20.6366L128.24 20.3214L127.644 21.0558L128.587 21.1349L128.628 20.6366ZM104.179 8.9756L103.68 9.00944L103.754 10.1004L104.531 9.3308L104.179 8.9756ZM82.3788 17.4587C82.3826 17.4165 82.3863 17.3743 82.3897 17.3323L81.393 17.251C81.3898 17.2901 81.3865 17.3292 81.3829 17.3682L82.3788 17.4587ZM81.8736 17.9135H81.8809V16.9135H81.8736V17.9135ZM79.562 17.3685C79.5237 17.7991 79.669 18.1712 79.9509 18.426C80.2184 18.6678 80.5673 18.7682 80.8916 18.7676C81.5286 18.7663 82.2917 18.3514 82.3716 17.458L81.3756 17.3689C81.3539 17.6107 81.1594 17.7671 80.8896 17.7676C80.7604 17.7678 80.6686 17.7268 80.6215 17.6842C80.5887 17.6545 80.5455 17.5984 80.558 17.4577L79.562 17.3685ZM75.2389 7.01511C78.17 9.6992 79.9156 13.4518 79.562 17.3685L80.558 17.4577C80.9444 13.1778 79.0336 9.13416 75.9143 6.27766L75.2389 7.01511ZM54.7277 6.93163C60.8726 2.53383 69.5005 1.75904 75.2389 7.01511L75.9143 6.27766C69.7262 0.609638 60.5512 1.53419 54.1457 6.11843L54.7277 6.93163ZM45.4476 28.0385C45.333 20.1189 48.087 11.6875 54.7277 6.93163L54.1457 6.11843C47.1477 11.1301 44.3302 19.9354 44.4477 28.0521L45.4476 28.0385ZM44.2054 29.3994C44.5069 29.3697 44.8184 29.2495 45.0591 29.0152C45.3079 28.773 45.4526 28.4354 45.4476 28.0385L44.4477 28.0521C44.4494 28.1857 44.4062 28.2552 44.3615 28.2986C44.3087 28.35 44.2212 28.393 44.1074 28.4043L44.2054 29.3994ZM43.7042 28.6884C43.6448 28.8143 43.5205 28.9218 43.3871 28.9608C43.2755 28.9935 43.1517 28.9828 43.0203 28.8588L42.334 29.5861C42.7367 29.9661 43.2332 30.0478 43.668 29.9206C44.0811 29.7997 44.4294 29.4948 44.6085 29.1153L43.7042 28.6884ZM43.0203 28.8588C39.8384 25.8638 35.6581 23.9157 31.2694 23.5377L31.1836 24.534C35.3375 24.8918 39.3083 26.7381 42.334 29.5861L43.0203 28.8588ZM31.2694 23.5377C24.555 22.9614 17.0017 26.3423 14.3166 32.8919L15.2418 33.2715C17.7201 27.2263 24.7867 23.985 31.1836 24.534L31.2694 23.5377ZM14.3166 32.8919C11.9763 38.5956 14.144 46.0489 19.8795 48.9015L20.3248 48.0061C15.1245 45.4197 13.0714 38.5612 15.2418 33.2715L14.3166 32.8919ZM19.8795 48.9015C20.0168 48.9698 20.0481 49.0452 20.0577 49.0989C20.0707 49.1714 20.0536 49.2789 19.9823 49.389L20.8216 49.9327C21.0049 49.6497 21.1077 49.2879 21.042 48.9221C20.9729 48.5376 20.727 48.2061 20.3248 48.0061L19.8795 48.9015ZM19.902 49.6609V49.668H20.902V49.6609H19.902ZM20.3219 50.1617C20.4724 50.1861 20.5153 50.2448 20.5331 50.2785C20.5598 50.3291 20.5762 50.4218 20.5422 50.5429C20.4719 50.7938 20.2639 50.9559 20.0031 50.9131L19.841 51.8998C20.7218 52.0444 21.3319 51.4312 21.5051 50.8129C21.593 50.4994 21.5876 50.1342 21.4175 49.8119C21.2385 49.4728 20.9097 49.2439 20.482 49.1745L20.3219 50.1617ZM20.0031 50.9131C18.6784 50.6965 17.3446 50.4914 15.9849 50.3815L15.9041 51.3783C17.2202 51.4847 18.5189 51.6837 19.841 51.8998L20.0031 50.9131ZM15.9849 50.3815C13.3832 50.1701 10.5211 50.2748 8.1019 51.681L8.60445 52.5456C10.7518 51.2974 13.3576 51.1714 15.9041 51.3783L15.9849 50.3815ZM8.10079 51.6817C5.89588 52.971 4.4619 55.1624 3.62979 57.4379L4.56896 57.7812C5.35111 55.6425 6.66574 53.6791 8.60556 52.5449L8.10079 51.6817ZM3.62979 57.4379C1.93746 62.0377 1.9826 67.2954 2.99995 71.9829L3.97732 71.7714C2.98774 67.2119 2.95972 62.1553 4.56863 57.7822L3.62979 57.4379ZM2.99995 71.9829C5.17966 82.0829 12.2962 90.6056 22.1201 94.2159L22.465 93.2773C12.9759 89.79 6.08777 81.5504 3.97732 71.7714L2.99995 71.9829ZM22.1201 94.2159C24.2088 94.9811 26.5348 95.7387 28.8757 95.7613L28.8858 94.7613C26.7329 94.7406 24.55 94.0412 22.465 93.2773L22.1201 94.2159ZM28.8757 95.7613C30.3532 95.7771 31.8295 95.6418 33.2723 95.5102L33.1814 94.5143C31.7298 94.6468 30.3038 94.7765 28.8858 94.7613L28.8757 95.7613ZM33.2723 95.5102C33.8465 95.4577 34.4153 95.4058 34.9824 95.3632L34.9074 94.366C34.3311 94.4094 33.7542 94.462 33.1814 94.5143L33.2723 95.5102ZM34.9834 95.3631C36.8647 95.2179 38.7531 95.083 40.5152 95.4753L40.7326 94.4992C38.8009 94.0692 36.7626 94.2228 34.9064 94.3661L34.9834 95.3631ZM40.5152 95.4753C42.0348 95.8138 42.9007 96.7277 43.6236 98.1687L44.5175 97.7203C43.7134 96.1175 42.6451 94.9252 40.7326 94.4992L40.5152 95.4753ZM43.6236 98.1687C43.9621 98.8432 44.2453 99.5529 44.5376 100.287L45.4666 99.9165C45.177 99.1897 44.8786 98.4398 44.5175 97.7203L43.6236 98.1687ZM44.5376 100.287C44.9514 101.325 45.3836 102.414 46.0018 103.409L46.8513 102.881C46.2877 101.974 45.8861 100.969 45.4666 99.9165L44.5376 100.287ZM46.0018 103.409C47.5489 105.898 49.5185 108.142 51.5028 110.233L52.2283 109.545C50.257 107.467 48.3437 105.282 46.8513 102.881L46.0018 103.409ZM51.5028 110.233C55.5374 114.483 60.1307 118.167 64.7035 121.758L65.3213 120.972C60.7466 117.379 56.2069 113.735 52.2283 109.545L51.5028 110.233ZM64.7035 121.758C66.6318 123.274 68.973 125.01 71.4906 126.048C74.0182 127.09 76.7775 127.449 79.4905 126.128L79.0528 125.229C76.6831 126.382 74.2396 126.099 71.8717 125.123C69.4938 124.143 67.247 122.486 65.3213 120.972L64.7035 121.758ZM79.4905 126.128C83.7217 124.067 85.8331 119.278 87.2466 115.323L86.305 114.986C84.8827 118.966 82.8784 123.366 79.0528 125.229L79.4905 126.128ZM87.2462 115.324C87.2984 115.179 87.3872 115.103 87.4857 115.064L87.1106 114.137C86.7586 114.279 86.4577 114.563 86.3054 114.985L87.2462 115.324ZM87.787 114.705C87.8262 114.523 87.8696 114.342 87.9174 114.161L86.9505 113.905C86.8988 114.101 86.8518 114.298 86.8094 114.495L87.787 114.705ZM86.9489 113.911L86.9418 113.94L87.9118 114.183L87.919 114.154L86.9489 113.911ZM87.9103 114.189C87.9477 114.047 88.0161 113.988 88.078 113.958C88.1526 113.923 88.2609 113.911 88.3782 113.943C88.4954 113.975 88.5858 114.041 88.6352 114.114C88.677 114.175 88.7069 114.264 88.6695 114.406L89.6365 114.661C89.7459 114.245 89.6701 113.857 89.4618 113.551C89.2609 113.256 88.9564 113.064 88.6421 112.978C88.3279 112.892 87.9679 112.902 87.6455 113.057C87.3103 113.217 87.0527 113.518 86.9433 113.934L87.9103 114.189ZM88.6694 114.407C87.3065 119.59 89.7327 125.186 93.9592 128.252L94.5466 127.443C90.6077 124.585 88.3922 119.393 89.6365 114.661L88.6694 114.407ZM93.9592 128.252C97.8528 131.08 103.002 131.997 107.822 131.206C112.643 130.416 117.196 127.907 119.87 123.807L119.032 123.261C116.542 127.08 112.263 129.465 107.66 130.219C103.056 130.974 98.1882 130.088 94.5466 127.443L93.9592 128.252ZM119.87 123.807C122.414 119.9 123.08 114.444 120.521 110.287L119.669 110.811C121.98 114.566 121.416 119.599 119.032 123.261L119.87 123.807ZM120.521 110.287C119.116 108.001 116.795 106.314 114.226 105.634L113.97 106.601C116.298 107.217 118.403 108.749 119.669 110.811L120.521 110.287ZM114.073 105.618C112.405 105.701 110.737 105.711 109.094 105.664L109.065 106.663C110.731 106.711 112.425 106.702 114.123 106.617L114.073 105.618ZM109.097 105.664C108.874 105.656 108.74 105.509 108.713 105.31C108.686 105.113 108.773 104.945 108.984 104.883L108.702 103.924C107.939 104.148 107.639 104.842 107.722 105.445C107.804 106.045 108.275 106.635 109.062 106.663L109.097 105.664ZM108.984 104.883C110.737 104.364 112.579 104.379 114.328 104.827L114.576 103.858C112.67 103.37 110.644 103.349 108.701 103.924L108.984 104.883ZM114.478 104.842C118.507 104.634 122.526 103.985 126.341 102.524L125.983 101.59C122.294 103.003 118.385 103.639 114.426 103.844L114.478 104.842ZM126.341 102.524C130.674 100.862 134.723 97.7807 137.323 93.8891C139.928 89.9903 141.089 85.2574 139.583 80.3406L138.627 80.6333C140.029 85.2101 138.963 89.6346 136.491 93.3336C134.015 97.0397 130.138 99.9964 125.983 101.59L126.341 102.524ZM139.583 80.3406C137.998 75.1587 134.435 71.4978 130.15 68.7826C125.872 66.0716 120.842 64.2834 116.269 62.854L115.971 63.8086C120.531 65.2338 125.454 66.9906 129.615 69.6273C133.769 72.2598 137.133 75.7493 138.627 80.6333L139.583 80.3406ZM116.271 62.8546C116.123 62.8077 116.055 62.7369 116.022 62.6805C115.986 62.6195 115.97 62.54 115.985 62.4502C116.015 62.2669 116.163 62.094 116.408 62.0688L116.305 61.0741C115.576 61.149 115.097 61.6949 114.999 62.286C114.949 62.5835 114.993 62.9051 115.16 63.1887C115.33 63.4768 115.609 63.6939 115.969 63.8081L116.271 62.8546ZM116.409 62.0686C122.184 61.4606 127.927 59.628 132.744 56.2727L132.172 55.452C127.52 58.6929 121.946 60.4803 116.304 61.0742L116.409 62.0686ZM132.744 56.2727C136.913 53.37 140.175 49.2697 141.716 44.3801L140.763 44.0793C139.296 48.7333 136.183 52.6599 132.172 55.452L132.744 56.2727ZM141.716 44.3801C143.172 39.7568 143.169 34.4865 140.904 30.0586L140.014 30.514C142.133 34.6567 142.158 39.6454 140.763 44.0793L141.716 44.3801ZM140.904 30.0586C138.351 25.053 132.574 21.7627 126.981 21.8228L126.991 22.8227C132.228 22.7665 137.644 25.8665 140.013 30.5135L140.904 30.0586ZM126.661 21.9431C124.504 23.7913 121.724 24.9091 118.784 24.8286L118.757 25.8283C121.971 25.9162 124.988 24.6941 127.311 22.7024L126.661 21.9431ZM118.78 24.8286C118.645 24.8259 118.485 24.7234 118.404 24.5495C118.367 24.4697 118.359 24.3975 118.368 24.343C118.375 24.2951 118.398 24.2414 118.464 24.1857L117.816 23.4236C117.298 23.8639 117.278 24.4985 117.497 24.9699C117.706 25.422 118.173 25.8167 118.761 25.8284L118.78 24.8286ZM118.464 24.1857C120.69 22.2913 123.439 21.2976 126.288 21.112L126.223 20.1141C123.185 20.3121 120.225 21.374 117.816 23.4236L118.464 24.1857ZM126.597 20.9782C127.267 20.351 127.865 19.6433 128.371 18.8701L127.534 18.3227C127.073 19.0276 126.527 19.6742 125.913 20.2479L126.597 20.9782ZM128.372 18.8697C130.258 15.9789 130.599 12.4061 129.281 9.26005L128.358 9.64662C129.547 12.4815 129.243 15.7048 127.534 18.3227L128.372 18.8697ZM129.281 9.26005C127.974 6.14183 125.239 3.54288 121.933 2.63268L121.667 3.59673C124.65 4.41783 127.159 6.78397 128.358 9.64662L129.281 9.26005ZM121.933 2.63268C118.105 1.57612 114.514 2.73988 111.348 4.72087C108.187 6.69849 105.389 9.52802 103.117 11.9051L103.84 12.5962C106.115 10.2157 108.836 7.47212 111.878 5.5686C114.915 3.66846 118.211 2.64297 121.667 3.59673L121.933 2.63268ZM103.119 11.9034C103.032 11.9927 102.835 12.0361 102.618 11.9191C102.521 11.8666 102.464 11.8004 102.439 11.7468C102.419 11.7047 102.409 11.6518 102.443 11.5684L101.519 11.1873C101.378 11.5296 101.395 11.8738 101.532 12.169C101.664 12.4527 101.894 12.6642 102.143 12.7987C102.617 13.0554 103.344 13.1096 103.838 12.5979L103.119 11.9034ZM102.443 11.5698C103.471 9.09621 102.56 6.4763 100.786 4.7197L100.082 5.43027C101.646 6.9789 102.353 9.18089 101.52 11.1859L102.443 11.5698ZM100.785 4.71922C98.7315 2.69097 95.8259 2.27532 93.1759 2.99719L93.438 3.96224C95.8306 3.3105 98.3405 3.71022 100.083 5.43075L100.785 4.71922ZM93.1759 2.99719C90.004 3.85576 87.7099 5.89751 85.9805 8.38352C84.2557 10.8627 83.0757 13.8083 82.134 16.5223L83.0787 16.8501C84.0137 14.1556 85.1579 11.3171 86.8014 8.9546C88.4401 6.59903 90.5574 4.74197 93.438 3.96224L93.1759 2.99719ZM82.1333 16.5242C82.073 16.7004 81.9553 16.7761 81.8161 16.7973L81.9666 17.7859C82.4367 17.7144 82.8866 17.4112 83.0794 16.8482L82.1333 16.5242ZM82.2162 13.797C80.9683 6.89244 74.5656 1.39979 67.5066 0.616014L67.3959 1.60986C74.0605 2.34986 80.0707 7.54894 81.2321 13.9748L82.2162 13.797ZM67.5066 0.616014C58.4532 -0.396861 49.9837 5.32935 45.9986 12.9843L46.8856 13.4461C50.721 6.07852 58.8352 0.652115 67.3959 1.60986L67.5066 0.616014ZM45.9986 12.9843C43.7132 17.3868 42.6753 22.3128 42.6318 27.2109L43.6318 27.2197C43.6741 22.4538 44.6834 17.6879 46.8856 13.4461L45.9986 12.9843ZM21.704 24.4393C28.7048 21.199 37.0014 22.6577 42.8078 27.5962L43.4557 26.8344C37.3769 21.6643 28.6676 20.1142 21.2845 23.5316L21.704 24.4393ZM14.0213 31.6055C15.6236 28.4387 18.4617 25.936 21.704 24.4393L21.2845 23.5316C17.8697 25.1079 14.8483 27.7561 13.1293 31.1535L14.0213 31.6055ZM12.9955 41.152C12.2233 37.9469 12.5348 34.5351 14.0213 31.6055L13.1293 31.1535C11.5265 34.3122 11.2001 37.9692 12.0233 41.3862L12.9955 41.152ZM18.1886 48.8532C15.5583 47.0898 13.7467 44.2563 12.9955 41.152L12.0233 41.3862C12.8257 44.7023 14.7679 47.7639 17.6317 49.6838L18.1886 48.8532ZM5.60853 52.597C8.77859 49.303 13.3464 49.1938 17.8472 49.7645L17.973 48.7724C13.4439 48.1981 8.41979 48.2338 4.888 51.9037L5.60853 52.597ZM1.50888 66.2827C1.40062 61.4934 2.25386 56.0838 5.60853 52.597L4.888 51.9037C1.24753 55.6876 0.399244 61.4438 0.509132 66.3053L1.50888 66.2827ZM15.8708 91.9973C7.14594 86.4639 1.74513 76.5301 1.50888 66.2827L0.509132 66.3053C0.752799 76.8745 6.31755 87.1227 15.335 92.8416L15.8708 91.9973ZM29.8169 96.5215C25.0157 96.6826 19.9323 94.576 15.8708 91.9973L15.335 92.8416C19.4757 95.4706 24.7618 97.6917 29.8498 97.521L29.8169 96.5215ZM33.4043 96.2701C32.1974 96.3773 31.007 96.4829 29.8169 96.5215L29.8498 97.521C31.0727 97.4814 32.2906 97.373 33.4928 97.2662L33.4043 96.2701ZM36.4767 96.0386C35.4465 96.0887 34.4195 96.18 33.4043 96.2701L33.4928 97.2662C34.5113 97.1757 35.5184 97.0864 36.5253 97.0374L36.4767 96.0386ZM36.9451 96.0144C36.7797 96.0235 36.6244 96.032 36.4786 96.0385L36.5234 97.0375C36.6751 97.0307 36.8355 97.0219 36.9998 97.0129L36.9451 96.0144ZM41.7861 96.8729C41.1312 96.31 40.2446 96.0909 39.4008 96.0086C38.5492 95.9255 37.6583 95.9753 36.9451 96.0144L36.9998 97.0129C37.7258 96.9731 38.5405 96.9294 39.3037 97.0039C40.0748 97.0791 40.7125 97.2688 41.1342 97.6312L41.7861 96.8729ZM43.2051 99.1315C42.8943 98.4259 42.485 97.4713 41.7861 96.8729L41.1342 97.6312C41.6264 98.0526 41.954 98.7719 42.2899 99.5346L43.2051 99.1315ZM43.3551 99.4689C43.3064 99.3616 43.257 99.2495 43.2051 99.1315L42.2899 99.5346C42.3413 99.6515 42.3931 99.7689 42.4446 99.8824L43.3551 99.4689ZM44.0361 101.08C43.8183 100.547 43.5965 100.006 43.3559 99.4706L42.4438 99.8807C42.6763 100.398 42.8915 100.924 43.1104 101.458L44.0361 101.08ZM44.6369 102.51C44.4294 102.041 44.2343 101.564 44.0361 101.08L43.1106 101.459C43.3079 101.941 43.5082 102.431 43.7224 102.915L44.6369 102.51ZM49.0729 108.739C47.3846 106.796 45.6478 104.773 44.6362 102.508L43.7231 102.916C44.8056 105.34 46.6467 107.472 48.3178 109.395L49.0729 108.739ZM62.7493 121.212C57.8859 117.346 53.1119 113.397 49.0729 108.739L48.3178 109.395C52.4229 114.128 57.2614 118.127 62.1272 121.994L62.7493 121.212ZM63.0752 121.47L62.7493 121.212L62.1273 121.995L62.4533 122.254L63.0752 121.47ZM77.346 127.63C74.6632 128.057 72.1454 127.358 69.7624 126.122C67.3718 124.882 65.1559 123.123 63.0753 121.471L62.4533 122.254C64.5198 123.896 66.8108 125.717 69.3019 127.01C71.8007 128.306 74.5395 129.09 77.5034 128.617L77.346 127.63ZM86.6724 118.893C84.8123 122.937 81.8434 126.909 77.346 127.63L77.5034 128.617C82.5248 127.812 85.6913 123.419 87.5809 119.311L86.6724 118.893ZM91.9431 127.545C89.6036 125.282 88.04 122.23 87.6224 119.038L86.6308 119.167C87.0787 122.591 88.7507 125.848 91.2478 128.264L91.9431 127.545ZM106.416 132.122C101.243 132.633 95.6982 131.178 91.9431 127.545L91.2478 128.264C95.257 132.143 101.115 133.65 106.514 133.117L106.416 132.122ZM119.823 125.193C116.629 129.279 111.594 131.61 106.416 132.122L106.514 133.117C111.908 132.584 117.216 130.151 120.611 125.809L119.823 125.193ZM121.749 110.861C123.93 115.507 123.016 121.109 119.823 125.193L120.611 125.809C124.008 121.465 125.014 115.464 122.654 110.436L121.749 110.861ZM117.572 106.224C119.365 107.346 120.852 108.951 121.749 110.861L122.654 110.436C121.669 108.339 120.045 106.592 118.102 105.376L117.572 106.224ZM137.393 95.2269C132.672 101.58 125.419 104.368 117.776 105.304L117.898 106.296C125.686 105.342 133.248 102.481 138.196 95.8233L137.393 95.2269ZM140.825 82.0803C141.616 86.733 140.204 91.4409 137.393 95.2269L138.196 95.8233C141.143 91.8541 142.654 86.8754 141.811 81.9128L140.825 82.0803ZM133.168 69.9442C136.947 73.0017 140.034 77.4232 140.825 82.0803L141.811 81.9128C140.969 76.9547 137.711 72.3334 133.797 69.1668L133.168 69.9442ZM120.042 63.2393C124.757 64.8572 129.32 66.8355 133.168 69.9442L133.797 69.1668C129.813 65.9491 125.121 63.9249 120.366 62.2934L120.042 63.2393ZM142.069 45.7827C138.537 55.0402 129.583 60.3692 120.106 62.2761L120.303 63.2565C129.975 61.3104 139.305 55.8324 143.003 46.1393L142.069 45.7827ZM142.146 30.8647C144.102 35.5638 143.879 41.0383 142.069 45.7827L143.003 46.1393C144.889 41.197 145.139 35.4538 143.069 30.4805L142.146 30.8647ZM132.358 21.9111C136.791 23.3847 140.35 26.5557 142.146 30.8647L143.069 30.4805C141.155 25.8898 137.365 22.5219 132.673 20.9621L132.358 21.9111ZM128.587 21.1349C129.862 21.2418 131.132 21.5035 132.358 21.9111L132.673 20.9621C131.373 20.5299 130.025 20.252 128.67 20.1384L128.587 21.1349ZM130.603 10.755C131.42 14.2209 130.38 17.6869 128.24 20.3214L129.017 20.9519C131.323 18.1125 132.474 14.3361 131.577 10.5264L130.603 10.755ZM124.259 2.68728C127.381 4.28101 129.806 7.35152 130.603 10.755L131.577 10.5264C130.712 6.83279 128.095 3.52239 124.713 1.79659L124.259 2.68728ZM113.539 2.72253C117.006 1.22744 120.893 0.975533 124.26 2.68762L124.713 1.79659C121.017 -0.0827016 116.81 0.223078 113.143 1.80427L113.539 2.72253ZM104.531 9.3308C107.224 6.66219 110.134 4.194 113.539 2.72253L113.143 1.80427C109.563 3.35104 106.546 5.92612 103.827 8.6204L104.531 9.3308ZM98.0595 2.19971C101.028 3.06305 103.473 5.96422 103.68 9.00944L104.678 8.94175C104.441 5.45279 101.686 2.21303 98.339 1.23958L98.0595 2.19971ZM85.2794 7.98008C88.1158 3.92686 93.1282 0.762549 98.0595 2.19971L98.339 1.23958C92.8129 -0.370919 87.4111 3.18974 84.4601 7.40673L85.2794 7.98008ZM82.1909 14.0653C83.0177 11.9147 83.9809 9.838 85.2794 7.98008L84.4601 7.40673C83.0963 9.35813 82.0985 11.5188 81.2575 13.7065L82.1909 14.0653Z" fill="#FF9E00"/>
</g>
<path fill-rule="evenodd" clip-rule="evenodd" d="M58.4352 52.6168C60.429 51.5373 62.4816 50.5885 64.584 49.7391C67.6999 48.4802 70.6552 47.0249 73.5083 45.2422C74.508 44.6164 75.4201 46.1954 74.4277 46.8139C71.56 48.6112 68.5536 50.0883 65.4378 51.3472C62.5083 52.5307 59.7206 53.888 57.0264 55.5278C57.1688 55.6345 57.2776 55.8002 57.3234 56.0331C58.3596 61.2431 57.3526 66.7369 54.5724 71.2702C52.2957 74.9885 48.027 79.7037 43.0431 78.9251C38.0592 78.1465 36.3153 71.5903 36.4904 67.3408C36.6874 62.6911 38.8692 58.0342 42.8899 55.5165C46.3432 53.3593 50.6483 52.6375 54.6849 53.0963C54.4062 50.7349 54.3754 48.351 54.6452 45.977C54.6641 45.8117 54.6826 45.6411 54.7014 45.4661C54.9164 43.4764 55.1904 40.9396 56.8271 39.6755C58.4908 38.3876 61.001 38.8751 62.0298 40.7233C63.0735 42.5953 62.0804 44.6831 61.2188 46.4945C61.0924 46.7602 60.9689 47.0199 60.855 47.2722C60.0484 49.0567 59.2418 50.8372 58.4352 52.6168ZM55.0177 54.9536C55.0611 55.0234 55.1136 55.0815 55.1728 55.1285C55.2097 55.437 55.3952 55.7298 55.6569 55.8811C55.5586 56.0557 55.5166 56.2696 55.5648 56.5134C56.3602 60.5155 55.7837 64.765 54.0251 68.4469C52.2666 72.1288 49.2675 75.9563 45.3125 76.9968C40.4673 78.2775 38.4314 72.1797 38.3073 68.4469C38.176 64.423 39.7449 60.0207 43.0796 57.5685C46.3035 55.1978 50.9663 54.3437 55.0177 54.9536ZM56.4474 52.609C56.8505 51.7202 57.2529 50.8314 57.6553 49.9427C58.2153 48.7057 58.7754 47.4687 59.3372 46.2316C59.4435 45.996 59.5605 45.7551 59.6795 45.51C60.1081 44.6276 60.5634 43.6899 60.6434 42.7389C60.7237 41.7639 60.1253 40.8325 59.0964 40.7597C57.8997 40.6724 57.3306 41.7129 57.0606 42.7025C56.7249 43.8959 56.5425 45.1547 56.4184 46.3917C56.214 48.4592 56.2199 50.5453 56.4474 52.609Z" fill="#FF9E00"/>
<mask id="mask1_447_2594" style="mask-type:luminance" maskUnits="userSpaceOnUse" x="35" y="37" width="41" height="43">
<path d="M75.4785 37.9536H35.4785V79.9536H75.4785V37.9536Z" fill="white"/>
<path fill-rule="evenodd" clip-rule="evenodd" d="M58.4352 52.6168C60.429 51.5373 62.4816 50.5885 64.584 49.7391C67.6999 48.4802 70.6552 47.0249 73.5083 45.2422C74.508 44.6164 75.4201 46.1954 74.4277 46.8139C71.56 48.6112 68.5536 50.0883 65.4378 51.3472C62.5083 52.5307 59.7206 53.888 57.0264 55.5278C57.1688 55.6345 57.2776 55.8002 57.3234 56.0331C58.3596 61.2431 57.3526 66.7369 54.5724 71.2702C52.2957 74.9885 48.027 79.7037 43.0431 78.9251C38.0592 78.1465 36.3153 71.5903 36.4904 67.3408C36.6874 62.6911 38.8692 58.0342 42.8899 55.5165C46.3432 53.3593 50.6483 52.6375 54.6849 53.0963C54.4062 50.7349 54.3754 48.351 54.6452 45.977C54.6641 45.8117 54.6826 45.6411 54.7014 45.4661C54.9164 43.4764 55.1904 40.9396 56.8271 39.6755C58.4908 38.3876 61.001 38.8751 62.0298 40.7233C63.0735 42.5953 62.0804 44.6831 61.2188 46.4945C61.0924 46.7602 60.9689 47.0199 60.855 47.2722C60.0484 49.0567 59.2418 50.8372 58.4352 52.6168ZM55.0177 54.9536C55.0611 55.0234 55.1136 55.0815 55.1728 55.1285C55.2097 55.437 55.3952 55.7298 55.6569 55.8811C55.5586 56.0557 55.5166 56.2696 55.5648 56.5134C56.3602 60.5155 55.7837 64.765 54.0251 68.4469C52.2666 72.1288 49.2675 75.9563 45.3125 76.9968C40.4673 78.2775 38.4314 72.1797 38.3073 68.4469C38.176 64.423 39.7449 60.0207 43.0796 57.5685C46.3035 55.1978 50.9663 54.3437 55.0177 54.9536ZM56.4474 52.609C56.8505 51.7202 57.2529 50.8314 57.6553 49.9427C58.2153 48.7057 58.7754 47.4687 59.3372 46.2316C59.4435 45.996 59.5605 45.7551 59.6795 45.51C60.1081 44.6276 60.5634 43.6899 60.6434 42.7389C60.7237 41.7639 60.1253 40.8325 59.0964 40.7597C57.8997 40.6724 57.3306 41.7129 57.0606 42.7025C56.7249 43.8959 56.5425 45.1547 56.4184 46.3917C56.214 48.4592 56.2199 50.5453 56.4474 52.609Z" fill="#FF9E00"/>
</mask>
<g mask="url(#mask1_447_2594)">
<path d="M58.4352 52.6167L57.9798 52.4103L57.3661 53.7641L58.6732 53.0564L58.4352 52.6167ZM74.4277 46.8138L74.1633 46.3894L74.1622 46.3901L74.4277 46.8138ZM57.0264 55.5277L56.7665 55.1005L56.1353 55.4847L56.7266 55.9278L57.0264 55.5277ZM57.3234 56.033L56.8328 56.1296L56.833 56.1306L57.3234 56.033ZM54.6849 53.0962L54.6284 53.593L55.2554 53.6642L55.1814 53.0376L54.6849 53.0962ZM55.0177 54.9535L55.4422 54.6893L55.3203 54.4934L55.0921 54.459L55.0177 54.9535ZM55.1728 55.1284L55.6692 55.0689L55.6448 54.8649L55.4839 54.737L55.1728 55.1284ZM55.6569 55.881L56.0926 56.1263L56.3351 55.6956L55.9072 55.4482L55.6569 55.881ZM56.4474 52.6089L55.9505 52.6637L56.1501 54.475L56.9028 52.8154L56.4474 52.6089ZM59.3372 46.2315L59.7925 46.4383L59.793 46.4371L59.3372 46.2315ZM59.0964 40.7596L59.06 41.2583L59.0612 41.2584L59.0964 40.7596ZM57.0606 42.7024L57.5419 42.8378L57.5429 42.834L57.0606 42.7024ZM64.3967 49.2754C62.2792 50.1309 60.2094 51.0875 58.1971 52.177L58.6732 53.0564C60.6486 51.9869 62.684 51.0459 64.7713 50.2025L64.3967 49.2754ZM73.2434 44.818C70.4186 46.5831 67.4899 48.0257 64.3967 49.2754L64.7713 50.2025C67.9098 48.9346 70.8918 47.4666 73.7733 45.6661L73.2434 44.818ZM74.6922 47.2381C75.4741 46.7508 75.476 45.8754 75.1473 45.31C74.9818 45.0252 74.7149 44.776 74.3704 44.662C74.0115 44.5432 73.6132 44.5866 73.2434 44.818L73.7733 45.6661C73.9034 45.5846 73.9939 45.5907 74.0562 45.6113C74.1328 45.6367 74.2194 45.7036 74.2828 45.8126C74.3459 45.9212 74.3668 46.0393 74.3504 46.1352C74.3362 46.2187 74.2909 46.3098 74.1633 46.3894L74.6922 47.2381ZM65.6251 51.8107C68.7633 50.5428 71.7966 49.0529 74.6933 47.2375L74.1622 46.3901C71.3234 48.1693 68.3439 49.6337 65.2505 50.8835L65.6251 51.8107ZM57.2864 55.9548C59.9541 54.3312 62.7168 52.9856 65.6251 51.8107L65.2505 50.8835C62.2997 52.0756 59.4872 53.4446 56.7665 55.1005L57.2864 55.9548ZM57.814 55.9365C57.7467 55.5946 57.5772 55.3156 57.3262 55.1275L56.7266 55.9278C56.7604 55.9531 56.8084 56.0056 56.8328 56.1296L57.814 55.9365ZM54.9986 71.5315C57.8437 66.8924 58.8749 61.2706 57.8138 55.9355L56.833 56.1306C57.8443 61.2154 56.8615 66.5812 54.1462 71.0087L54.9986 71.5315ZM42.9659 79.419C45.6447 79.8375 48.0949 78.772 50.1312 77.1775C52.1679 75.5828 53.8409 73.4223 54.9986 71.5315L54.1462 71.0087C53.0273 72.8361 51.4276 74.8924 49.5147 76.3902C47.6015 77.8883 45.4254 78.7911 43.1203 78.431L42.9659 79.419ZM35.9908 67.3196C35.9005 69.5097 36.3025 72.2921 37.3774 74.6424C38.4522 76.9924 40.2441 78.9938 42.9659 79.419L43.1203 78.431C40.8583 78.0776 39.2862 76.4116 38.2868 74.2265C37.2876 72.0417 36.9051 69.4207 36.99 67.3613L35.9908 67.3196ZM42.625 55.0923C38.4362 57.7153 36.1933 62.5421 35.9908 67.3196L36.99 67.3613C37.1816 62.8394 39.3027 58.3525 43.1552 55.9402L42.625 55.0923ZM54.7414 52.5994C50.6144 52.1303 46.1913 52.8645 42.625 55.0923L43.1552 55.9402C46.4956 53.8535 50.6823 53.1444 54.6284 53.593L54.7414 52.5994ZM54.1485 45.9201C53.8739 48.3358 53.9055 50.7587 54.1883 53.1548L55.1814 53.0376C54.9068 50.7108 54.8769 48.3657 55.142 46.0333L54.1485 45.9201ZM54.2043 45.4123C54.1854 45.5875 54.1671 45.7567 54.1485 45.9201L55.142 46.0333C55.1611 45.8663 55.1797 45.6944 55.1986 45.5197L54.2043 45.4123ZM56.5214 39.2797C55.5838 40.0039 55.0648 41.0701 54.7507 42.1602C54.4367 43.2498 54.311 44.4251 54.2043 45.4123L55.1986 45.5197C55.3069 44.5173 55.4257 43.4293 55.7116 42.4371C55.9974 41.4453 56.4337 40.611 57.1327 40.0711L56.5214 39.2797ZM62.4667 40.48C61.2862 38.3594 58.4226 37.8079 56.5214 39.2797L57.1327 40.0711C58.5589 38.967 60.7157 39.3905 61.593 40.9664L62.4667 40.48ZM61.6703 46.7092C62.0963 45.8137 62.5862 44.7887 62.8261 43.7434C63.0691 42.6847 63.0677 41.5582 62.4667 40.48L61.593 40.9664C62.0356 41.7602 62.0595 42.6136 61.8515 43.5197C61.6404 44.4391 61.2029 45.3638 60.7673 46.2796L61.6703 46.7092ZM61.3106 47.478C61.4221 47.2311 61.5435 46.9758 61.6703 46.7092L60.7673 46.2796C60.6413 46.5444 60.5156 46.8088 60.3993 47.0664L61.3106 47.478ZM58.8906 52.8231C59.6972 51.0435 60.5039 49.2627 61.3106 47.478L60.3993 47.0664C59.5928 48.8507 58.7864 50.6308 57.9798 52.4103L58.8906 52.8231ZM54.5932 55.2176C54.6668 55.3359 54.7576 55.4371 54.8616 55.5198L55.4839 54.737C55.4697 54.7257 55.4555 54.7107 55.4422 54.6893L54.5932 55.2176ZM55.9072 55.4482C55.7901 55.3804 55.6887 55.2311 55.6692 55.0689L54.6763 55.1879C54.7308 55.6428 55.0002 56.0789 55.4067 56.3139L55.9072 55.4482ZM56.0553 56.4162C56.03 56.2885 56.0533 56.1961 56.0926 56.1263L55.2212 55.6357C55.064 55.9151 55.0031 56.2506 55.0743 56.6104L56.0553 56.4162ZM54.4763 68.6623C56.2798 64.8864 56.8725 60.5278 56.0553 56.4162L55.0743 56.6104C55.8479 60.5031 55.2877 64.6433 53.574 68.2313L54.4763 68.6623ZM45.4397 77.4802C49.6118 76.3826 52.6979 72.3857 54.4763 68.6623L53.574 68.2313C51.8352 71.8717 48.9232 75.5297 45.1853 76.5132L45.4397 77.4802ZM37.8076 68.4631C37.8717 70.3907 38.4262 72.9401 39.614 74.8644C40.2104 75.8307 40.9835 76.6667 41.9625 77.1706C42.9527 77.6802 44.1156 77.8302 45.4397 77.4802L45.1853 76.5132C44.0868 76.8036 43.1782 76.6716 42.4201 76.2814C41.6508 75.8855 40.9987 75.2039 40.4649 74.3392C39.3925 72.6016 38.8671 70.2354 38.8071 68.4302L37.8076 68.4631ZM42.7834 57.1656C39.2822 59.7401 37.6724 64.3211 37.8076 68.4631L38.8071 68.4302C38.6796 64.5243 40.2075 60.301 43.3758 57.9712L42.7834 57.1656ZM55.0921 54.459C50.937 53.8336 46.134 54.7017 42.7834 57.1656L43.3758 57.9712C46.4729 55.6937 50.9956 54.8537 54.9433 55.4479L55.0921 54.459ZM57.1998 49.7364C56.7974 50.6251 56.3951 51.5138 55.9921 52.4024L56.9028 52.8154C57.3059 51.9264 57.7084 51.0375 58.1108 50.1488L57.1998 49.7364ZM58.882 46.0248C58.32 47.2621 57.7598 48.4994 57.1998 49.7364L58.1108 50.1488C58.6708 48.9117 59.2307 47.675 59.7925 46.4383L58.882 46.0248ZM59.2297 45.2915C59.1113 45.5353 58.9912 45.7827 58.8814 46.026L59.793 46.4371C59.8959 46.209 60.0096 45.9747 60.1293 45.7283L59.2297 45.2915ZM60.1452 42.6969C60.0744 43.5381 59.6678 44.3895 59.2297 45.2915L60.1293 45.7283C60.5483 44.8655 61.0525 43.8416 61.1416 42.7807L60.1452 42.6969ZM59.0612 41.2584C59.7451 41.3067 60.2086 41.927 60.1452 42.6969L61.1416 42.7807C61.2388 41.6005 60.5055 40.358 59.1317 40.2608L59.0612 41.2584ZM57.5429 42.834C57.6691 42.3717 57.8534 41.9472 58.1076 41.656C58.3447 41.3845 58.6396 41.2276 59.06 41.2583L59.1328 40.2609C58.3565 40.2043 57.7685 40.524 57.3543 40.9983C56.9573 41.453 56.722 42.0436 56.5782 42.5708L57.5429 42.834ZM56.9159 46.4415C57.0387 45.217 57.2176 43.9908 57.5419 42.8378L56.5792 42.567C56.2322 43.8007 56.0462 45.0923 55.9209 46.3417L56.9159 46.4415ZM56.9444 52.5541C56.7208 50.5259 56.7148 48.4753 56.9159 46.4415L55.9209 46.3417C55.7132 48.4428 55.719 50.5645 55.9505 52.6637L56.9444 52.5541Z" fill="#FF9E00"/>
</g>
<path fill-rule="evenodd" clip-rule="evenodd" d="M109.152 37.8094C109.444 37.8662 109.731 37.9421 110.011 38.0388C112.23 35.0993 113.284 31.4852 112.957 27.8207C112.855 26.6564 114.679 26.6637 114.781 27.8207C115.128 31.7375 113.984 35.7617 111.618 38.9148L111.621 38.9175C113.234 40.2127 113.409 42.2283 113.336 44.1566C113.318 44.6465 112.988 44.9315 112.614 45.0117C111.113 48.8072 108.74 52.2396 105.645 54.9258C104.208 56.1701 102.58 57.4508 100.654 57.7782C98.9173 58.0693 97.2171 57.3271 96.4363 55.7117C95.7066 54.2055 95.8744 52.4227 96.1955 50.8364C96.6041 48.8136 97.2025 46.8052 98.0562 44.9206C99.2547 42.2861 101.262 39.8705 103.873 38.6033C103.205 38.3134 102.558 37.9676 101.938 37.5933C100.311 36.611 98.6985 35.3376 97.6769 33.7149C95.787 30.7024 96.6189 26.2128 99.3115 23.9862C102.004 21.7596 106.455 21.876 108.827 24.561C109.936 25.8199 110.819 27.3625 110.914 29.0579C111.006 30.6919 110.635 32.4264 110.288 34.0481C110.251 34.2247 110.213 34.3999 110.177 34.5735C109.987 35.4831 109.746 36.349 109.367 37.1931L109.301 37.3459C109.285 37.3812 109.278 37.3951 109.276 37.396C109.246 37.4719 109.221 37.5488 109.199 37.6297C109.181 37.6926 109.166 37.7523 109.152 37.8094ZM107.345 37.6429C107.424 37.2391 107.537 36.8462 107.71 36.4509C107.732 36.3999 107.756 36.3472 107.78 36.2944C107.803 36.2417 107.827 36.1889 107.849 36.138C107.857 36.1162 107.866 36.0935 107.876 36.0701C107.892 36.0308 107.908 35.9898 107.922 35.9488C108.068 35.5122 108.192 35.0756 108.294 34.6317C108.666 33.06 109.002 31.4155 109.082 29.8001C109.155 28.3739 108.622 27.2679 107.769 26.1473C105.981 23.797 102.194 23.6369 100.158 25.6671C98.122 27.6972 97.8666 31.2845 99.7566 33.4821C100.764 34.6536 102.033 35.5777 103.376 36.3199C104.565 36.9748 105.901 37.5642 107.273 37.6369C107.297 37.6382 107.321 37.6402 107.345 37.6429ZM109.505 39.7907C111.114 40.3879 111.48 41.7553 111.52 43.2336C111.37 43.3353 111.244 43.488 111.169 43.6982C110.133 46.5869 108.542 49.272 106.484 51.5495C105.455 52.6847 104.324 53.747 103.091 54.6566C101.96 55.4861 100.026 56.6795 98.6692 55.6681C97.633 54.8967 97.6695 53.325 97.8081 52.1753C97.9906 50.6473 98.443 49.0974 98.9319 47.642C99.9535 44.6005 101.712 41.6971 104.682 40.2345C106.141 39.5142 107.951 39.2086 109.505 39.7907Z" fill="#FF9E00"/>
<mask id="mask2_447_2594" style="mask-type:luminance" maskUnits="userSpaceOnUse" x="94" y="21" width="22" height="38">
<path d="M115.921 21.4226H94.9214V58.4226H115.921V21.4226Z" fill="white"/>
<path fill-rule="evenodd" clip-rule="evenodd" d="M109.152 37.8094C109.444 37.8662 109.731 37.9421 110.011 38.0388C112.23 35.0993 113.284 31.4852 112.957 27.8207C112.855 26.6564 114.679 26.6637 114.781 27.8207C115.128 31.7375 113.984 35.7617 111.618 38.9148L111.621 38.9175C113.234 40.2127 113.409 42.2283 113.336 44.1566C113.318 44.6465 112.988 44.9315 112.614 45.0117C111.113 48.8072 108.74 52.2396 105.645 54.9258C104.208 56.1701 102.58 57.4508 100.654 57.7782C98.9173 58.0693 97.2171 57.3271 96.4363 55.7117C95.7066 54.2055 95.8744 52.4227 96.1955 50.8364C96.6041 48.8136 97.2025 46.8052 98.0562 44.9206C99.2547 42.2861 101.262 39.8705 103.873 38.6033C103.205 38.3134 102.558 37.9676 101.938 37.5933C100.311 36.611 98.6985 35.3376 97.6769 33.7149C95.787 30.7024 96.6189 26.2128 99.3115 23.9862C102.004 21.7596 106.455 21.876 108.827 24.561C109.936 25.8199 110.819 27.3625 110.914 29.0579C111.006 30.6919 110.635 32.4264 110.288 34.0481C110.251 34.2247 110.213 34.3999 110.177 34.5735C109.987 35.4831 109.746 36.349 109.367 37.1931L109.301 37.3459C109.285 37.3812 109.278 37.3951 109.276 37.396C109.246 37.4719 109.221 37.5488 109.199 37.6297C109.181 37.6926 109.166 37.7523 109.152 37.8094ZM107.345 37.6429C107.424 37.2391 107.537 36.8462 107.71 36.4509C107.732 36.3999 107.756 36.3472 107.78 36.2944C107.803 36.2417 107.827 36.1889 107.849 36.138C107.857 36.1162 107.866 36.0935 107.876 36.0701C107.892 36.0308 107.908 35.9898 107.922 35.9488C108.068 35.5122 108.192 35.0756 108.294 34.6317C108.666 33.06 109.002 31.4155 109.082 29.8001C109.155 28.3739 108.622 27.2679 107.769 26.1473C105.981 23.797 102.194 23.6369 100.158 25.6671C98.122 27.6972 97.8666 31.2845 99.7566 33.4821C100.764 34.6536 102.033 35.5777 103.376 36.3199C104.565 36.9748 105.901 37.5642 107.273 37.6369C107.297 37.6382 107.321 37.6402 107.345 37.6429ZM109.505 39.7907C111.114 40.3879 111.48 41.7553 111.52 43.2336C111.37 43.3353 111.244 43.488 111.169 43.6982C110.133 46.5869 108.542 49.272 106.484 51.5495C105.455 52.6847 104.324 53.747 103.091 54.6566C101.96 55.4861 100.026 56.6795 98.6692 55.6681C97.633 54.8967 97.6695 53.325 97.8081 52.1753C97.9906 50.6473 98.443 49.0974 98.9319 47.642C99.9535 44.6005 101.712 41.6971 104.682 40.2345C106.141 39.5142 107.951 39.2086 109.505 39.7907Z" fill="#FF9E00"/>
</mask>
<g mask="url(#mask2_447_2594)">
<path d="M109.152 37.8094L108.666 37.6933L108.544 38.2007L109.057 38.3003L109.152 37.8094ZM110.011 38.0388L109.848 38.5114L110.191 38.6301L110.41 38.34L110.011 38.0388ZM111.618 38.9148L111.218 38.6147L110.928 39.0018L111.305 39.3047L111.618 38.9148ZM111.621 38.9175L111.935 38.5277L111.934 38.5276L111.621 38.9175ZM112.614 45.0117L112.509 44.5228L112.248 44.5789L112.149 44.8278L112.614 45.0117ZM105.645 54.9258L105.972 55.3039L105.973 55.3035L105.645 54.9258ZM100.654 57.7782L100.737 58.2714L100.738 58.2712L100.654 57.7782ZM103.873 38.6033L104.091 39.0531L105.07 38.5779L104.072 38.1446L103.873 38.6033ZM109.367 37.1931L108.911 36.988L108.907 36.9957L109.367 37.1931ZM109.301 37.3459L109.756 37.5548L109.76 37.5433L109.301 37.3459ZM109.276 37.396L109.044 36.953L108.878 37.0397L108.81 37.214L109.276 37.396ZM109.199 37.6297L109.68 37.7662L109.682 37.7588L109.199 37.6297ZM107.71 36.4509L108.168 36.6518L108.17 36.6483L107.71 36.4509ZM107.345 37.6429L107.287 38.1395L107.746 38.1931L107.835 37.7397L107.345 37.6429ZM107.849 36.138L108.308 36.3354L108.313 36.3248L108.317 36.314L107.849 36.138ZM108.294 34.6317L107.808 34.5165L107.807 34.5196L108.294 34.6317ZM103.376 36.3199L103.134 36.7575L103.135 36.7579L103.376 36.3199ZM107.273 37.6369L107.246 38.1362L107.248 38.1363L107.273 37.6369ZM111.52 43.2336L111.8 43.6479L112.028 43.4943L112.02 43.2199L111.52 43.2336ZM109.505 39.7907L109.33 40.2589L109.331 40.2594L109.505 39.7907ZM103.091 54.6566L103.387 55.0598L103.388 55.059L103.091 54.6566ZM109.057 38.3003C109.327 38.3528 109.591 38.4228 109.848 38.5114L110.174 37.5662C109.871 37.4615 109.561 37.3795 109.247 37.3186L109.057 38.3003ZM110.41 38.34C112.702 35.3031 113.793 31.5662 113.455 27.7762L112.459 27.8644C112.774 31.4035 111.757 34.8955 109.612 37.7376L110.41 38.34ZM113.455 27.7762C113.442 27.6276 113.487 27.5672 113.522 27.5355C113.57 27.4913 113.662 27.4499 113.791 27.4502C114.058 27.4507 114.26 27.6075 114.283 27.8646L115.279 27.7767C115.2 26.8769 114.439 26.4515 113.793 26.4502C113.466 26.4495 113.115 26.5523 112.847 26.7981C112.565 27.0563 112.421 27.4308 112.459 27.8644L113.455 27.7762ZM114.283 27.8646C114.619 31.6586 113.51 35.5603 111.218 38.6147L112.018 39.2149C114.458 35.963 115.637 31.8164 115.279 27.7767L114.283 27.8646ZM111.305 39.3047L111.308 39.3074L111.934 38.5276L111.931 38.5249L111.305 39.3047ZM111.308 39.3074C112.715 40.4369 112.909 42.2167 112.837 44.1377L113.836 44.1755C113.909 42.2399 113.754 39.9886 111.935 38.5277L111.308 39.3074ZM112.837 44.1377C112.828 44.3609 112.699 44.4821 112.509 44.5228L112.719 45.5006C113.277 45.381 113.808 44.9321 113.836 44.1755L112.837 44.1377ZM112.149 44.8278C110.676 48.5523 108.349 51.9171 105.317 54.5482L105.973 55.3035C109.132 52.5621 111.549 49.062 113.079 45.1956L112.149 44.8278ZM105.318 54.5478C103.875 55.7964 102.343 56.9839 100.57 57.2853L100.738 58.2712C102.817 57.9177 104.54 56.5439 105.972 55.3039L105.318 54.5478ZM100.571 57.2851C99.0251 57.5443 97.5585 56.8845 96.8865 55.4941L95.9861 55.9293C96.8757 57.7697 98.8095 58.5943 100.737 58.2714L100.571 57.2851ZM96.8865 55.4941C96.2336 54.1465 96.3675 52.5071 96.6856 50.9356L95.7054 50.7373C95.3814 52.3384 95.1796 54.2644 95.9861 55.9293L96.8865 55.4941ZM96.6856 50.9356C97.0884 48.9418 97.6765 46.9706 98.5117 45.1269L97.6011 44.7136C96.7288 46.6392 96.1199 48.6854 95.7054 50.7373L96.6856 50.9356ZM98.5117 45.1269C99.675 42.5695 101.611 40.2571 104.091 39.0531L103.654 38.1535C100.914 39.4839 98.8346 42.0019 97.6011 44.7136L98.5117 45.1269ZM101.68 38.0213C102.315 38.4045 102.981 38.7613 103.674 39.0619L104.072 38.1446C103.429 37.8655 102.802 37.5307 102.197 37.1652L101.68 38.0213ZM97.2534 33.9806C98.3346 35.6979 100.023 37.0209 101.68 38.0213L102.197 37.1652C100.6 36.201 99.0621 34.9765 98.1001 33.4485L97.2534 33.9806ZM98.9928 23.6009C97.5412 24.8013 96.6086 26.594 96.2831 28.4704C95.9575 30.3473 96.2319 32.3524 97.2534 33.9806L98.1001 33.4485C97.2316 32.0642 96.9774 30.319 97.2684 28.6413C97.5595 26.9631 98.3891 25.3977 99.6301 24.3715L98.9928 23.6009ZM109.202 24.2305C106.634 21.3236 101.873 21.2195 98.9928 23.6009L99.6301 24.3715C102.136 22.2996 106.277 22.4289 108.452 24.892L109.202 24.2305ZM111.413 29.03C111.309 27.1795 110.35 25.534 109.202 24.2305L108.452 24.892C109.521 26.1062 110.328 27.5455 110.415 29.0859L111.413 29.03ZM110.777 34.1526C111.121 32.5453 111.51 30.7431 111.413 29.03L110.415 29.0859C110.502 30.6406 110.149 32.3075 109.8 33.9436L110.777 34.1526ZM110.666 34.6765C110.702 34.5038 110.74 34.3293 110.777 34.1526L109.8 33.9436C109.762 34.12 109.724 34.296 109.687 34.4706L110.666 34.6765ZM109.823 37.3981C110.222 36.5093 110.472 35.6062 110.666 34.6765L109.687 34.4706C109.502 35.3601 109.27 36.1886 108.911 36.988L109.823 37.3981ZM109.76 37.5433L109.826 37.3905L108.907 36.9957L108.842 37.1485L109.76 37.5433ZM109.508 37.839C109.581 37.8007 109.626 37.7535 109.639 37.7396C109.658 37.7193 109.672 37.7016 109.679 37.6919C109.694 37.6721 109.704 37.6554 109.708 37.6481C109.718 37.632 109.725 37.6176 109.729 37.6102C109.737 37.5934 109.746 37.5741 109.755 37.5547L108.847 37.1371C108.839 37.153 108.837 37.1582 108.837 37.1574C108.838 37.1569 108.838 37.155 108.84 37.1522C108.841 37.1497 108.844 37.1443 108.848 37.1373C108.852 37.1321 108.861 37.1168 108.874 37.0982C108.881 37.089 108.894 37.0717 108.913 37.0517C108.923 37.0415 108.937 37.0272 108.956 37.0116C108.974 36.9968 109.004 36.9741 109.044 36.953L109.508 37.839ZM109.682 37.7588C109.698 37.6972 109.718 37.6379 109.742 37.578L108.81 37.214C108.774 37.3058 108.743 37.4004 108.716 37.5005L109.682 37.7588ZM109.638 37.9256C109.65 37.8754 109.664 37.8225 109.68 37.7662L108.718 37.4932C108.698 37.5627 108.681 37.6292 108.666 37.6933L109.638 37.9256ZM107.252 36.25C107.062 36.6851 106.939 37.1141 106.854 37.5461L107.835 37.7397C107.909 37.3641 108.012 37.0072 108.168 36.6518L107.252 36.25ZM107.324 36.0894C107.3 36.1414 107.275 36.198 107.251 36.2534L108.17 36.6483C108.19 36.6018 108.212 36.5529 108.236 36.4994L107.324 36.0894ZM107.39 35.9406C107.37 35.987 107.348 36.0359 107.324 36.0894L108.236 36.4994C108.259 36.4474 108.285 36.3908 108.308 36.3354L107.39 35.9406ZM107.412 35.8828C107.403 35.905 107.392 35.9335 107.381 35.962L108.317 36.314C108.323 36.2989 108.329 36.2819 108.339 36.2573L107.412 35.8828ZM107.448 35.7903C107.44 35.8143 107.429 35.8411 107.412 35.8828L108.339 36.2573C108.354 36.2206 108.377 36.1653 108.396 36.1073L107.448 35.7903ZM107.807 34.5196C107.708 34.947 107.589 35.3681 107.448 35.7903L108.396 36.1073C108.547 35.6563 108.675 35.2043 108.781 34.7439L107.807 34.5196ZM108.583 29.7746C108.505 31.3424 108.178 32.9511 107.808 34.5165L108.781 34.7469C109.154 33.1689 109.499 31.4879 109.582 29.8249L108.583 29.7746ZM107.371 26.45C108.186 27.5199 108.647 28.5114 108.583 29.7746L109.582 29.8249C109.663 28.2357 109.059 27.0156 108.166 25.8443L107.371 26.45ZM100.511 26.0211C102.341 24.1959 105.774 24.3503 107.371 26.45L108.167 25.8446C106.188 23.2437 102.046 23.0779 99.8049 25.313L100.511 26.0211ZM100.136 33.1561C98.4278 31.1703 98.648 27.8789 100.511 26.0211L99.8049 25.313C97.5961 27.5156 97.3055 31.3989 99.3775 33.8081L100.136 33.1561ZM103.618 35.8823C102.31 35.1593 101.093 34.2697 100.136 33.1561L99.3775 33.8081C100.434 35.0375 101.757 35.996 103.134 36.7575L103.618 35.8823ZM107.299 37.1377C106.044 37.0711 104.79 36.5276 103.617 35.8819L103.135 36.7579C104.341 37.422 105.758 38.0573 107.246 38.1362L107.299 37.1377ZM107.403 37.1463C107.368 37.1422 107.333 37.1393 107.297 37.1376L107.248 38.1363C107.261 38.137 107.274 38.1381 107.287 38.1395L107.403 37.1463ZM112.02 43.2199C111.999 42.4525 111.894 41.6565 111.549 40.96C111.195 40.2444 110.603 39.6649 109.679 39.3219L109.331 40.2594C110.016 40.5137 110.412 40.9165 110.653 41.4035C110.903 41.9095 111.001 42.5363 111.021 43.2473L112.02 43.2199ZM111.64 43.867C111.68 43.7548 111.739 43.689 111.8 43.6479L111.24 42.8192C111 42.9816 110.809 43.2211 110.698 43.5294L111.64 43.867ZM106.855 51.8853C108.958 49.5582 110.582 46.8157 111.64 43.867L110.698 43.5294C109.684 46.3582 108.126 48.9864 106.113 51.2143L106.855 51.8853ZM103.388 55.059C104.653 54.1261 105.808 53.04 106.855 51.8853L106.114 51.2138C105.103 52.3293 103.996 53.368 102.794 54.2542L103.388 55.059ZM98.3704 56.069C99.2408 56.7176 100.263 56.6254 101.129 56.3251C101.996 56.0241 102.812 55.4816 103.387 55.0598L102.795 54.2534C102.24 54.6611 101.523 55.1301 100.801 55.3803C100.078 55.6312 99.4549 55.63 98.968 55.2671L98.3704 56.069ZM97.3117 52.1155C97.2406 52.705 97.1902 53.4409 97.3046 54.1439C97.4194 54.8486 97.7099 55.5773 98.3704 56.069L98.968 55.2671C98.5924 54.9875 98.383 54.5446 98.2916 53.9832C98.1999 53.4201 98.237 52.7953 98.3046 52.2352L97.3117 52.1155ZM98.4579 47.4828C97.966 48.947 97.5003 50.5354 97.3117 52.1155L98.3046 52.2352C98.4808 50.7591 98.92 49.2477 99.4059 47.8013L98.4579 47.4828ZM104.461 39.786C101.32 41.3328 99.4993 44.3824 98.4579 47.4828L99.4059 47.8013C100.408 44.8186 102.104 42.0614 104.903 40.6831L104.461 39.786ZM109.681 39.3224C107.958 38.6771 106 39.026 104.461 39.786L104.903 40.6831C106.282 40.0023 107.944 39.74 109.33 40.2589L109.681 39.3224Z" fill="#FF9E00"/>
</g>
<path fill-rule="evenodd" clip-rule="evenodd" d="M85.2788 70.2775L85.2848 70.2939L86.689 74.1309C85.4951 72.5326 84.2346 70.9837 82.9088 69.489C81.631 68.0489 80.3156 66.6202 78.8907 65.3249C77.7783 64.3095 76.3453 63.5025 74.7777 63.794C73.2101 64.0856 72.2866 65.3294 72.2267 66.832C72.1613 68.3625 73.0211 69.6449 73.835 70.8586C73.8832 70.9305 73.9312 71.0021 73.9789 71.0735C74.1238 71.2903 74.2683 71.5074 74.4128 71.7246C75.5599 73.4481 76.7098 75.1758 78.0723 76.7346C80.1856 79.1693 82.7206 81.204 85.2517 83.1862C85.2575 83.1908 85.2634 83.1953 85.2693 83.1997C85.2143 83.4149 85.1717 83.6359 85.1425 83.8624C84.8316 86.3148 85.9371 88.5679 86.9876 90.6795C87.3495 91.4097 87.7071 92.1435 88.0648 92.8778C88.925 94.6433 89.7865 96.4116 90.7148 98.1408C92.8203 102.073 96.4442 106.197 101.435 104.825C103.341 104.301 104.812 102.853 105.333 100.929C105.853 99.0054 105.44 96.8409 104.809 94.9431C102.978 89.4612 99.8031 84.3316 96.0195 80.0098C95.9394 79.8195 95.7755 79.6602 95.5093 79.5781L95.4978 79.5872C93.7685 79.056 91.9272 78.7076 90.1272 79.0003C90.226 78.799 90.2504 78.5554 90.1527 78.2901C89.089 75.385 88.0265 72.4813 86.964 69.5777L86.9621 69.5726C85.8988 66.6667 84.8354 63.7608 83.7709 60.8535C83.3729 59.7521 81.6899 60.4782 82.0937 61.5751C83.1562 64.4768 84.2175 67.3772 85.2788 70.2775ZM88.2413 79.5867C86.2834 76.53 84.1026 73.6206 81.7119 70.8945C80.6169 69.652 79.4773 68.4357 78.2951 67.2719C77.4586 66.4541 75.7651 64.8162 74.4954 65.844C73.3196 66.7877 74.5013 68.5659 75.13 69.5118L75.1935 69.6076C75.8006 70.5244 76.4076 71.4412 77.0318 72.3443C79.5272 75.9663 82.6167 78.7743 86.0463 81.4815C86.5982 80.6727 87.3584 80.0234 88.2413 79.5867ZM94.6542 81.227C92.7773 80.6685 90.5701 80.3395 88.765 81.3256C86.569 82.5245 86.6667 85.1896 87.4172 87.2153C87.9648 88.6933 88.6874 90.0914 89.4186 91.5059C89.6895 92.03 89.9616 92.5564 90.2264 93.09C90.4538 93.5483 90.6769 94.0107 90.9003 94.4736C91.6386 96.004 92.3802 97.541 93.2945 98.9626C94.4062 100.701 95.8417 102.331 97.8546 102.964C99.4591 103.467 101.522 103.356 102.739 102.037C105.09 99.5014 103.084 95.134 101.851 92.448C101.799 92.334 101.748 92.2229 101.699 92.1152C99.8923 88.1509 97.5033 84.499 94.6542 81.227Z" fill="#FF9E00"/>
<mask id="mask3_447_2594" style="mask-type:luminance" maskUnits="userSpaceOnUse" x="71" y="59" width="36" height="48">
<path d="M106.223 59.3062H71.2231V106.306H106.223V59.3062Z" fill="white"/>
<path fill-rule="evenodd" clip-rule="evenodd" d="M85.2788 70.2775L85.2848 70.2939L86.689 74.1309C85.4951 72.5326 84.2346 70.9837 82.9088 69.489C81.631 68.0489 80.3156 66.6202 78.8907 65.3249C77.7783 64.3095 76.3453 63.5025 74.7777 63.794C73.2101 64.0856 72.2866 65.3294 72.2267 66.832C72.1613 68.3625 73.0211 69.6449 73.835 70.8586C73.8832 70.9305 73.9312 71.0021 73.9789 71.0735C74.1238 71.2903 74.2683 71.5074 74.4128 71.7246C75.5599 73.4481 76.7098 75.1758 78.0723 76.7346C80.1856 79.1693 82.7206 81.204 85.2517 83.1862C85.2575 83.1908 85.2634 83.1953 85.2693 83.1997C85.2143 83.4149 85.1717 83.6359 85.1425 83.8624C84.8316 86.3148 85.9371 88.5679 86.9876 90.6795C87.3495 91.4097 87.7071 92.1435 88.0648 92.8778C88.925 94.6433 89.7865 96.4116 90.7148 98.1408C92.8203 102.073 96.4442 106.197 101.435 104.825C103.341 104.301 104.812 102.853 105.333 100.929C105.853 99.0054 105.44 96.8409 104.809 94.9431C102.978 89.4612 99.8031 84.3316 96.0195 80.0098C95.9394 79.8195 95.7755 79.6602 95.5093 79.5781L95.4978 79.5872C93.7685 79.056 91.9272 78.7076 90.1272 79.0003C90.226 78.799 90.2504 78.5554 90.1527 78.2901C89.089 75.385 88.0265 72.4813 86.964 69.5777L86.9621 69.5726C85.8988 66.6667 84.8354 63.7608 83.7709 60.8535C83.3729 59.7521 81.6899 60.4782 82.0937 61.5751C83.1562 64.4768 84.2175 67.3772 85.2788 70.2775ZM88.2413 79.5867C86.2834 76.53 84.1026 73.6206 81.7119 70.8945C80.6169 69.652 79.4773 68.4357 78.2951 67.2719C77.4586 66.4541 75.7651 64.8162 74.4954 65.844C73.3196 66.7877 74.5013 68.5659 75.13 69.5118L75.1935 69.6076C75.8006 70.5244 76.4076 71.4412 77.0318 72.3443C79.5272 75.9663 82.6167 78.7743 86.0463 81.4815C86.5982 80.6727 87.3584 80.0234 88.2413 79.5867ZM94.6542 81.227C92.7773 80.6685 90.5701 80.3395 88.765 81.3256C86.569 82.5245 86.6667 85.1896 87.4172 87.2153C87.9648 88.6933 88.6874 90.0914 89.4186 91.5059C89.6895 92.03 89.9616 92.5564 90.2264 93.09C90.4538 93.5483 90.6769 94.0107 90.9003 94.4736C91.6386 96.004 92.3802 97.541 93.2945 98.9626C94.4062 100.701 95.8417 102.331 97.8546 102.964C99.4591 103.467 101.522 103.356 102.739 102.037C105.09 99.5014 103.084 95.134 101.851 92.448C101.799 92.334 101.748 92.2229 101.699 92.1152C99.8923 88.1509 97.5033 84.499 94.6542 81.227Z" fill="#FF9E00"/>
</mask>
<g mask="url(#mask3_447_2594)">
<path d="M86.689 74.131L86.2884 74.4302L87.1585 73.9592L86.689 74.131ZM78.8907 65.325L78.5536 65.6943L78.5544 65.695L78.8907 65.325ZM72.2267 66.8321L72.7262 66.8534L72.7263 66.852L72.2267 66.8321ZM78.0723 76.7347L78.4499 76.407L78.4488 76.4057L78.0723 76.7347ZM85.2693 83.1998L85.7537 83.3237L85.8364 83.0004L85.5696 82.8L85.2693 83.1998ZM85.1425 83.8625L84.6466 83.7983L84.6464 83.7996L85.1425 83.8625ZM101.435 104.825L101.303 104.342L101.302 104.343L101.435 104.825ZM96.0195 80.0099L95.5588 80.2041L95.5901 80.2785L95.6433 80.3392L96.0195 80.0099ZM95.5093 79.5782L95.6567 79.1004L95.4046 79.0227L95.1982 79.1868L95.5093 79.5782ZM95.4978 79.5873L95.351 80.0653L95.6028 80.1426L95.809 79.9787L95.4978 79.5873ZM90.1272 79.0004L89.6783 78.7801L89.2518 79.6493L90.2074 79.4939L90.1272 79.0004ZM83.7709 60.8536L83.3007 61.0235L83.3014 61.0255L83.7709 60.8536ZM88.2413 79.5868L88.463 80.035L88.9635 79.7874L88.6623 79.3171L88.2413 79.5868ZM81.7119 70.8946L82.0878 70.565L82.087 70.5641L81.7119 70.8946ZM78.2951 67.272L78.6458 66.9157L78.6446 66.9145L78.2951 67.272ZM74.4954 65.8441L74.8084 66.2341L74.81 66.2327L74.4954 65.8441ZM86.0463 81.4816L85.7365 81.874L86.1572 82.2061L86.4593 81.7634L86.0463 81.4816ZM94.6542 81.2271L95.0313 80.8988L94.936 80.7893L94.7968 80.7479L94.6542 81.2271ZM93.2945 98.9627L93.7158 98.6934L93.7151 98.6922L93.2945 98.9627ZM85.7544 70.1222L85.7484 70.1058L84.8093 70.4494L84.8153 70.4659L85.7544 70.1222ZM87.1585 73.9592L85.7544 70.1222L84.8153 70.4659L86.2194 74.3029L87.1585 73.9592ZM82.5348 69.8209C83.8512 71.305 85.1028 72.843 86.2884 74.4302L87.0896 73.8318C85.8874 72.2223 84.6181 70.6626 83.2829 69.1573L82.5348 69.8209ZM78.5544 65.695C79.9588 66.9717 81.2598 68.3839 82.5348 69.8209L83.2829 69.1573C82.0024 67.7141 80.6725 66.269 79.2271 64.955L78.5544 65.695ZM74.8691 64.2857C76.205 64.0372 77.4825 64.7166 78.5536 65.6943L79.2271 64.955C78.0733 63.9018 76.4856 62.9679 74.6862 63.3026L74.8691 64.2857ZM72.7263 66.852C72.778 65.5551 73.557 64.5298 74.8691 64.2857L74.6862 63.3026C72.8632 63.6417 71.7952 65.1039 71.7271 66.8122L72.7263 66.852ZM74.2502 70.5802C73.4175 69.3384 72.669 68.1929 72.7262 66.8534L71.7271 66.8107C71.6535 68.5324 72.6247 69.9516 73.4197 71.1372L74.2502 70.5802ZM74.3948 70.7961C74.3467 70.7241 74.2984 70.652 74.2502 70.5802L73.4197 71.1372C73.4679 71.2091 73.5157 71.2803 73.563 71.3512L74.3948 70.7961ZM74.8291 71.4477C74.6846 71.2305 74.5401 71.0133 74.3948 70.7961L73.563 71.3512C73.7076 71.5675 73.852 71.7845 73.9966 72.0017L74.8291 71.4477ZM78.4488 76.4057C77.1115 74.8757 75.9792 73.1758 74.8291 71.4477L73.9966 72.0017C75.1406 73.7206 76.3082 75.4762 77.6958 77.0638L78.4488 76.4057ZM85.56 82.7927C83.0271 80.8091 80.5278 78.8009 78.4499 76.407L77.6947 77.0625C79.8434 79.538 82.4142 81.5993 84.9434 83.5799L85.56 82.7927ZM85.5696 82.8C85.5663 82.7976 85.5631 82.7952 85.56 82.7927L84.9434 83.5799C84.9519 83.5867 84.9605 83.5932 84.9691 83.5997L85.5696 82.8ZM84.7849 83.076C84.7249 83.3108 84.6785 83.5518 84.6466 83.7983L85.6383 83.9266C85.665 83.7203 85.7038 83.5192 85.7537 83.3237L84.7849 83.076ZM84.6464 83.7996C84.3135 86.4264 85.5019 88.8157 86.5399 90.9023L87.4355 90.4575C86.3727 88.3209 85.3497 86.2034 85.6385 83.9253L84.6464 83.7996ZM86.5399 90.9023C86.901 91.6308 87.2574 92.3624 87.6153 93.0969L88.5143 92.659C88.1567 91.9249 87.7984 91.1896 87.4355 90.4575L86.5399 90.9023ZM87.6153 93.0969C88.4747 94.8609 89.3406 96.6381 90.2743 98.3774L91.1556 97.9049C90.2327 96.1858 89.3752 94.4259 88.5143 92.659L87.6153 93.0969ZM90.2743 98.3774C91.3442 100.376 92.818 102.459 94.692 103.871C96.5813 105.295 98.8923 106.043 101.568 105.307L101.302 104.343C98.9869 104.979 96.9905 104.351 95.2938 103.073C93.5818 101.783 92.1911 99.8388 91.1556 97.9049L90.2743 98.3774ZM101.568 105.307C103.641 104.737 105.248 103.158 105.815 101.06L104.85 100.799C104.377 102.549 103.041 103.865 101.303 104.342L101.568 105.307ZM105.815 101.06C106.375 98.9918 105.924 96.7116 105.283 94.7853L104.334 95.1011C104.956 96.9703 105.331 99.0193 104.85 100.799L105.815 101.06ZM105.283 94.7853C103.428 89.23 100.215 84.0432 96.3957 79.6805L95.6433 80.3392C99.3912 84.6202 102.528 89.6926 104.334 95.1011L105.283 94.7853ZM96.4803 79.8157C96.3383 79.4786 96.0528 79.2226 95.6567 79.1004L95.3619 80.056C95.4348 80.0785 95.4785 80.1066 95.5046 80.1295C95.5303 80.152 95.5472 80.1767 95.5588 80.2041L96.4803 79.8157ZM95.1982 79.1868L95.1867 79.1959L95.809 79.9787L95.8204 79.9696L95.1982 79.1868ZM95.6447 79.1094C93.8866 78.5693 91.9584 78.1961 90.0469 78.5069L90.2074 79.4939C91.8959 79.2193 93.6505 79.5429 95.351 80.0653L95.6447 79.1094ZM89.6832 78.4621C89.7335 78.5987 89.7171 78.7012 89.6783 78.7801L90.5761 79.2206C90.7349 78.897 90.767 78.5114 90.6219 78.1174L89.6832 78.4621ZM86.4944 69.7496C87.557 72.6532 88.6195 75.5569 89.6832 78.4621L90.6219 78.1174C89.5583 75.2123 88.4961 72.3096 87.4335 69.4059L86.4944 69.7496ZM86.4926 69.7445L86.4944 69.7496L87.4335 69.4059L87.4316 69.4008L86.4926 69.7445ZM83.3014 61.0255C84.3659 63.9327 85.4292 66.8386 86.4926 69.7445L87.4316 69.4008C86.3682 66.495 85.3049 63.589 84.2405 60.6817L83.3014 61.0255ZM82.5633 61.4032C82.5115 61.2627 82.5301 61.1577 82.5726 61.0764C82.6206 60.9845 82.7124 60.8996 82.8295 60.8492C82.9475 60.7984 83.0544 60.7977 83.125 60.8214C83.1795 60.8397 83.25 60.8833 83.3007 61.0235L84.2412 60.6836C84.0928 60.2732 83.8037 59.9945 83.4433 59.8734C83.099 59.7578 82.7358 59.8007 82.4338 59.9308C81.8364 60.1882 81.3077 60.8874 81.6245 61.7479L82.5633 61.4032ZM85.7484 70.1058C84.6871 67.2055 83.6257 64.305 82.5633 61.4032L81.6245 61.7479C82.6869 64.6496 83.748 67.5491 84.8093 70.4494L85.7484 70.1058ZM88.6623 79.3171C86.6912 76.2398 84.4955 73.3103 82.0878 70.565L81.336 71.2243C83.7098 73.9311 85.8756 76.8204 87.8202 79.8565L88.6623 79.3171ZM82.087 70.5641C80.9854 69.314 79.8376 68.0889 78.6458 66.9157L77.9443 67.6283C79.117 68.7828 80.2485 69.9903 81.3368 71.2252L82.087 70.5641ZM78.6446 66.9145C78.2331 66.5121 77.5553 65.8501 76.8014 65.4293C76.0512 65.0107 75.0566 64.7466 74.1808 65.4555L74.81 66.2327C75.204 65.9138 75.6909 65.9548 76.314 66.3026C76.9334 66.6482 77.5206 67.2141 77.9455 67.6295L78.6446 66.9145ZM74.1825 65.4542C73.7858 65.7725 73.5771 66.1766 73.5151 66.6118C73.4554 67.0309 73.5346 67.4542 73.6617 67.8353C73.9134 68.5901 74.4063 69.3264 74.7136 69.7887L75.5466 69.2354C75.2252 68.7517 74.8127 68.1257 74.6103 67.519C74.5104 67.2194 74.4753 66.962 74.5051 66.7528C74.5326 66.5596 74.6172 66.3875 74.8084 66.2341L74.1825 65.4542ZM74.7136 69.7887L74.777 69.8842L75.6104 69.3316L75.5466 69.2354L74.7136 69.7887ZM74.777 69.8842C75.3836 70.8003 75.993 71.7208 76.6205 72.6287L77.4435 72.0608C76.8226 71.1625 76.2179 70.2491 75.6104 69.3316L74.777 69.8842ZM76.6205 72.6287C79.1572 76.3107 82.291 79.1543 85.7365 81.874L86.3561 81.0891C82.9424 78.3945 79.8976 75.6227 77.4435 72.0608L76.6205 72.6287ZM88.0196 79.1386C87.0628 79.6119 86.2355 80.3173 85.6333 81.1997L86.4593 81.7634C86.9609 81.0284 87.6541 80.4351 88.463 80.035L88.0196 79.1386ZM89.0046 81.7645C90.6218 80.881 92.6553 81.1539 94.5116 81.7063L94.7968 80.7479C92.8994 80.1832 90.5183 79.7981 88.5253 80.8869L89.0046 81.7645ZM87.886 87.0417C87.5298 86.08 87.3404 84.9945 87.4809 84.0328C87.6188 83.0891 88.069 82.2753 89.0046 81.7645L88.5253 80.8869C87.2648 81.5751 86.666 82.6932 86.4914 83.8882C86.3194 85.0652 86.5541 86.3251 86.9483 87.3891L87.886 87.0417ZM89.8628 91.2764C89.1292 89.8573 88.4212 88.4862 87.886 87.0417L86.9483 87.3891C87.5083 88.9006 88.2456 90.3257 88.9744 91.7356L89.8628 91.2764ZM90.6743 92.8678C90.4074 92.33 90.1334 91.7999 89.8628 91.2764L88.9744 91.7356C89.2456 92.2603 89.5158 92.7831 89.7785 93.3123L90.6743 92.8678ZM91.3506 94.2564C91.1274 93.7939 90.9032 93.329 90.6743 92.8678L89.7785 93.3123C90.0045 93.7678 90.2264 94.2276 90.4499 94.691L91.3506 94.2564ZM93.7151 98.6922C92.82 97.3007 92.0913 95.7916 91.3506 94.2564L90.4499 94.691C91.186 96.2165 91.9404 97.7816 92.874 99.2332L93.7151 98.6922ZM98.0046 102.487C96.1623 101.907 94.8079 100.401 93.7158 98.6934L92.8733 99.232C94.0044 101.001 95.5211 102.754 97.7046 103.441L98.0046 102.487ZM102.372 101.697C101.34 102.815 99.5165 102.961 98.0046 102.487L97.7046 103.441C99.4016 103.973 101.703 103.897 103.107 102.376L102.372 101.697ZM101.397 92.6568C102.018 94.0087 102.801 95.7208 103.15 97.4005C103.499 99.0849 103.384 100.606 102.372 101.697L103.106 102.377C104.445 100.932 104.503 99.002 104.129 97.1975C103.754 95.3881 102.918 93.5735 102.306 92.2395L101.397 92.6568ZM101.244 92.3226C101.293 92.4309 101.344 92.5428 101.397 92.6568L102.306 92.2395C102.253 92.1253 102.202 92.0148 102.153 91.9076L101.244 92.3226ZM94.2771 81.5554C97.0962 84.7929 99.4582 88.4043 101.244 92.3226L102.154 91.908C100.326 87.8976 97.9105 84.2054 95.0313 80.8988L94.2771 81.5554Z" fill="#FF9E00"/>
</g>
</g>
<defs>
<clipPath id="clip0_447_2594">
<rect width="145" height="134" fill="white"/>
</clipPath>
</defs>
</svg>
