<svg width="665" height="797" viewBox="0 0 665 797" fill="none" xmlns="http://www.w3.org/2000/svg">
<g clip-path="url(#clip0_323_295)">
<path d="M273.593 83.5451C258.611 66.8061 236.083 61.4264 217.165 71.7785C208.799 76.3437 201.435 83.9952 197.262 93.7471C193.379 102.792 192.578 113.294 194.582 123.131C196.824 134.084 202.711 144.007 211.369 149.108C213.975 150.651 216.29 146.022 213.665 144.479C199.923 136.398 194.619 115.137 200.287 98.8052C206.776 80.0944 225.148 70.2568 241.624 71.9285C252.359 73.0216 262.602 78.6584 270.403 87.3387C272.536 89.7177 275.762 85.9241 273.629 83.5451H273.593Z" fill="#CDDAD0"/>
<path d="M214.285 146.129C201.345 143.6 186.271 141.607 176.302 153.888C167.535 164.69 165.421 181.279 165.694 195.617C166.296 226.545 180.038 256.529 202.274 273.247C212.554 280.984 225.549 287.414 237.943 286.921C243.52 286.707 249.079 285.806 254.656 285.485C258.283 285.292 264.079 284.542 267.086 287.607C268.818 289.364 269.784 292.429 270.695 294.808C271.825 297.787 272.791 300.852 273.903 303.831C276.527 310.797 281.011 316.97 285.221 322.714C295.428 336.666 307.475 348.476 319.669 359.964C330.24 369.909 342.707 382.083 357.233 379.339C369.299 377.046 377.027 364.358 381.711 352.119C382.95 348.883 384.062 345.561 385.064 342.218C386.067 338.874 381.656 337.567 380.672 340.803C377.118 352.591 371.96 366.244 361.862 372.073C349.122 379.425 335.781 368.258 326.121 359.257C314.657 348.583 303.211 337.695 293.168 325.157C288.21 318.963 283.344 312.383 279.535 305.117C277.02 300.316 275.762 294.701 273.63 289.664C271.716 285.142 269.292 282.013 264.99 280.877C260.361 279.655 255.44 280.084 250.756 280.513C245.707 280.963 240.622 281.756 235.555 281.691C229.923 281.627 224.273 279.462 219.042 277.19C194.838 266.646 177.286 241.741 171.909 212.206C169.394 198.468 169.303 183.143 173.44 169.812C175.463 163.254 178.908 157.081 184.103 153.48C189.826 149.537 196.679 149.194 203.131 149.815C206.484 150.137 209.783 150.737 213.1 151.38C215.962 151.937 217.201 146.772 214.303 146.215L214.285 146.129Z" fill="#CDDAD0"/>
<path d="M381.055 339.346C377.719 354.22 382.367 370.337 391.644 380.904C401.523 392.156 416.031 396.593 429.482 395.028C442.932 393.463 456.092 386.326 464.476 373.702C472.86 361.078 475.302 343.696 469.524 329.208C463.728 314.676 448.765 305.889 435.533 310.497C433.054 311.354 433.564 315.662 436.134 315.769C462.872 316.67 492.252 310.754 509.203 283.899C516.53 272.282 520.248 257.772 518.17 243.369C516.092 228.967 508.018 215.421 498.231 206.098C485.746 194.224 470.417 187.816 455.272 182.243L454.67 187.516C482.356 184.086 510.843 167.583 521.269 135.412C525.971 120.902 526.572 104.099 521.451 89.6106C516.73 76.2794 507.38 66.4846 495.77 61.9408C483.395 57.097 469.287 58.9188 459.19 69.0351C457.605 70.6211 458.953 73.5574 460.794 73.6003C480.096 74.2218 496.627 52.0174 492.143 29.5987C490.029 18.9681 483.613 9.40904 475.339 4.43663C466.353 -0.943001 456.055 -0.107122 446.979 4.50093C435.897 10.1378 426.912 20.4898 418.673 30.6061L422.483 33.2209C426.857 20.7684 418.837 6.42988 408.449 2.87204C395.143 -1.69315 381.893 8.38026 374.53 20.7684C369.937 28.5057 366.984 37.4217 364.378 46.2949C363.412 49.5527 367.822 50.9672 368.77 47.7095C373.545 31.5063 380.599 13.0526 396 8.14451C402.416 6.08696 409.305 7.30863 414.135 12.924C418.382 17.875 420.441 25.0978 418.072 31.8063C417.179 34.3568 420.405 36.2215 421.881 34.4211C433.455 20.1683 449.968 1.02882 468.504 7.05143C476.505 9.6448 483.176 17.082 486.365 26.0409C489.555 34.9998 488.735 45.1804 484.16 53.432C479.075 62.5838 470.126 68.5636 460.776 68.2635L462.38 72.8287C479.184 56.0468 506.578 66.7418 515.983 88.4532C521.56 101.291 521.597 116.659 517.97 130.226C514.142 144.521 506.031 156.545 495.624 165.075C483.577 174.956 469.178 180.378 454.652 182.179C452.173 182.479 451.462 186.487 454.05 187.451C477.289 196.003 504.701 208.691 512.538 238.847C519.938 267.288 501.202 293.715 479.604 303.467C465.77 309.704 450.806 310.947 436.116 310.454L436.717 315.727C447.07 312.126 458.607 318.256 464.166 328.908C470.363 340.76 468.795 356.47 462.526 367.808C449.385 391.534 417.58 397.128 398.406 380.732C388.017 371.859 382.112 355.699 385.429 340.846C386.176 337.502 381.784 336.088 381.036 339.431L381.055 339.346Z" fill="#CDDAD0"/>
<path d="M368.151 49.2737C370.028 24.5831 352.093 3.02175 331.899 0.342649C309.772 -2.61508 288.94 14.1239 279.116 36.6712C273.156 50.3882 270.622 65.8627 270.805 81.1872C270.841 84.6378 275.398 84.6378 275.361 81.1872C275.069 57.1181 282.068 31.2487 299.201 16.5887C314.967 3.10748 337.33 0.556977 352.312 16.9531C359.912 25.269 364.505 36.9713 363.576 49.2737C363.321 52.703 367.877 52.6815 368.132 49.2737H368.151Z" fill="#CDDAD0"/>
<path d="M293.241 99.5553C288.247 87.0171 274.067 83.7164 264.279 90.1248C251.94 98.205 248.186 115.93 250.045 131.34C251.794 145.807 257.189 165.997 271.934 167.133C284.82 168.119 297.087 155.602 302.245 142.592C308.314 127.268 305.416 107.893 292.931 98.3122C290.47 96.4261 288.192 101.056 290.634 102.942C299.675 109.886 302.755 123.774 299.711 135.562C296.667 147.35 287.627 158.517 277.129 161.303C271.679 162.739 266.284 161.132 262.621 156.031C258.957 150.93 257.062 143.685 255.677 137.213C252.833 123.946 253.417 108.557 262.293 98.5265C266.321 93.9827 271.716 91.4751 277.311 92.3753C282.487 93.2112 287.08 96.6618 289.322 102.277C290.562 105.406 294.498 102.684 293.259 99.5767L293.241 99.5553Z" fill="#CDDAD0"/>
<path d="M288.83 92.6967C288.447 85.0881 288.21 77.2223 290.325 69.8922C291.947 64.234 295.355 58.7043 300.185 56.3896C302.518 55.2751 305.361 54.8678 307.731 56.0681C310.1 57.2683 311.376 60.2475 311.795 63.2266C312.725 69.6993 310.774 76.815 307.384 81.9375C303.302 88.1101 296.886 91.5822 290.288 91.6465C287.354 91.668 287.354 97.0262 290.288 97.0047C304.942 96.8761 317.7 81.9589 316.479 64.3626C316.206 60.4618 315.185 56.4539 312.725 53.6676C310.264 50.8813 306.655 49.724 303.265 50.0669C296.631 50.7527 291.145 56.2395 287.992 62.9051C283.709 71.9712 283.763 82.6447 284.274 92.6967C284.438 96.126 288.994 96.1474 288.83 92.6967Z" fill="#CDDAD0"/>
<path d="M297.724 102.149C309.608 86.267 324.972 74.4147 342.141 68.0706C344.93 67.0418 343.745 61.8765 340.938 62.9053C323.059 69.5066 306.892 81.7876 294.516 98.3551C292.584 100.927 295.792 104.742 297.742 102.149H297.724Z" fill="#CDDAD0"/>
<path d="M313.016 202.176C302.08 199.904 289.978 201.768 280.464 208.777C270.422 216.193 264.972 229.91 264.48 243.605C264.042 256.122 268.398 275.433 280.847 277.726C293.295 280.02 303.958 266.131 309.644 255.179C316.588 241.826 319.104 225.645 316.516 210.299C315.951 206.912 311.558 208.348 312.123 211.713C314.11 223.501 312.67 236.018 308.277 246.863C303.885 257.708 296.394 268.982 286.515 272.047C274.413 275.819 269.328 257.858 269.018 246.863C268.69 235.011 272.609 222.044 280.938 214.821C289.267 207.598 301.443 205.155 311.795 207.32C314.656 207.92 315.896 202.754 312.998 202.154L313.016 202.176Z" fill="#CDDAD0"/>
<path d="M307.621 214.821C327.706 199.968 347.81 185.094 367.895 170.241C370.374 168.419 368.096 163.768 365.599 165.611C345.513 180.464 325.41 195.338 305.325 210.191C302.846 212.013 305.124 216.664 307.621 214.821Z" fill="#CDDAD0"/>
<path d="M307.202 201.383C312.378 185.78 320.27 170.219 330.659 158.603C333.102 155.859 336.164 153.609 339.663 154.681C342.944 155.688 345.222 159.267 345.113 163.275C345.003 167.283 342.597 170.155 340.192 172.491C337.257 175.342 333.976 177.764 330.86 180.314C323.077 186.701 315.295 193.088 307.512 199.497C305.124 201.447 307.403 206.098 309.809 204.126C318.047 197.353 326.285 190.602 334.523 183.829C340.629 178.814 349.45 173.284 349.669 163.297C349.87 153.952 341.85 146.836 334.268 149.708C330.422 151.166 327.488 154.616 324.827 158.045C321.929 161.796 319.213 165.74 316.698 169.834C310.975 179.135 306.364 189.294 302.81 199.968C301.734 203.183 306.145 204.576 307.202 201.383Z" fill="#CDDAD0"/>
<path d="M421.516 170.091C433.363 161.539 438.43 145.7 440.125 130.183C440.617 125.661 440.873 121.117 441.037 116.573C441.164 112.801 441.219 108.9 439.888 105.385C437.3 98.548 430.411 96.2976 424.56 97.1763C410.799 99.2339 403.072 114.473 399.663 128.833C398.169 135.155 396.364 142.742 398.479 149.151C400.812 156.245 407.264 157.681 412.804 154.959C419.256 151.787 424.87 145.1 429.208 138.82C433.91 132.005 437.519 124.396 440.034 116.144C441.018 112.887 436.626 111.493 435.642 114.73C432.015 126.668 425.636 137.299 417.306 145.314C414.098 148.401 407.355 154.316 403.618 149.087C400.775 145.122 402.361 138.284 403.29 133.826C405.787 121.695 410.562 107.957 421.48 103.52C425.836 101.742 432.452 101.399 435.314 106.585C436.826 109.329 436.608 112.972 436.517 116.08C436.407 119.788 436.207 123.496 435.897 127.182C434.639 141.735 430.447 157.403 419.256 165.483C416.759 167.283 419.056 171.913 421.553 170.112L421.516 170.091Z" fill="#CDDAD0"/>
<path d="M440.089 67.9633C440.909 78.8083 438.248 89.5033 432.653 98.1836C431.906 99.3409 432.507 101.184 433.473 101.849C434.639 102.663 435.842 102.041 436.59 100.884C442.604 91.5608 445.521 79.6013 444.646 67.9633C444.391 64.5555 439.834 64.5341 440.089 67.9633Z" fill="#CDDAD0"/>
<path d="M425.946 141.649C427.878 127.311 429.81 112.972 431.742 98.6123C433.273 87.2958 436.754 73.4931 432.179 62.5623C428.406 53.5391 418.783 49.8312 410.927 53.2819C403.072 56.7326 398.388 67.5347 399.591 77.4796C401.067 89.6534 410.727 97.9264 420.788 98.548C423.722 98.7409 423.704 93.3827 420.788 93.1898C413.279 92.7183 405.933 86.7814 404.257 77.8868C402.744 69.8709 406.261 60.419 413.26 58.0186C420.259 55.6181 427.568 60.2904 429.263 68.885C430.174 73.5145 429.773 78.4655 429.208 83.1378C428.516 88.8818 427.677 94.6258 426.893 100.348C425.107 113.637 423.303 126.925 421.517 140.235C421.061 143.6 425.454 145.057 425.909 141.649H425.946Z" fill="#CDDAD0"/>
<path d="M393.193 236.897C389.275 220.136 387.543 202.776 388.163 185.394C388.29 181.557 388.035 176.628 389.694 173.177C391.589 169.233 395.144 170.477 396.675 174.077C398.206 177.678 398.224 182.222 398.552 186.08C398.916 190.431 399.19 194.824 399.317 199.197C399.645 209.356 399.317 219.536 398.442 229.653C398.133 233.082 402.707 233.06 402.999 229.653C403.929 219 404.238 208.305 403.819 197.611C403.619 192.359 403.254 187.108 402.707 181.9C402.27 177.571 401.869 172.963 399.5 169.405C397.495 166.404 394.159 164.454 390.897 165.504C387.634 166.554 385.593 169.941 384.682 173.52C383.479 178.214 383.625 183.615 383.515 188.459C383.406 193.581 383.515 198.704 383.807 203.826C384.481 215.485 386.158 227.038 388.783 238.311C389.566 241.633 393.959 240.219 393.175 236.897H393.193Z" fill="#CDDAD0"/>
<path d="M414.244 174.656C409.487 192.017 404.73 209.356 399.973 226.716C399.062 229.995 403.473 231.41 404.366 228.131C409.123 210.77 413.88 193.431 418.637 176.071C419.548 172.791 415.138 171.377 414.244 174.656Z" fill="#CDDAD0"/>
<path d="M412.823 240.926C409.797 235.739 406.079 230.853 401.012 228.452C395.945 226.052 390.058 227.038 385.976 231.774C381.601 236.875 380.307 244.119 379.123 250.935C377.719 258.951 376.152 266.967 374.967 275.047C373.053 288.014 373.819 304.217 385.702 310.218C390.24 312.512 395.344 311.869 399.317 308.375C403.29 304.881 405.806 299.116 407.482 293.565C412.367 277.34 414.007 259.422 413.169 242.298C413.005 238.868 408.448 238.847 408.612 242.298C409.25 255.393 408.339 268.531 405.733 281.305C404.038 289.643 401.395 304.56 392.537 306.167C388.126 306.982 383.916 303.445 381.547 299.33C378.576 294.165 378.266 287.757 378.758 281.691C379.268 275.218 380.654 268.831 381.765 262.466C382.877 256.1 383.643 249.778 385.283 243.712C386.923 237.647 390.824 231.303 396.966 232.567C402.179 233.639 406.079 238.74 408.922 243.626C410.563 246.456 414.518 243.777 412.859 240.926H412.823Z" fill="#CDDAD0"/>
<path d="M261.618 283.256C257.317 347.811 247.019 411.638 234.334 474.586C227.973 506.157 220.974 537.535 213.702 568.826C210.148 584.087 206.557 599.347 202.894 614.564C199.686 627.831 196.241 641.184 190.627 653.379C184.686 666.281 176.302 677.341 164.692 683.278C154.212 688.636 141.872 689.364 131.994 681.884C129.515 680.02 127.237 684.649 129.697 686.514C148.489 700.767 173.422 689.107 186.472 670.332C194.127 659.337 199.066 646.263 202.912 632.889C207.013 618.593 210.202 603.933 213.629 589.402C228.866 524.889 243.228 459.991 253.526 394.106C259.267 357.435 263.714 320.463 266.193 283.277C266.43 279.848 261.855 279.848 261.637 283.277L261.618 283.256Z" fill="#CDDAD0"/>
<path d="M365.763 376.703C353.168 435.322 340.574 494.24 335.416 554.552C330.987 606.462 329.201 667.482 359.037 710.262C372.834 730.065 392.883 744.447 415.028 745.24C417.962 745.347 417.962 739.989 415.028 739.882C395.708 739.196 378.175 727.258 365.38 710.712C351.091 692.215 343.508 668.403 340.1 644.013C336.309 616.772 337.366 588.652 339.444 561.282C341.668 532.048 345.75 503.071 350.799 474.329C356.467 442.052 363.32 410.095 370.173 378.139C370.884 374.795 366.492 373.359 365.781 376.724L365.763 376.703Z" fill="#CDDAD0"/>
<path d="M248.168 283.577C225.804 338.595 202.274 392.949 177.742 446.66C170.98 461.47 164.127 476.215 157.183 490.918C155.761 493.94 159.698 496.641 161.119 493.619C186.29 440.316 210.348 386.262 233.35 331.63C239.692 316.563 245.944 301.452 252.104 286.278C253.362 283.192 249.443 280.47 248.168 283.577Z" fill="#CDDAD0"/>
<path d="M161.283 493.705C162.65 472.893 160.281 451.868 154.358 432.171C153.392 428.935 148.981 430.328 149.965 433.586C155.761 452.875 158.057 473.301 156.727 493.705C156.508 497.134 161.065 497.134 161.283 493.705Z" fill="#CDDAD0"/>
<path d="M160.882 498.291C175.7 485.496 193.124 477.158 211.387 474.479C214.267 474.051 214.303 468.692 211.387 469.121C192.304 471.907 174.096 480.266 158.586 493.662C156.253 495.676 158.513 500.327 160.882 498.291Z" fill="#CDDAD0"/>
<path d="M147.158 525.811C138.61 547.994 130.062 570.177 121.514 592.338C120.311 595.446 124.229 598.189 125.451 595.039C133.999 572.856 142.547 550.673 151.095 528.511C152.298 525.404 148.379 522.66 147.158 525.811Z" fill="#CDDAD0"/>
<path d="M126.508 594.503C124.849 576.264 133.033 550.866 117.468 538.028C111.635 533.205 103.652 532.584 98.1478 538.392C92.6435 544.2 91.6228 553.931 93.409 562.032C95.9606 573.563 103.196 582.565 106.24 593.86C107.115 597.139 111.526 595.746 110.633 592.445C108.373 584.065 103.98 576.95 100.645 569.169C97.601 562.075 95.4139 553.373 98.8768 545.915C102.066 539.078 108.646 537.985 114.077 541.821C120.183 546.129 122.279 554.659 122.644 562.568C123.136 573.242 120.985 583.829 121.951 594.503C122.261 597.889 126.818 597.932 126.508 594.503Z" fill="#CDDAD0"/>
<path d="M125.924 593.71C112.255 587.559 97.692 599.454 92.4064 614.05C89.0893 623.18 88.4331 633.275 88.9435 643.113C89.3991 651.986 90.3469 661.223 92.8621 669.646C95.0492 676.976 98.6762 684.028 104.6 687.886C111.471 692.344 119.727 691.444 126.672 687.736C140.25 680.47 148.014 662.981 148.926 646.027C150.056 625.238 140.706 605.498 127.947 591.845C125.779 589.531 122.553 593.303 124.721 595.639C134.91 606.57 142.911 621.337 144.26 637.754C145.481 652.543 141.052 668.21 131.301 677.962C126.107 683.149 118.853 686.685 111.945 685.314C105.748 684.071 101.392 678.841 98.7127 672.411C96.0334 665.981 94.867 658.266 94.1197 651.021C93.2084 642.277 92.7892 633.189 94.3749 624.509C95.9605 615.829 99.5329 607.748 105.857 602.54C111.416 597.954 118.233 595.982 124.721 598.897C127.455 600.14 128.64 594.953 125.924 593.731V593.71Z" fill="#CDDAD0"/>
<path d="M554.386 413.632C548.079 412.582 540.789 411.446 535.23 416.032C530.509 419.933 527.794 426.834 530.6 433.264C533.334 439.565 540.297 442.802 546.056 442.33C551.816 441.859 557.393 437.551 559.216 430.735C561.038 423.919 557.521 415.325 551.251 413.525C548.407 412.71 547.186 417.875 550.048 418.69C553.474 419.676 555.734 423.962 555.115 428.035C554.386 432.814 550.74 436.265 546.749 436.908C542.757 437.551 537.672 435.793 535.193 431.785C532.715 427.777 534.464 423.405 537.417 420.79C541.846 416.868 548.098 417.961 553.219 418.797C554.44 418.99 555.661 418.454 556.026 416.932C556.318 415.668 555.661 413.846 554.44 413.632H554.386Z" fill="#CDDAD0"/>
<path d="M552.107 398.779C555.534 387.848 559.963 377.389 565.248 367.53C566.816 364.615 562.879 361.914 561.311 364.829C555.807 375.074 551.269 385.983 547.715 397.364C547.296 398.714 548.189 400.3 549.3 400.665C550.576 401.072 551.67 400.15 552.107 398.8V398.779Z" fill="#CDDAD0"/>
<path d="M562.314 366.694C568.565 370.316 575.437 374.024 582.581 372.481C588.888 371.13 593.553 365.429 597.035 359.471C601.154 352.377 604.27 344.361 606.312 336.131C608.134 328.801 609.665 320.313 607.223 312.94C602.612 299.009 586.609 297.745 575.892 300.016C569.841 301.302 563.735 305.096 560.746 311.676C558.14 317.398 558.614 324.407 561.621 329.808C564.938 335.766 570.698 338.938 576.712 337.502C582.727 336.066 587.903 330.194 588.96 323.057C589.453 319.692 585.06 318.234 584.568 321.642C583.055 331.93 571.482 336.559 565.886 327.686C563.407 323.743 562.769 318.406 564.847 314.055C567.417 308.697 572.557 306.082 577.496 305.139C585.643 303.574 599.368 303.96 602.976 314.805C604.981 320.828 603.578 327.858 602.156 333.837C600.589 340.396 598.31 346.697 595.376 352.57C592.442 358.442 589.033 364.401 583.602 366.672C577.168 369.373 570.297 365.386 564.61 362.107C561.986 360.586 559.671 365.215 562.314 366.737V366.694Z" fill="#CDDAD0"/>
<path d="M588.268 319.306C584.86 317.398 581.433 315.469 578.025 313.562C576.949 312.962 575.51 313.176 574.908 314.526C574.38 315.726 574.58 317.548 575.728 318.191C579.137 320.099 582.563 322.028 585.971 323.935C587.047 324.535 588.487 324.321 589.088 322.971C589.617 321.77 589.416 319.949 588.268 319.306Z" fill="#CDDAD0"/>
<path d="M491.833 487.275C489.792 503.949 487.86 522.875 497.264 537.149C501.165 543.064 506.851 547.158 513.194 548.101C519.537 549.044 525.715 545.893 530.454 540.578C536.414 533.891 541.153 525.361 544.798 516.723C546.092 513.637 542.174 510.936 540.861 514.023C537.325 522.382 532.805 530.676 526.973 537.084C521.141 543.493 514.105 544.693 507.252 540.321C491.778 530.44 494.129 505.728 496.207 488.689C496.626 485.324 492.234 483.867 491.815 487.275H491.833Z" fill="#CDDAD0"/>
<path d="M499.78 493.747C502.878 493.64 505.977 493.662 509.057 494.09C510.023 494.219 511.262 494.476 512.447 494.776C513.632 495.076 514.744 495.483 515.874 495.955L514.871 495.269C514.488 494.648 514.434 494.026 514.725 493.404C514.871 493.104 515.072 492.933 515.327 492.89C515.6 492.826 515.564 492.804 515.236 492.847C514.944 492.847 514.853 492.826 514.999 492.826C514.306 492.74 513.595 492.547 512.903 492.419C511.39 492.118 509.877 491.818 508.364 491.518C505.339 490.918 502.313 490.318 499.288 489.718C498.067 489.482 496.827 490.104 496.481 491.583C496.189 492.869 496.845 494.648 498.067 494.883C501.147 495.483 504.245 496.105 507.325 496.705C508.893 497.005 510.46 497.327 512.046 497.627C513.632 497.927 515.381 498.57 516.931 497.82C518.389 497.134 519.318 495.355 519.045 493.49C518.753 491.454 517.313 490.79 515.819 490.254C513.613 489.461 511.353 489.011 509.075 488.689C505.995 488.282 502.896 488.239 499.798 488.346C498.559 488.389 497.52 489.547 497.52 491.025C497.52 492.504 498.559 493.747 499.798 493.705L499.78 493.747Z" fill="#CDDAD0"/>
<path d="M525.88 504.592L540.37 505.407C541.554 505.471 542.703 504.121 542.648 502.728C542.593 501.227 541.645 500.113 540.37 500.049L525.88 499.234C524.695 499.17 523.547 500.52 523.601 501.913C523.656 503.414 524.604 504.528 525.88 504.592Z" fill="#CDDAD0"/>
<path d="M530.728 505.878C529.124 506.243 527.575 507.336 526.499 508.772C525.315 510.315 524.422 512.373 524.403 514.494C524.403 516.766 525.424 519.124 527.338 519.874C528.577 520.367 529.889 519.853 530.855 518.888C531.548 518.202 532.022 517.195 532.423 516.252C533.371 514.13 534.063 511.837 534.391 509.479C534.501 508.75 534.482 508.086 534.154 507.422C533.881 506.864 533.334 506.328 532.787 506.2C531.694 505.9 530.199 506.586 529.981 508.065C529.762 509.629 529.379 511.151 528.869 512.63L529.106 511.987C528.832 512.737 528.522 513.487 528.176 514.194C528.03 514.494 527.848 514.773 527.702 515.095C527.957 514.73 527.994 514.644 527.848 514.859C527.793 514.923 527.739 514.987 527.684 515.03C528.012 514.752 528.085 514.687 527.885 514.837C527.83 514.88 527.757 514.923 527.702 514.944L528.249 514.666C528.121 514.73 528.012 514.752 527.866 514.773L528.468 514.687C528.358 514.687 528.249 514.687 528.14 514.687L528.741 514.773C528.632 514.752 528.541 514.709 528.45 514.666L528.996 514.944C528.741 514.794 528.705 514.58 529.124 515.116C529.069 515.03 528.996 514.944 528.923 514.88C528.814 514.752 529.288 515.523 529.051 515.052C528.996 514.923 528.942 514.794 528.887 514.666L529.124 515.309C529.015 514.987 528.942 514.687 528.905 514.344L528.978 515.052C528.942 514.73 528.942 514.387 528.978 514.066L528.905 514.773C528.978 514.28 529.087 513.809 529.251 513.337L529.015 513.98C529.16 513.594 529.324 513.23 529.507 512.865C529.561 512.758 529.634 512.651 529.689 512.544C529.871 512.244 529.561 512.758 529.525 512.78C529.671 512.694 529.798 512.394 529.926 512.265C530.053 512.115 530.181 511.965 530.327 511.837C530.473 511.708 530.691 511.58 530.163 511.987C530.236 511.922 530.309 511.858 530.382 511.794C530.691 511.537 531.019 511.344 531.366 511.151L530.819 511.429C531.183 511.258 531.548 511.108 531.949 511.022C533.115 510.744 533.899 509.029 533.535 507.722C533.134 506.264 531.985 505.557 530.728 505.857V505.878Z" fill="#CDDAD0"/>
<path d="M506.086 505.664C504.974 506.993 503.972 508.407 503.425 510.186C502.824 512.094 503.115 514.194 504.172 515.78C505.229 517.366 507.07 518.395 508.784 517.688C510.679 516.873 511.536 514.73 512.01 512.587C512.484 510.443 512.52 508.107 512.21 505.835C512.119 505.214 511.609 504.528 511.171 504.228C510.679 503.885 509.968 503.756 509.421 503.949C508.875 504.142 508.346 504.571 508.055 505.171C507.745 505.857 507.726 506.478 507.818 507.229C507.836 507.379 507.854 507.529 507.872 507.679L507.799 506.971C507.909 508.086 507.909 509.222 507.799 510.336L507.872 509.629C507.745 510.679 507.526 511.708 507.18 512.672L507.417 512.029C507.289 512.394 507.143 512.715 506.943 513.037L507.307 512.501C507.198 512.672 507.07 512.801 506.925 512.951L507.38 512.522C507.271 512.608 507.161 512.694 507.034 512.758L507.581 512.48C507.471 512.522 507.362 512.565 507.234 512.587L507.836 512.501C507.69 512.501 507.544 512.522 507.398 512.501L508 512.587C507.818 512.544 507.654 512.501 507.49 512.415L508.036 512.694C507.872 512.608 507.708 512.501 507.562 512.351L508.018 512.78C507.836 512.608 507.69 512.437 507.544 512.222L507.909 512.758C507.745 512.522 507.617 512.265 507.526 511.965L507.763 512.608C507.672 512.351 507.617 512.115 507.599 511.837L507.672 512.544C507.654 512.308 507.672 512.072 507.672 511.837L507.599 512.544C507.654 512.158 507.726 511.772 507.854 511.408L507.617 512.051C507.818 511.472 508.109 510.958 508.419 510.465L508.055 511.001C508.437 510.422 508.857 509.908 509.276 509.372C510.114 508.364 510.187 506.564 509.276 505.578C508.364 504.592 506.943 504.507 506.05 505.578L506.086 505.664Z" fill="#CDDAD0"/>
<path d="M515.418 515.03C514.907 520.796 515.436 526.69 516.894 532.219L520.248 529.197C517.514 527.697 514.78 526.197 512.046 524.675C510.97 524.075 509.531 524.268 508.929 525.639C508.401 526.818 508.601 528.661 509.749 529.304C512.483 530.805 515.217 532.305 517.951 533.827C518.808 534.298 519.701 534.32 520.485 533.612C521.177 532.969 521.578 531.833 521.305 530.805C519.919 525.575 519.5 520.56 519.992 515.03C520.12 513.637 518.862 512.287 517.714 512.351C516.384 512.415 515.563 513.53 515.436 515.03H515.418Z" fill="#CDDAD0"/>
<path d="M466.663 523.067C475.12 496.705 484.853 467.471 507.544 453.947C517.386 448.095 530.053 445.866 540.133 452.232C551.269 459.262 553.219 475.208 554.404 488.603C556.026 506.907 555.388 525.361 554.732 543.707C554.604 547.158 559.161 547.158 559.288 543.707C559.908 525.875 560.546 507.957 559.088 490.147C557.921 475.765 556.08 459.026 545.418 449.832C535.54 441.301 521.669 441.601 510.624 446.531C499.033 451.696 489.446 461.47 482.173 473.129C473.097 487.725 467.611 504.871 462.234 521.653C461.195 524.889 465.606 526.282 466.626 523.067H466.663Z" fill="#CDDAD0"/>
<path d="M461.049 524.289C460.594 528.597 464.786 531.212 467.975 530.29C472.277 529.047 473.17 523.303 473.498 518.91L470.071 521.224C471.238 522.21 472.404 523.196 473.571 524.161C474.5 524.932 476.214 524.439 476.687 523.196C477.562 520.881 478.419 518.567 479.294 516.252L476.724 517.474L479.184 518.502C480.114 518.888 481.28 518.245 481.754 517.281C484.762 511.001 487.113 504.4 489.573 497.798C490.63 494.948 491.578 491.947 492.872 489.247C493.401 488.132 494.148 486.653 495.26 486.267C495.734 486.096 497.356 486.267 497.174 487.189C496.59 490.233 499.853 491.711 501.329 489.247C506.724 480.309 512.101 471.393 517.496 462.456L513.34 461.813C514.689 469.764 516.785 477.459 519.537 484.896C520.394 487.232 523.109 486.16 523.693 484.253C525.388 478.873 527.083 473.494 528.778 468.114C529.671 465.285 525.716 463.291 524.622 466.056C521.506 473.858 524.203 482.045 528.431 488.454C530.673 491.819 533.261 494.841 535.467 498.248C537.417 501.292 538.93 504.7 540.078 508.258C544.471 521.824 545.145 537.47 554.076 548.444C556.117 550.93 559.325 547.137 557.302 544.65C549.209 534.706 548.553 519.917 544.689 507.55C542.575 500.756 539.404 495.205 535.357 489.804C531.311 484.403 525.442 476.537 528.541 468.735L524.385 466.678C522.69 472.058 520.995 477.437 519.3 482.817L523.456 482.174C520.886 475.165 519.009 467.835 517.733 460.355C517.314 457.89 514.598 457.998 513.577 459.712C508.182 468.65 502.805 477.566 497.411 486.503L501.566 488.561C502.277 484.874 500.199 481.809 497.174 480.952C493.802 479.988 490.958 482.667 489.263 485.839C486.967 490.125 485.545 495.269 483.814 499.877C481.937 504.871 480.077 509.758 477.799 514.516L480.369 513.294L477.909 512.265C477.052 511.901 475.721 512.48 475.339 513.487C474.464 515.802 473.607 518.117 472.732 520.431L475.849 519.467C474.682 518.481 473.516 517.495 472.35 516.531C470.819 515.245 469.069 517.024 468.923 518.845C468.795 520.517 468.723 523.432 467.483 524.589C466.718 525.297 465.478 525.211 465.588 524.225C465.952 520.817 461.377 520.839 461.031 524.225L461.049 524.289Z" fill="#CDDAD0"/>
<path d="M530.673 466.613V485.003C530.673 486.46 531.712 487.682 532.952 487.682C534.191 487.682 535.23 486.46 535.23 485.003V466.613C535.23 465.156 534.191 463.934 532.952 463.934C531.712 463.934 530.673 465.156 530.673 466.613Z" fill="#CDDAD0"/>
<path d="M537.216 469.743C537.344 478.401 537.471 487.082 537.599 495.741C537.654 499.191 542.21 499.191 542.156 495.741C542.028 487.082 541.9 478.401 541.773 469.743C541.718 466.292 537.162 466.292 537.216 469.743Z" fill="#CDDAD0"/>
<path d="M544.379 475.122C543.359 493.704 542.867 514.066 554.021 528.94C555.971 531.533 559.179 527.718 557.247 525.146C547.004 511.515 548.006 492.033 548.936 475.122C549.118 471.672 544.562 471.693 544.379 475.122Z" fill="#CDDAD0"/>
<path d="M512.483 548.615C507.198 588.737 501.912 628.86 496.627 668.982C495.114 680.491 493.601 692.001 492.088 703.489C491.651 706.854 496.025 708.311 496.481 704.903C501.766 664.781 507.052 624.659 512.338 584.537C513.85 573.027 515.363 561.518 516.876 550.03C517.313 546.665 512.939 545.207 512.483 548.615Z" fill="#CDDAD0"/>
<path d="M492.07 531.083C487.86 537.149 485.6 544.865 486.055 552.709C486.128 554.145 487.04 555.388 488.334 555.388C489.5 555.388 490.703 554.166 490.612 552.709C490.247 546.322 491.851 539.849 495.296 534.877C496.08 533.762 496.226 532.176 495.296 531.083C494.494 530.14 492.854 529.947 492.07 531.083Z" fill="#CDDAD0"/>
<path d="M483.631 564.561C484.105 584.065 483.777 603.612 483.412 623.116C483.34 626.566 487.896 626.566 487.969 623.116C488.334 603.612 488.662 584.065 488.188 564.561C488.097 561.111 483.54 561.111 483.631 564.561Z" fill="#CDDAD0"/>
<path d="M483.394 624.187C486.876 634.154 496.116 634.904 504.099 635.375C514.361 635.954 524.622 636.554 534.883 637.133C537.818 637.304 537.799 631.946 534.883 631.775C526.135 631.282 517.386 630.767 508.638 630.274C502.368 629.91 490.794 631.325 487.805 622.773C486.712 619.622 482.301 621.015 483.413 624.187H483.394Z" fill="#CDDAD0"/>
<path d="M529.489 541.157L537.526 545.551C538.091 545.851 538.656 546.022 539.276 545.829C539.805 545.658 540.37 545.186 540.643 544.607C541.172 543.429 540.971 541.564 539.823 540.942L531.785 536.549C531.22 536.249 530.655 536.077 530.035 536.27C529.507 536.442 528.942 536.913 528.668 537.492C528.14 538.671 528.34 540.535 529.489 541.157Z" fill="#CDDAD0"/>
<path d="M536.998 545.508C533.936 574.528 532.277 603.74 532.004 632.975C531.967 636.425 536.524 636.425 536.56 632.975C536.834 603.74 538.492 574.528 541.554 545.508C541.919 542.1 537.362 542.121 536.998 545.508Z" fill="#CDDAD0"/>
<path d="M536.123 586.123C548.48 594.482 557.867 608.22 562.059 624.252C562.915 627.531 567.326 626.138 566.451 622.837C561.913 605.498 551.816 590.538 538.438 581.493C535.886 579.779 533.589 584.408 536.141 586.123H536.123Z" fill="#CDDAD0"/>
<path d="M539.112 559.31C559.47 571.013 576.02 590.602 585.844 614.607C587.119 617.715 591.038 614.993 589.78 611.906C579.665 587.152 562.405 566.748 541.426 554.681C538.802 553.181 536.487 557.789 539.13 559.31H539.112Z" fill="#CDDAD0"/>
<path d="M565.722 628.088C572.156 622.451 579.829 619.065 587.849 618.593C590.765 618.422 590.783 613.064 587.849 613.235C579.064 613.75 570.479 617.243 563.407 623.459C562.423 624.316 561.913 625.773 562.587 627.124C563.152 628.26 564.72 628.945 565.704 628.088H565.722Z" fill="#CDDAD0"/>
<path d="M421.152 599.282C441.383 575.942 467.592 560.51 495.569 555.281L493.346 550.801C473.643 570.734 455.599 592.831 439.451 616.772C437.647 619.451 440.854 623.266 442.677 620.565C458.825 596.625 476.869 574.528 496.572 554.595C498.486 552.666 496.353 549.751 494.348 550.116C465.624 555.474 438.667 571.548 417.908 595.51C415.812 597.932 419.038 601.726 421.134 599.304L421.152 599.282Z" fill="#CDDAD0"/>
<path d="M442.878 619.579C442.677 613.064 439.378 607.577 434.968 603.869C430.211 599.883 424.287 598.404 418.674 597.032C417.471 596.732 416.213 597.439 415.867 598.897C415.557 600.225 416.249 601.897 417.452 602.197C422.373 603.398 427.495 604.598 431.815 607.813C435.241 610.385 438.157 614.628 438.321 619.558C438.431 622.987 442.987 623.009 442.878 619.558V619.579Z" fill="#CDDAD0"/>
<path d="M502.24 618.165C490.503 617.286 478.054 624.702 470.509 635.054C461.414 647.506 458.862 665.146 456.383 680.749C455.855 684.114 460.247 685.571 460.776 682.163C463.054 667.825 465.187 651.043 473.316 639.405C480.096 629.674 491.414 622.709 502.24 623.502C505.175 623.716 505.157 618.358 502.24 618.143V618.165Z" fill="#CDDAD0"/>
<path d="M459.3 684.349L490.047 671.747C492.799 670.611 491.615 665.446 488.844 666.582L458.097 679.184C455.345 680.32 456.529 685.485 459.3 684.349Z" fill="#CDDAD0"/>
<path d="M488.206 668.125C475.958 699.417 462.471 730.023 447.781 759.836C446.304 762.815 450.241 765.537 451.718 762.536C466.39 732.723 479.877 702.117 492.143 670.825C493.364 667.717 489.428 664.996 488.206 668.125Z" fill="#CDDAD0"/>
<path d="M456.566 680.234C442.349 690.801 430.994 706.339 424.433 724.557C423.941 725.907 424.105 727.408 425.253 728.222C426.201 728.887 427.896 728.587 428.37 727.258C434.64 709.854 445.265 694.958 458.862 684.842C461.341 682.999 459.044 678.369 456.566 680.213V680.234Z" fill="#CDDAD0"/>
<path d="M423.904 726.293C423.649 730.065 425.891 733.216 428.534 735.016C431.176 736.817 434.238 737.717 436.079 740.975C437.92 744.232 438.923 747.855 440.144 751.348C441.62 755.549 443.096 759.771 444.573 763.972C445.302 766.051 447.616 766.715 448.728 764.615C449.002 764.101 449.293 763.586 449.567 763.05C451.134 760.136 447.197 757.435 445.63 760.35C445.356 760.864 445.065 761.379 444.791 761.914L448.947 762.557C447.543 758.571 446.14 754.584 444.755 750.598C443.479 746.976 442.349 743.161 440.727 739.732C439.251 736.602 437.209 734.095 434.475 732.487C432.306 731.223 428.187 729.894 428.424 726.272C428.661 722.65 424.105 722.842 423.868 726.272L423.904 726.293Z" fill="#CDDAD0"/>
<path d="M478.565 703.81C490.412 706.597 502.04 710.583 513.322 715.727C516.056 716.97 517.241 711.805 514.525 710.562C503.243 705.418 491.633 701.431 479.768 698.645C476.906 697.981 475.685 703.124 478.565 703.81Z" fill="#CDDAD0"/>
<path d="M516.529 713.241C516.42 705.825 516.475 698.388 516.693 690.972C516.803 687.414 516.949 683.856 517.131 680.298C517.222 678.52 517.331 676.741 517.441 674.962C517.514 673.933 517.568 672.883 517.659 671.854C517.714 671.061 517.587 669.625 517.969 668.939L516.602 670.161C516.821 670.096 518.188 670.804 518.607 670.975C519.409 671.275 520.211 671.597 521.013 671.897C522.726 672.561 524.44 673.226 526.171 673.89C528.96 674.962 530.163 669.796 527.374 668.725C525.205 667.889 523.018 667.053 520.849 666.217C519.118 665.553 516.949 664.181 515.126 665.145C513.139 666.217 513.285 669.261 513.139 671.425C512.939 674.233 512.757 677.062 512.611 679.87C512.009 690.993 511.809 702.138 511.973 713.262C512.028 716.713 516.584 716.713 516.529 713.262V713.241Z" fill="#CDDAD0"/>
<path d="M531.931 635.225C531.913 647.099 530.035 658.801 526.463 669.903C525.424 673.14 529.817 674.533 530.855 671.318C534.574 659.809 536.469 647.549 536.487 635.225C536.487 631.775 531.931 631.775 531.931 635.225Z" fill="#CDDAD0"/>
<path d="M518.79 670.589C519.446 698.152 526.19 726.615 539.404 749.548C541.044 752.377 544.981 749.698 543.341 746.847C530.564 724.664 523.984 697.252 523.346 670.589C523.274 667.139 518.717 667.139 518.79 670.589Z" fill="#CDDAD0"/>
<path d="M541.718 750.041C551.178 748.969 561.001 753.599 566.87 762.536C567.618 763.672 568.821 764.294 569.987 763.501C570.935 762.836 571.554 760.993 570.807 759.836C563.991 749.441 552.909 743.439 541.718 744.683C540.497 744.811 539.44 745.819 539.44 747.362C539.44 748.712 540.479 750.169 541.718 750.041Z" fill="#CDDAD0"/>
<path d="M526.554 671.811C538.091 679.248 544.47 693.501 549.683 707.111C556.281 724.386 561.986 742.132 566.87 760.178C567.763 763.458 572.156 762.043 571.263 758.764C566.178 740.032 560.236 721.599 553.328 703.682C547.842 689.472 540.88 674.962 528.851 667.203C526.281 665.553 523.984 670.161 526.554 671.832V671.811Z" fill="#CDDAD0"/>
<path d="M2.2052 683.814C34.83 684.264 67.4367 684.714 100.062 685.164C102.996 685.207 102.996 679.848 100.062 679.806C67.4367 679.356 34.83 678.905 2.2052 678.455C-0.729209 678.412 -0.729209 683.771 2.2052 683.814Z" fill="#CDDAD0"/>
<path d="M150.548 692.365C181.15 697.23 211.733 702.439 242.262 707.947C273.192 713.519 304.067 719.435 334.906 725.65C352.057 729.101 369.171 732.68 386.285 736.345C389.147 736.967 390.386 731.802 387.488 731.18C357.105 724.664 326.667 718.492 296.193 712.619C265.318 706.682 234.407 701.045 203.44 695.752C186.235 692.794 169.011 689.965 151.769 687.221C148.908 686.771 147.668 691.937 150.566 692.387L150.548 692.365Z" fill="#CDDAD0"/>
<path d="M415.648 745.154C422.865 745.776 430.101 746.397 437.319 747.04C438.54 747.147 439.597 745.733 439.597 744.361C439.597 742.818 438.558 741.789 437.319 741.682C430.101 741.06 422.865 740.439 415.648 739.796C414.427 739.689 413.37 741.103 413.37 742.475C413.37 744.018 414.409 745.047 415.648 745.154Z" fill="#CDDAD0"/>
<path d="M458.917 752.763C511.736 764.251 564.556 775.739 617.375 787.227C632.302 790.463 647.211 793.721 662.139 796.957C665 797.579 666.239 792.413 663.342 791.792C610.522 780.304 557.703 768.816 504.883 757.328C489.956 754.092 475.047 750.834 460.12 747.597C457.258 746.976 456.019 752.141 458.917 752.763Z" fill="#CDDAD0"/>
</g>
<defs>
<clipPath id="clip0_323_295">
<rect width="665" height="797" fill="white"/>
</clipPath>
</defs>
</svg>
