<svg width="76" height="76" viewBox="0 0 76 76" fill="none" xmlns="http://www.w3.org/2000/svg">
<path fill-rule="evenodd" clip-rule="evenodd" d="M38 76C58.9868 76 76 58.9868 76 38C76 17.0132 58.9868 0 38 0C17.0132 0 0 17.0132 0 38C0 58.9868 17.0132 76 38 76ZM48.0413 24.5604C48.4442 24.2912 48.9179 24.1475 49.4025 24.1475C50.0523 24.1475 50.6754 24.4056 51.1349 24.8651C51.5944 25.3246 51.8525 25.9477 51.8525 26.5975C51.8525 27.0821 51.7088 27.5557 51.4396 27.9586C51.1704 28.3615 50.7878 28.6756 50.3401 28.861C49.8924 29.0464 49.3998 29.095 48.9245 29.0004C48.4493 28.9059 48.0127 28.6726 47.6701 28.3299C47.3274 27.9873 47.0941 27.5507 46.9996 27.0755C46.905 26.6002 46.9536 26.1076 47.139 25.6599C47.3244 25.2122 47.6385 24.8296 48.0413 24.5604ZM57.855 24.1271C58.4372 25.7184 58.7545 27.3944 58.7942 29.0883C58.9167 31.2525 58.9167 31.9467 58.9167 37.5C58.9167 40.919 58.8702 42.4961 58.8345 43.7085C58.8123 44.4653 58.7942 45.0799 58.7942 45.9117C58.7545 47.6056 58.4372 49.2816 57.855 50.8729C57.3412 52.2371 56.5325 53.4711 55.4867 54.4867C54.4757 55.5332 53.2399 56.3361 51.8729 56.8346C50.2858 57.4345 48.608 57.759 46.9117 57.7942C44.7475 57.9167 44.0533 57.9167 38.5 57.9167C32.9467 57.9167 32.2525 57.9167 30.0883 57.7942C28.392 57.759 26.7142 57.4345 25.1271 56.8346C23.7626 56.331 22.5279 55.5288 21.5133 54.4867C20.4668 53.4757 19.6639 52.2399 19.1654 50.8729C18.5655 49.2858 18.241 47.608 18.2058 45.9117C18.0833 43.7475 18.0833 43.0533 18.0833 37.5C18.0833 31.9467 18.0833 31.2525 18.2058 29.0883C18.241 27.392 18.5655 25.7142 19.1654 24.1271C19.6639 22.7601 20.4668 21.5243 21.5133 20.5133C22.5279 19.4712 23.7626 18.669 25.1271 18.1654C26.7142 17.5655 28.392 17.241 30.0883 17.2058C32.2525 17.0833 32.9467 17.0833 38.5 17.0833C44.0533 17.0833 44.7475 17.0833 46.9117 17.2058C48.608 17.241 50.2858 17.5655 51.8729 18.1654C53.2399 18.6639 54.4757 19.4668 55.4867 20.5133C56.5279 21.5327 57.3359 22.7656 57.855 24.1271ZM54.425 49.4642C54.8696 48.2467 55.1043 46.9627 55.1192 45.6667C55.2212 43.625 55.2417 42.8696 55.2417 37.5C55.2417 32.1304 55.2212 31.375 55.1192 29.3333C55.1136 28.0099 54.8788 26.6974 54.425 25.4542C54.0856 24.6022 53.5628 23.8355 52.8937 23.2083C52.2247 22.4791 51.392 21.9193 50.4642 21.575C49.2467 21.1304 47.9627 20.8957 46.6667 20.8808C44.625 20.7583 43.8696 20.7583 38.5 20.7583C35.1785 20.7583 33.6226 20.8052 32.4356 20.841C31.7037 20.863 31.1121 20.8808 30.3333 20.8808C29.0103 20.8912 27.6987 21.1259 26.4542 21.575C25.5952 21.9488 24.8286 22.5063 24.2083 23.2083C23.5065 23.8242 22.9548 24.5924 22.5954 25.4542C22.1319 26.6954 21.89 28.0084 21.8808 29.3333C21.7583 31.375 21.7583 32.1304 21.7583 37.5C21.7583 40.8215 21.8052 42.3774 21.841 43.5644C21.863 44.2963 21.8808 44.8879 21.8808 45.6667C21.9226 46.9977 22.199 48.3109 22.6975 49.5458C23.0136 50.4343 23.5307 51.2379 24.2083 51.8937C24.844 52.5528 25.6085 53.074 26.4542 53.425C27.7294 53.8555 29.0693 54.0627 30.415 54.0375C32.4566 54.16 33.212 54.16 38.5812 54.16H38.5817C43.9512 54.16 44.7067 54.1396 46.7483 54.0375C48.0443 54.0226 49.3284 53.7879 50.5458 53.3433C51.4303 53.0094 52.2315 52.4869 52.8937 51.8121C53.5754 51.1555 54.099 50.3527 54.425 49.4642ZM32.6867 28.8013C34.4064 27.648 36.4294 27.0303 38.5 27.0262C39.8779 27.0209 41.2433 27.288 42.5176 27.8121C43.7919 28.3363 44.95 29.1073 45.9253 30.0807C46.9006 31.0541 47.6738 32.2107 48.2004 33.484C48.7271 34.7572 48.9969 36.1221 48.9942 37.5C48.9942 39.5706 48.3804 41.5948 47.2304 43.3168C46.0805 45.0387 44.4459 46.3812 42.5332 47.1745C40.6206 47.9678 38.5157 48.1764 36.4846 47.774C34.4534 47.3715 32.5872 46.376 31.1216 44.9132C29.656 43.4505 28.6568 41.5862 28.2504 39.5558C27.844 37.5255 28.0485 35.4202 28.8381 33.506C29.6277 31.5918 30.967 29.9546 32.6867 28.8013ZM34.7228 43.153C35.8409 43.9 37.1553 44.2987 38.5 44.2987C39.3928 44.2987 40.2769 44.1229 41.1018 43.7812C41.9266 43.4396 42.6761 42.9388 43.3074 42.3074C43.9388 41.6761 44.4396 40.9266 44.7812 40.1018C45.1229 39.2769 45.2987 38.3928 45.2987 37.5C45.2987 36.1553 44.9 34.8409 44.153 33.7228C43.4059 32.6048 42.3441 31.7334 41.1018 31.2188C39.8595 30.7042 38.4925 30.5696 37.1736 30.8319C35.8548 31.0942 34.6434 31.7417 33.6926 32.6926C32.7417 33.6434 32.0942 34.8548 31.8319 36.1736C31.5696 37.4925 31.7042 38.8595 32.2188 40.1018C32.7334 41.3441 33.6048 42.4059 34.7228 43.153Z" fill="#868D92"/>
</svg>
