<svg width="76" height="76" viewBox="0 0 76 76" fill="none" xmlns="http://www.w3.org/2000/svg">
<path fill-rule="evenodd" clip-rule="evenodd" d="M76 38C76 58.9868 58.9868 76 38 76C17.0132 76 0 58.9868 0 38C0 17.0132 17.0132 0 38 0C58.9868 0 76 17.0132 76 38ZM54.0264 23.0503L17.3882 37.1768C14.877 38.1587 14.9214 39.5488 16.9575 40.1948L26.3369 43.1206L48.0952 29.4219C49.1055 28.7505 50.0425 29.1304 49.2764 29.8047L31.6699 45.7109L30.9951 55.3789C31.9771 55.3789 32.4043 54.9512 32.9111 54.4448L37.4932 50.0303L46.9932 57.0317C48.7256 58.0137 49.9634 57.5068 50.4258 55.4233L56.6611 26.0366C57.2119 23.4653 55.7271 22.436 54.0264 23.0503Z" fill="#868D92"/>
</svg>
