<svg width="30" height="30" viewBox="0 0 30 30" fill="none" xmlns="http://www.w3.org/2000/svg">
<circle cx="15" cy="15" r="14.5" stroke="white"/>
<path d="M12.4889 20.9272C12.2566 20.9272 12.0243 20.867 11.8114 20.7456C11.6 20.6272 11.4241 20.4542 11.3023 20.2447C11.1805 20.0352 11.1171 19.7969 11.1187 19.5545V10.444C11.1187 9.94472 11.3776 9.4995 11.8114 9.25295C12.2448 9.00593 12.7597 9.01114 13.1888 9.2667L20.8423 13.8222C21.261 14.0716 21.5113 14.5116 21.5113 14.9995C21.5113 15.4874 21.261 15.9274 20.8423 16.1768L13.1892 20.7323C12.9777 20.8593 12.7357 20.9266 12.4889 20.9272ZM12.4908 10.0211C12.4169 10.0217 12.3443 10.0411 12.2798 10.0775C12.2145 10.1136 12.1602 10.1668 12.1227 10.2313C12.0851 10.2959 12.0657 10.3693 12.0665 10.444V19.555C12.0665 19.7764 12.2154 19.885 12.2798 19.9215C12.3444 19.9592 12.4179 19.9787 12.4926 19.9779C12.5673 19.9772 12.6404 19.9562 12.7042 19.9173L20.3573 15.3617C20.5431 15.2513 20.5635 15.0716 20.5635 14.9995C20.5635 14.9274 20.5436 14.7477 20.3573 14.6373L12.7037 10.0817C12.6397 10.0422 12.566 10.0212 12.4908 10.0211Z" fill="white"/>
</svg>
