<svg width="66" height="66" viewBox="0 0 66 66" fill="none" xmlns="http://www.w3.org/2000/svg">
<path opacity="0.6" d="M42.9 65L23.1 65C10.8945 65 1 55.1055 1 42.9L1 23.1C1 10.8945 10.8945 0.999995 23.1 0.999996L42.9 0.999998C55.1055 0.999999 65 10.8945 65 23.1L65 42.9C65 55.1055 55.1055 65 42.9 65Z" stroke="#95AA99" stroke-width="2"/>
<g opacity="0.6">
<path fill-rule="evenodd" clip-rule="evenodd" d="M37.5507 24.6547C36.9516 24.1151 35.9802 24.1151 35.3811 24.6547L27.1993 32.0231C26.6002 32.5626 26.6002 33.4374 27.1993 33.9769L35.3811 41.3453C35.9802 41.8849 36.9516 41.8849 37.5507 41.3453C38.1498 40.8058 38.1498 39.931 37.5507 39.3915L30.4536 33L37.5507 26.6085C38.1498 26.069 38.1498 25.1942 37.5507 24.6547Z" fill="#95AA99"/>
</g>
</svg>
