<?xml version="1.0" encoding="UTF-8" standalone="no"?>
<svg
   width="66"
   height="66"
   viewBox="0 0 66 66"
   fill="none"
   version="1.1"
   id="svg6"
   sodipodi:docname="btn_lesson_right_passive.svg"
   inkscape:version="1.2.2 (732a01da63, 2022-12-09)"
   xmlns:inkscape="http://www.inkscape.org/namespaces/inkscape"
   xmlns:sodipodi="http://sodipodi.sourceforge.net/DTD/sodipodi-0.dtd"
   xmlns="http://www.w3.org/2000/svg"
   xmlns:svg="http://www.w3.org/2000/svg">
  <defs
     id="defs10" />
  <sodipodi:namedview
     id="namedview8"
     pagecolor="#ffffff"
     bordercolor="#000000"
     borderopacity="0.25"
     inkscape:showpageshadow="2"
     inkscape:pageopacity="0.0"
     inkscape:pagecheckerboard="0"
     inkscape:deskcolor="#d1d1d1"
     showgrid="false"
     inkscape:zoom="12.681818"
     inkscape:cx="28.860215"
     inkscape:cy="33.039427"
     inkscape:window-width="1920"
     inkscape:window-height="1017"
     inkscape:window-x="-8"
     inkscape:window-y="-8"
     inkscape:window-maximized="1"
     inkscape:current-layer="svg6" />
  <path
     d="M1 23.1C1 10.8945 10.8945 1 23.1 1H42.9C55.1055 1 65 10.8945 65 23.1V42.9C65 55.1055 55.1055 65 42.9 65H23.1C10.8945 65 1 55.1055 1 42.9V23.1Z"
     stroke="#95AA99"
     stroke-width="2"
     id="path2"
     style="opacity:0.6" />
  <path
     fill-rule="evenodd"
     clip-rule="evenodd"
     d="M28.4493 41.3453C29.0484 41.8849 30.0198 41.8849 30.6189 41.3453L38.8007 33.9769C39.3998 33.4374 39.3998 32.5626 38.8007 32.0231L30.6189 24.6547C30.0198 24.1151 29.0484 24.1151 28.4493 24.6547C27.8502 25.1942 27.8502 26.069 28.4493 26.6085L35.5464 33L28.4493 39.3915C27.8502 39.931 27.8502 40.8058 28.4493 41.3453Z"
     fill="#95AA99"
     id="path4"
     style="opacity:0.6" />
</svg>
