<svg width="120" height="123" viewBox="0 0 120 123" fill="none" xmlns="http://www.w3.org/2000/svg">
<path d="M37.8443 8.25532C37.6544 0.566375 47.4529 -2.82195 52.2065 3.28887L70.2784 26.5207C72.406 29.2558 76.0492 30.3411 79.3133 29.2124L107.163 19.5821C114.512 17.0407 120.904 25.3822 116.458 31.7123L99.8222 55.3957C97.8227 58.2423 97.9281 62.0648 100.082 64.8342L117.955 87.8097C122.723 93.9388 116.873 102.482 109.407 100.294L80.8358 91.9204C77.5297 90.9514 73.9874 92.1763 72.0278 94.9663L55.0931 119.076C50.6678 125.376 40.6613 122.316 40.4709 114.604L39.7569 85.6947C39.6708 82.2102 37.3161 79.1656 33.9427 78.1769L5.87669 69.9512C-1.62481 67.7527 -1.95965 57.3166 5.38977 54.7752L33.239 45.1449C36.5031 44.0162 38.6512 40.9282 38.5662 37.4868L37.8443 8.25532Z" fill="#D9D9D9"/>
</svg>
