<svg width="173" height="95" viewBox="0 0 173 95" fill="none" xmlns="http://www.w3.org/2000/svg">
<g clip-path="url(#clip0_460_3226)">
<path d="M21.2547 44.7456L21.7449 39.1603L26.1738 39.5462L25.6836 45.1315L24.8556 45.0592L25.2793 40.2323L22.5063 39.9907L22.0827 44.8176L21.2547 44.7456ZM29.3133 45.5113C28.7457 45.4619 28.2746 45.2987 27.9002 45.022C27.5313 44.7406 27.2643 44.3749 27.0991 43.9255C26.9339 43.4758 26.8754 42.977 26.9235 42.4294C26.972 41.8765 27.1168 41.3927 27.3578 40.9786C27.5988 40.5645 27.9278 40.2535 28.3448 40.0458C28.7623 39.8326 29.2549 39.7508 29.8225 39.8002C30.3953 39.8501 30.8663 40.0134 31.2356 40.2895C31.6049 40.566 31.8722 40.9287 32.0373 41.3784C32.2025 41.828 32.2608 42.3292 32.2123 42.8824C32.1642 43.43 32.0197 43.9109 31.7787 44.325C31.5377 44.7394 31.2084 45.053 30.7909 45.266C30.3787 45.4795 29.8861 45.5613 29.3133 45.5113ZM29.3884 44.7456C29.805 44.7821 30.1546 44.7143 30.4373 44.5426C30.72 44.3708 30.9377 44.1323 31.0904 43.8274C31.2431 43.5222 31.3356 43.1853 31.368 42.8165C31.3925 42.5376 31.3794 42.2683 31.3287 42.0092C31.2832 41.7504 31.1961 41.5174 31.0674 41.3098C30.9387 41.1023 30.7646 40.9333 30.5452 40.8027C30.3258 40.672 30.0624 40.5935 29.7552 40.5668C29.3438 40.5309 28.9942 40.5984 28.7063 40.7698C28.4236 40.9415 28.2033 41.1797 28.0454 41.4844C27.8875 41.789 27.7921 42.1282 27.7593 42.5023C27.7269 42.8708 27.7593 43.2185 27.8566 43.5455C27.959 43.8728 28.1345 44.1457 28.383 44.3636C28.6367 44.582 28.9718 44.7095 29.3884 44.7456ZM34.8323 45.992C34.5563 45.9683 34.2907 45.9158 34.0354 45.8352C33.7858 45.7496 33.5649 45.6351 33.3729 45.491C33.1809 45.3469 33.0313 45.1692 32.9239 44.9581C32.8169 44.7421 32.7709 44.4886 32.786 44.1979L33.5983 44.2687C33.6005 44.4227 33.6387 44.5562 33.7127 44.6686C33.7868 44.7813 33.8859 44.8774 34.0101 44.9573C34.1348 45.0317 34.2738 45.0918 34.4272 45.1369C34.5807 45.182 34.7381 45.2116 34.8996 45.2258C35.0246 45.2366 35.1609 45.2378 35.3085 45.2297C35.4613 45.2219 35.6057 45.1918 35.7414 45.14C35.8771 45.0883 35.992 45.0052 36.0859 44.8913C36.1799 44.7775 36.2354 44.6233 36.2525 44.4283C36.2687 44.2439 36.2504 44.0938 36.1976 43.9778C36.1453 43.8563 36.0644 43.7618 35.9549 43.6938C35.8459 43.6206 35.7142 43.5667 35.5598 43.5321C35.4107 43.4978 35.2449 43.4729 35.0627 43.457L34.3519 43.395L34.4157 42.6682L34.8765 42.7085C35.0483 42.7235 35.2138 42.7218 35.3728 42.704C35.537 42.6862 35.6818 42.6511 35.8071 42.5985C35.9329 42.5402 36.037 42.4592 36.1196 42.355C36.2023 42.2506 36.2503 42.1221 36.2637 41.9696C36.284 41.7378 36.242 41.5589 36.1376 41.433C36.0332 41.3074 35.8972 41.2131 35.7295 41.1507C35.5618 41.0883 35.392 41.0499 35.2202 41.0349C35.0171 41.017 34.8219 41.0292 34.6345 41.0713C34.4524 41.114 34.2987 41.1906 34.1736 41.3018C34.054 41.4083 33.9864 41.5508 33.9707 41.7299L33.1505 41.6585C33.1779 41.4062 33.2463 41.1946 33.3558 41.0237C33.4652 40.8528 33.6006 40.7158 33.7617 40.6132C33.9286 40.5055 34.1062 40.4257 34.2944 40.3731C34.4827 40.3204 34.6691 40.2889 34.8537 40.2784C35.0383 40.2679 35.2061 40.2695 35.3571 40.2824C35.5914 40.303 35.8156 40.349 36.0297 40.4208C36.2443 40.487 36.435 40.586 36.6019 40.7172C36.774 40.849 36.9037 41.0144 36.9912 41.2129C37.0787 41.4117 37.1107 41.6453 37.0871 41.914C37.0756 42.0454 37.0451 42.1836 36.9957 42.3278C36.9468 42.4669 36.8616 42.6 36.7402 42.7276C36.6246 42.8499 36.4549 42.9599 36.2312 43.0573C36.5424 43.1587 36.7702 43.3428 36.9146 43.6105C37.0643 43.878 37.1246 44.1778 37.0954 44.5097C37.0639 44.8094 36.9789 45.0594 36.8407 45.2595C36.7024 45.46 36.5286 45.6171 36.3192 45.7315C36.1097 45.8462 35.8772 45.9239 35.6217 45.9654C35.3714 46.0072 35.1083 46.0161 34.8323 45.992ZM37.9526 46.2002L38.4426 40.6149L39.2705 40.6872L39.0549 43.1441L41.8202 43.3848L42.0358 40.9279L42.8638 41.0002L42.3735 46.5855L41.5456 46.5132L41.7528 44.1511L38.9878 43.9104L38.7806 46.2725L37.9526 46.2002ZM43.0798 46.647L45.6558 41.2434L46.7257 41.3365L48.3134 47.1029L47.4229 47.0253L47.1151 45.8681L44.4748 45.6382L43.9703 46.7246L43.0798 46.647ZM44.8142 44.9116L46.9075 45.0938L46.1168 42.0877L44.8142 44.9116ZM49.0131 47.1639L49.5034 41.5787L50.3314 41.6507L50.1131 44.1392L50.9176 44.2095L52.8153 41.8673L53.7605 41.9496L51.6053 44.5319L53.2781 47.5354L52.3094 47.4511L50.9049 44.9804L50.0457 44.9055L49.8411 47.2359L49.0131 47.1639ZM56.1106 47.8458C55.5431 47.7965 55.072 47.6333 54.6974 47.3565C54.3285 47.0751 54.0615 46.7094 53.8964 46.2601C53.7313 45.8104 53.6728 45.3116 53.7207 44.764C53.7692 44.2111 53.9143 43.7276 54.1552 43.3132C54.3961 42.8991 54.7253 42.5881 55.1421 42.3804C55.5596 42.1671 56.0523 42.0854 56.6198 42.135C57.1925 42.1847 57.6636 42.3479 58.0331 42.6241C58.4022 42.9005 58.6694 43.2636 58.8346 43.7129C58.9997 44.1626 59.0582 44.6637 59.0096 45.2169C58.9614 45.7645 58.817 46.2454 58.5761 46.6598C58.3349 47.0739 58.0057 47.3876 57.5883 47.6005C57.176 47.814 56.6833 47.8958 56.1106 47.8458ZM56.1858 47.0802C56.6023 47.1166 56.9519 47.0488 57.2346 46.8771C57.5174 46.7054 57.7349 46.4669 57.8877 46.162C58.0403 45.8567 58.1331 45.5199 58.1654 45.1514C58.19 44.8721 58.1769 44.6028 58.1261 44.3438C58.0806 44.085 57.9935 43.852 57.8647 43.6444C57.7359 43.4368 57.5619 43.2679 57.3426 43.1372C57.1232 43.0066 56.8597 42.9281 56.5527 42.9013C56.1411 42.8655 55.7916 42.9329 55.5036 43.1044C55.2208 43.2761 55.0007 43.5143 54.8426 43.8189C54.6849 44.1236 54.5895 44.4628 54.5565 44.8369C54.5242 45.2053 54.5567 45.5534 54.6539 45.8801C54.7563 46.2074 54.9318 46.4803 55.1804 46.6981C55.4339 46.9165 55.7691 47.044 56.1858 47.0802ZM59.7536 48.0995L60.2438 42.5142L61.4153 42.6165L62.7738 45.7039L64.6335 42.8969L65.774 42.9962L65.2838 48.5815L64.4558 48.5092L64.8613 43.8878L62.8274 46.9742L62.4682 46.9431L60.987 43.5504L60.5815 48.1718L59.7536 48.0995ZM66.5728 48.6938L67.0631 43.1085L67.8911 43.1805L67.6955 45.4082L68.8123 45.5055C69.0936 45.5302 69.3546 45.5769 69.5949 45.6454C69.8414 45.7093 70.0556 45.8078 70.2382 45.9404C70.4207 46.0731 70.5574 46.2493 70.6483 46.4695C70.7449 46.685 70.7788 46.956 70.7501 47.2824C70.7202 47.6248 70.6377 47.9043 70.5033 48.1206C70.3689 48.3372 70.1942 48.5051 69.9791 48.6241C69.7645 48.7383 69.5243 48.8128 69.259 48.8481C68.9937 48.8782 68.713 48.8801 68.416 48.8542L66.5728 48.6938ZM67.4679 47.9995L68.4522 48.0853C68.6345 48.1012 68.8073 48.1057 68.9706 48.0987C69.1391 48.092 69.2886 48.0625 69.4189 48.0105C69.5552 47.9531 69.6652 47.8644 69.7492 47.7445C69.8384 47.6248 69.8925 47.4597 69.9107 47.2493C69.9284 47.0491 69.9057 46.8878 69.8432 46.7657C69.7808 46.6381 69.6896 46.54 69.57 46.4712C69.45 46.4023 69.3127 46.3531 69.1579 46.3238C69.0034 46.2892 68.8402 46.2642 68.6683 46.2492L67.6296 46.1587L67.4679 47.9995ZM73.8673 49.393C73.2998 49.3436 72.8339 49.1807 72.4697 48.9051C72.111 48.6295 71.8538 48.2703 71.6985 47.8268C71.5435 47.3836 71.4902 46.8827 71.5394 46.3243C71.5882 45.7661 71.728 45.2793 71.9587 44.8644C72.1944 44.4497 72.5129 44.1378 72.9145 43.9286C73.3215 43.7148 73.809 43.6325 74.3765 43.6818C74.7877 43.7177 75.1412 43.8176 75.4363 43.981C75.7319 44.1395 75.9629 44.3507 76.1286 44.6148C76.2998 44.8735 76.4019 45.1745 76.4351 45.517L75.6227 45.4461C75.5679 45.1706 75.4279 44.9438 75.2024 44.7649C74.9765 44.5859 74.6764 44.4802 74.3013 44.4475C73.8848 44.4111 73.5404 44.4795 73.2681 44.6521C73.001 44.8252 72.7962 45.0646 72.654 45.3707C72.5121 45.6716 72.4252 46.0035 72.3935 46.367C72.3605 46.7408 72.3899 47.0938 72.4815 47.4255C72.5732 47.7572 72.7406 48.0318 72.9837 48.2493C73.2271 48.4669 73.5518 48.5932 73.9578 48.6287C74.2079 48.6505 74.4323 48.6353 74.631 48.5839C74.83 48.5269 75.0005 48.4383 75.1421 48.318C75.2844 48.1922 75.387 48.0421 75.4494 47.8671L76.3165 47.9426C76.2189 48.2789 76.0547 48.5618 75.8248 48.7913C75.5949 49.0207 75.3153 49.1874 74.9859 49.2912C74.6567 49.3953 74.2838 49.4291 73.8673 49.393ZM76.9496 49.5977L78.3906 47.5261C78.0398 47.4001 77.7614 47.1928 77.5558 46.9041C77.3555 46.616 77.2752 46.2457 77.3151 45.7926C77.3438 45.4663 77.4173 45.1967 77.5357 44.984C77.6597 44.7665 77.8191 44.5948 78.0137 44.4684C78.2086 44.342 78.4361 44.2583 78.697 44.2175C78.9577 44.1766 79.2391 44.1691 79.5409 44.1955L81.6267 44.3772L81.1364 49.9624L80.3084 49.8904L80.4866 47.86L79.1976 47.7477L77.8948 49.68L76.9496 49.5977ZM79.4354 47.0122L80.5525 47.1095L80.7313 45.0714L79.4426 44.9592C79.1717 44.9353 78.9447 44.9529 78.761 45.011C78.5779 45.0642 78.4331 45.1605 78.3265 45.2998C78.2251 45.4394 78.164 45.6252 78.1436 45.857C78.1191 46.1359 78.1653 46.3575 78.2821 46.5218C78.3995 46.6805 78.5595 46.7979 78.7627 46.8741C78.9715 46.9453 79.1958 46.9913 79.4354 47.0122ZM86.8427 50.5232C86.2751 50.4738 85.8093 50.3112 85.445 50.0353C85.0863 49.7601 84.8291 49.4005 84.6738 48.9573C84.5188 48.5138 84.4656 48.0129 84.5147 47.4548C84.5635 46.8966 84.7033 46.4099 84.9341 45.9946C85.1698 45.5802 85.4882 45.2683 85.8898 45.0592C86.2969 44.845 86.7843 44.763 87.3518 44.8124C87.763 44.8482 88.1165 44.9478 88.4116 45.1116C88.7072 45.27 88.9379 45.4811 89.1039 45.7449C89.2751 46.004 89.3772 46.305 89.4104 46.6475L88.5981 46.5767C88.5433 46.3012 88.4033 46.074 88.1777 45.8951C87.9518 45.7164 87.6517 45.6107 87.2766 45.578C86.8602 45.5416 86.5158 45.6097 86.2434 45.7826C85.9763 45.9554 85.7715 46.1951 85.6293 46.5012C85.4875 46.8018 85.4005 47.134 85.3688 47.4972C85.3358 47.8713 85.3652 48.224 85.4569 48.5557C85.5486 48.8873 85.7159 49.162 85.959 49.3795C86.2024 49.5971 86.5271 49.7237 86.9332 49.7589C87.1832 49.7807 87.4076 49.7658 87.6064 49.7141C87.8054 49.6571 87.9759 49.5685 88.1175 49.4482C88.2597 49.3227 88.3624 49.1723 88.4248 48.9976L89.2918 49.0731C89.1942 49.4094 89.03 49.6924 88.8001 49.9218C88.5702 50.1512 88.2907 50.3176 87.9612 50.4217C87.632 50.5258 87.2591 50.5596 86.8427 50.5232ZM92.2871 50.934L92.7774 45.3488L97.2061 45.7343L96.7158 51.3199L95.8879 51.2476L96.3117 46.4207L93.5389 46.1791L93.1151 51.006L92.2871 50.934ZM98.0156 51.4331L98.5059 45.8479L102.31 46.1791L102.243 46.9454L99.2668 46.6862L99.1198 48.361L101.752 48.5902L101.685 49.3486L99.0533 49.1194L98.911 50.7389L101.887 50.9981L101.82 51.7644L98.0156 51.4331ZM104.009 51.955L104.432 47.136L102.682 46.9839L102.749 46.2175L107.069 46.5938L107.002 47.36L105.26 47.2084L104.837 52.0274L104.009 51.955ZM107.33 52.2444L107.82 46.6591L109.812 46.8328C110.223 46.8687 110.571 46.9651 110.857 47.1227C111.147 47.2808 111.361 47.5063 111.498 47.7997C111.635 48.0874 111.685 48.4501 111.646 48.8871C111.609 49.3083 111.485 49.6531 111.272 49.9211C111.065 50.1897 110.796 50.384 110.465 50.5036C110.135 50.6182 109.767 50.6579 109.361 50.6223L108.314 50.5312L108.158 52.3167L107.33 52.2444ZM108.381 49.7728L109.396 49.8613C109.792 49.8957 110.118 49.8311 110.374 49.6679C110.63 49.4991 110.776 49.2067 110.813 48.7905C110.844 48.4273 110.769 48.1474 110.587 47.9509C110.406 47.7495 110.114 47.6311 109.713 47.5962L108.58 47.4977L108.381 49.7728ZM114.686 52.9491C114.119 52.8997 113.648 52.7365 113.273 52.4598C112.905 52.1781 112.638 51.8127 112.472 51.363C112.307 50.9137 112.249 50.4149 112.297 49.8672C112.345 49.314 112.49 48.8305 112.731 48.4164C112.972 48.0023 113.301 47.6913 113.718 47.4833C114.135 47.2704 114.628 47.1886 115.195 47.238C115.769 47.288 116.24 47.4512 116.609 47.7273C116.978 48.0038 117.245 48.3665 117.411 48.8162C117.576 49.2655 117.634 49.767 117.585 50.3199C117.537 50.8678 117.393 51.3487 117.152 51.7628C116.911 52.1769 116.582 52.4905 116.164 52.7038C115.752 52.9173 115.259 52.9991 114.686 52.9491ZM114.762 52.1834C115.178 52.2199 115.528 52.1521 115.81 51.9804C116.093 51.8086 116.311 51.5702 116.463 51.2649C116.616 50.96 116.709 50.6231 116.741 50.2543C116.766 49.9754 116.753 49.7061 116.702 49.447C116.656 49.1882 116.569 48.9552 116.44 48.7476C116.312 48.54 116.138 48.3708 115.918 48.2405C115.699 48.1099 115.435 48.031 115.128 48.0043C114.717 47.9684 114.367 48.0362 114.079 48.2076C113.797 48.3794 113.576 48.6175 113.419 48.9222C113.261 49.2268 113.165 49.566 113.133 49.9401C113.1 50.3086 113.132 50.6564 113.23 50.9833C113.332 51.3107 113.508 51.5832 113.756 51.8014C114.01 52.0198 114.345 52.1473 114.762 52.1834ZM118.329 53.2027L118.82 47.6175L122.459 47.9346L122.392 48.7009L119.58 48.4557L119.157 53.275L118.329 53.2027ZM121.882 53.56L121.953 52.7462C122.099 52.7589 122.224 52.7408 122.328 52.6913C122.438 52.6373 122.529 52.5603 122.6 52.4605C122.678 52.3558 122.736 52.2361 122.774 52.1014C122.824 51.9466 122.864 51.7856 122.895 51.6182C122.925 51.4511 122.95 51.2837 122.971 51.1154C122.996 50.948 123.015 50.7902 123.028 50.643L123.298 48.0075L127.063 48.3355L126.573 53.9208L125.745 53.8488L126.168 49.0298L124.036 48.844L123.864 50.4451C123.819 50.8338 123.776 51.207 123.734 51.5641C123.692 51.9162 123.628 52.234 123.54 52.5182C123.458 52.7977 123.327 53.0251 123.149 53.2007C123.006 53.3423 122.832 53.4412 122.627 53.4976C122.428 53.5546 122.18 53.5753 121.882 53.56ZM127.872 54.0342L128.362 48.4489L129.19 48.5209L128.818 52.7554L132.041 48.7693L132.838 48.8387L132.348 54.4239L131.528 54.3525L131.896 50.1575L128.661 54.1027L127.872 54.0342ZM135.888 54.82L135.967 53.9194L135.452 53.8747C135.025 53.8321 134.667 53.7052 134.375 53.4941C134.084 53.2833 133.872 53.0097 133.739 52.6746C133.611 52.3344 133.566 51.9509 133.604 51.5245C133.648 51.0772 133.775 50.7061 133.985 50.4115C134.195 50.1112 134.466 49.8932 134.798 49.7578C135.136 49.6175 135.507 49.5649 135.913 49.6001L136.343 49.6378L136.412 48.8557L137.24 48.9277L137.171 49.7098L137.577 49.745C137.989 49.7809 138.349 49.8973 138.657 50.0941C138.965 50.2853 139.197 50.5471 139.351 50.8787C139.511 51.2058 139.574 51.591 139.541 52.0339C139.508 52.4662 139.394 52.8381 139.199 53.1501C139.004 53.4571 138.742 53.6888 138.414 53.8459C138.091 54.0036 137.71 54.0661 137.272 54.0331L136.795 53.9917L136.716 54.8923L135.888 54.82ZM135.632 53.1658L136.031 53.2005L136.28 50.3566L135.905 50.324C135.624 50.2993 135.377 50.3388 135.163 50.4423C134.95 50.5406 134.779 50.6875 134.652 50.8836C134.525 51.0793 134.449 51.3114 134.425 51.5801C134.401 51.8593 134.426 52.116 134.499 52.3508C134.574 52.58 134.702 52.7662 134.883 52.9094C135.07 53.0532 135.32 53.1388 135.632 53.1658ZM136.859 53.2728L137.257 53.3075C137.569 53.3345 137.827 53.2933 138.031 53.184C138.24 53.0746 138.398 52.9133 138.507 52.7C138.62 52.4817 138.689 52.2329 138.714 51.9536C138.737 51.6849 138.703 51.4435 138.612 51.2283C138.526 51.014 138.386 50.8398 138.194 50.7062C138.001 50.5674 137.764 50.486 137.483 50.4613L137.108 50.4286L136.859 53.2728ZM142.628 55.3834C142.06 55.3338 141.589 55.1709 141.215 54.8941C140.846 54.6124 140.579 54.247 140.414 53.7973C140.249 53.3477 140.19 52.8492 140.238 52.3016C140.287 51.7483 140.431 51.2648 140.673 50.8508C140.913 50.4363 141.243 50.1257 141.66 49.9177C142.077 49.7047 142.57 49.623 143.137 49.6723C143.71 49.7223 144.181 49.8852 144.55 50.1617C144.92 50.4378 145.187 50.8008 145.352 51.2505C145.517 51.6998 145.576 52.2013 145.527 52.7542C145.479 53.3018 145.334 53.783 145.094 54.1971C144.852 54.6112 144.523 54.9249 144.106 55.1378C143.693 55.3513 143.201 55.4331 142.628 55.3834ZM142.703 54.6178C143.12 54.6539 143.469 54.5864 143.752 54.4147C144.035 54.243 144.252 54.0045 144.405 53.6992C144.558 53.3943 144.65 53.0575 144.683 52.6886C144.707 52.4094 144.694 52.1404 144.643 51.8814C144.598 51.6226 144.511 51.3892 144.382 51.1817C144.253 50.9744 144.079 50.8051 143.86 50.6745C143.641 50.5442 143.377 50.4653 143.07 50.4386C142.659 50.4027 142.309 50.4705 142.021 50.6416C141.738 50.8133 141.518 51.0516 141.36 51.3565C141.202 51.6612 141.107 52.0004 141.074 52.3741C141.042 52.7429 141.074 53.0907 141.171 53.4177C141.274 53.745 141.449 54.0175 141.698 54.2357C141.951 54.4541 142.286 54.5813 142.703 54.6178ZM146.271 55.6371L146.761 50.0518L147.933 50.1538L149.291 53.2414L151.151 50.4342L152.291 50.5335L151.801 56.1188L150.973 56.0468L151.379 51.425L149.345 54.5118L148.986 54.4804L147.504 51.0876L147.099 55.7091L146.271 55.6371Z" fill="#FF9E00"/>
<mask id="mask0_460_3226" style="mask-type:luminance" maskUnits="userSpaceOnUse" x="5" y="3" width="164" height="88">
<path fill-rule="evenodd" clip-rule="evenodd" d="M33.3497 66.7141C40.3049 67.5229 46.994 65.9521 52.6204 62.6403C56.0502 74.3805 66.1214 83.4986 78.9147 84.9862C87.7663 86.0154 96.1879 83.1904 102.535 77.8277C108.452 84.6706 116.811 89.3927 126.455 90.5141C147.065 92.9107 165.738 77.9542 168.162 57.1078C170.586 36.2614 155.843 17.4193 135.233 15.0227C122.042 13.489 109.646 19.0628 101.794 28.7395C97.4341 25.2943 92.1091 22.9821 86.2043 22.2955C79.2492 21.4868 72.56 23.0576 66.9337 26.3692C63.5039 14.6292 53.4327 5.51106 40.6393 4.02346C23.5238 2.03328 8.01709 14.4537 6.00412 31.7652C3.99115 49.0767 16.2342 64.7239 33.3497 66.7141Z" fill="#FF9E00"/>
</mask>
<g mask="url(#mask0_460_3226)">
<path d="M52.6206 62.6403L55.1274 61.8856L54.1864 58.6638L51.3097 60.3569L52.6206 62.6403ZM102.535 77.8277L104.505 76.0851L102.825 74.1423L100.862 75.8012L102.535 77.8277ZM101.794 28.7395L100.181 30.8236L102.191 32.412L103.813 30.4128L101.794 28.7395ZM66.9339 26.3693L64.4271 27.1242L65.3681 30.3457L68.2448 28.6526L66.9339 26.3693ZM51.3097 60.3569C46.1553 63.3912 40.0305 64.8297 33.6552 64.0883L33.0446 69.3399C40.5793 70.2161 47.8331 68.513 53.9311 64.9238L51.3097 60.3569ZM79.2203 82.3604C67.5026 80.9979 58.2716 72.6475 55.1274 61.8856L50.1134 63.3954C53.8288 76.1132 64.7402 85.9992 78.6096 87.612L79.2203 82.3604ZM100.862 75.8012C95.0429 80.7179 87.3307 83.3035 79.2203 82.3604L78.6096 87.612C88.2027 88.7274 97.3329 85.6628 104.208 79.8539L100.862 75.8012ZM126.76 87.8883C117.786 86.8448 110.012 82.4539 104.505 76.0851L100.565 79.5704C106.892 86.8874 115.837 91.9407 126.15 93.1399L126.76 87.8883ZM165.566 56.8059C163.311 76.2019 145.937 90.1182 126.76 87.8883L126.15 93.1399C148.194 95.7032 168.166 79.7062 170.759 57.4096L165.566 56.8059ZM134.928 17.6485C154.104 19.8784 167.822 37.4097 165.566 56.8059L170.759 57.4096C173.351 35.1131 157.583 14.9602 135.539 12.397L134.928 17.6485ZM103.813 30.4128C111.124 21.4031 122.658 16.2218 134.928 17.6485L135.539 12.397C121.428 10.7562 108.168 16.7227 99.7748 27.0662L103.813 30.4128ZM85.8992 24.9213C91.3136 25.5509 96.1886 27.6686 100.181 30.8236L103.407 26.6554C98.6799 22.9199 92.9053 20.4134 86.5099 19.6697L85.8992 24.9213ZM68.2448 28.6526C73.3991 25.6186 79.524 24.18 85.8992 24.9213L86.5099 19.6697C78.9752 18.7936 71.7213 20.4967 65.6233 24.0859L68.2448 28.6526ZM40.3342 6.64926C52.0518 8.01177 61.2828 16.3619 64.4271 27.1242L69.441 25.6144C65.7256 12.8965 54.8143 3.01041 40.9448 1.39768L40.3342 6.64926ZM8.60037 32.0671C10.4447 16.2058 24.6524 4.8258 40.3342 6.64926L40.9448 1.39768C22.3956 -0.759212 5.58986 12.7017 3.40826 31.4634L8.60037 32.0671ZM33.6552 64.0883C17.9735 62.2649 6.75602 47.9285 8.60037 32.0671L3.40826 31.4634C1.22668 50.225 14.4953 67.183 33.0446 69.3399L33.6552 64.0883Z" fill="#FF9E00"/>
</g>
</g>
<defs>
<clipPath id="clip0_460_3226">
<rect width="164" height="76" fill="white" transform="translate(9.64893 0.419922) rotate(6.63252)"/>
</clipPath>
</defs>
</svg>
