<svg width="55" height="56" viewBox="0 0 55 56" fill="none" xmlns="http://www.w3.org/2000/svg">
<ellipse cx="27.2087" cy="28" rx="27.2163" ry="28" fill="#95AA99"/>
<path fill-rule="evenodd" clip-rule="evenodd" d="M24.6167 24.0002C24.6167 22.5274 25.7772 21.3335 27.2087 21.3335C28.6403 21.3335 29.8008 22.5274 29.8008 24.0002V27.3335H28.5047V24.0002C28.5047 23.2638 27.9245 22.6668 27.2087 22.6668C26.493 22.6668 25.9127 23.2638 25.9127 24.0002V27.3335H24.6167V24.0002Z" fill="white"/>
<path fill-rule="evenodd" clip-rule="evenodd" d="M25.7563 26H28.6611C29.1827 26 29.6132 26 29.9639 26.0295C30.3282 26.0601 30.663 26.1258 30.9775 26.2906C31.4652 26.5463 31.8617 26.9543 32.1103 27.456C32.2705 27.7796 32.3344 28.1241 32.3641 28.4988C32.3928 28.8596 32.3928 29.3025 32.3928 29.8392V30.8275C32.3928 31.3642 32.3928 31.8071 32.3641 32.1679C32.3344 32.5426 32.2705 32.8871 32.1103 33.2106C31.8617 33.7124 31.4652 34.1204 30.9775 34.376C30.663 34.5409 30.3282 34.6066 29.9639 34.6372C29.6132 34.6667 29.1827 34.6667 28.6611 34.6667H25.7564C25.2347 34.6667 24.8042 34.6667 24.4535 34.6372C24.0893 34.6066 23.7544 34.5409 23.4399 34.376C22.9522 34.1204 22.5557 33.7124 22.3072 33.2106C22.1469 32.8871 22.0831 32.5426 22.0533 32.1679C22.0246 31.8071 22.0247 31.3642 22.0247 30.8275V29.8391C22.0247 29.3025 22.0246 28.8596 22.0533 28.4988C22.0831 28.1241 22.1469 27.7796 22.3072 27.456C22.5557 26.9543 22.9522 26.5463 23.4399 26.2906C23.7544 26.1258 24.0893 26.0601 24.4535 26.0295C24.8042 26 25.2347 26 25.7563 26ZM24.559 27.3584C24.2749 27.3822 24.1297 27.4255 24.0283 27.4787C23.7844 27.6065 23.5862 27.8105 23.4619 28.0613C23.4103 28.1656 23.3682 28.3151 23.345 28.6074C23.3212 28.9074 23.3207 29.2956 23.3207 29.8667V30.8C23.3207 31.3711 23.3212 31.7592 23.345 32.0593C23.3682 32.3516 23.4103 32.5011 23.4619 32.6053C23.5862 32.8562 23.7844 33.0602 24.0283 33.188C24.1297 33.2411 24.2749 33.2844 24.559 33.3083C24.8507 33.3328 25.228 33.3333 25.7831 33.3333H28.6343C29.1894 33.3333 29.5667 33.3328 29.8584 33.3083C30.1425 33.2844 30.2878 33.2411 30.3891 33.188C30.633 33.0602 30.8312 32.8562 30.9555 32.6053C31.0071 32.5011 31.0492 32.3516 31.0724 32.0593C31.0963 31.7592 31.0968 31.3711 31.0968 30.8V29.8667C31.0968 29.2956 31.0963 28.9074 31.0724 28.6074C31.0492 28.3151 31.0071 28.1656 30.9555 28.0613C30.8312 27.8105 30.633 27.6065 30.3891 27.4787C30.2878 27.4255 30.1425 27.3822 29.8584 27.3584C29.5667 27.3339 29.1894 27.3333 28.6343 27.3333H25.7831C25.228 27.3333 24.8507 27.3339 24.559 27.3584Z" fill="white"/>
<path d="M26.5608 30.6667C26.5608 30.2985 26.8509 30 27.2088 30C27.5667 30 27.8568 30.2985 27.8568 30.6667V31.3333C27.8568 31.7015 27.5667 32 27.2088 32C26.8509 32 26.5608 31.7015 26.5608 31.3333V30.6667Z" fill="white"/>
</svg>
