<svg width="540" height="290" viewBox="0 0 54 29" fill="none" xmlns="http://www.w3.org/2000/svg" class="logo_elefant_min">
<defs>
<style type="text/css">
.logo_elefant_min {cursor:pointer;}
.logo_elefant_min_body:hover path {
    transition: .7s linear;
    fill:#CDDAD0; 
}
</style>
</defs>
<g class="logo_elefant_min_body">
<path d="M18.9945 5.09147L19.0897 5.11297L17.7148 9.41405L17.6302 9.36028C16.7312 10.5861 15.7582 11.1667 14.8064 11.0377C13.9709 10.9194 13.1988 10.2313 12.8287 9.29577C12.6383 8.76889 12.67 7.44631 12.9133 6.06996C13.0825 5.08071 13.5161 3.242 14.4468 1.97319C15.0919 1.08071 15.8428 0.661358 16.6889 0.736627C17.5456 0.801143 18.1907 1.13448 18.6032 1.71512C19.5021 2.99469 19.005 5.09147 19.005 5.11297L18.9945 5.09147Z" fill="#D3651A"/>
<path d="M38.1688 13.3603C38.1688 13.3603 36.1488 23.6829 36.6142 26.8872C36.6142 26.8872 39.9985 26.0485 40.1994 25.1238C40.4004 24.1991 39.8293 14.5324 41.5637 13.8012C43.2982 13.07 38.1688 13.3603 38.1688 13.3603Z" fill="#D3651A"/>
<path d="M26.2919 14.2313C26.2919 14.2313 20.6126 25.1668 19.629 26.1453C19.629 26.1453 23.7219 26.156 24.8853 27.0593C24.8853 27.0593 30.0252 21.0377 30.7973 13.1345L26.2919 14.2313Z" fill="#D3651A"/>
<path d="M14.7006 14.2636C14.7006 14.2636 11.0837 21.941 3.3526 17.7045C1.1528 16.5002 0.560541 12.3174 0.560541 12.3174C0.560541 12.3174 -1.85079 18.9733 5.9966 20.726C13.844 22.4787 17.1966 14.6507 17.1966 14.6507L14.6901 14.2636H14.7006Z" fill="#D3651A"/>
<path d="M52.0551 20.9086C51.6532 20.6613 51.1667 20.2742 50.6696 19.7043C49.1255 17.9193 48.1102 15.1774 47.6766 11.5537L47.5709 10.7258L47.4757 11.5537C47.4757 11.5537 47.3805 12.3602 47.2536 13.2957C47.1372 14.2312 47.0103 15.3064 46.9363 15.8441C46.5556 18.8226 44.8846 27.5215 44.7576 28.1989C43.8481 28.8118 40.6119 28.2634 39.9879 28.1559L43.1184 15.5322L42.854 15.8441C40.9291 18.0269 37.4708 18.8441 35.1864 18.5215L35.07 18.5L34.5307 28.672C34.3509 28.6398 34.097 28.586 33.8009 28.5215C32.5424 28.2634 30.406 27.8226 28.8725 27.8226C28.5446 27.8226 28.2485 27.8441 27.9947 27.8871C27.8255 27.3817 29.1052 23.1021 30.681 18.9086L30.7339 18.7796H30.5964C28.5552 18.5968 23.5845 17.9301 21.6597 15.4462L21.6068 15.3709L21.5328 15.4247C21.3953 15.5 21.2155 15.6183 21.0357 15.758H21.0145C19.6608 16.5537 16.0438 20.4677 14.6584 22.6505C13.9498 24.0269 11.898 27.1666 8.13298 26.5107C6.41967 26.2097 5.13997 25.1989 5.01306 24.4247C5.1294 23.8656 5.27746 23.5537 5.49956 23.4677C5.81684 23.3387 6.28218 23.6613 6.83213 24.0269C7.63591 24.586 8.6512 25.2849 9.75111 24.8441C11.3058 24.2204 12.6384 21.4247 13.7911 16.2849C14.3622 12.7258 15.5468 8.96235 16.9745 6.23116C18.2648 3.75805 20.454 0.790304 23.4682 0.768799C23.6374 0.768799 40.3263 0.81181 45.6143 3.9731C47.8141 5.81181 48.0256 8.86557 48.6073 12.0484C49.189 15.2312 49.5486 18.1989 52.0762 20.9301L52.0551 20.9086Z" fill="#D3651A"/>
<path d="M25.1391 13.4785C24.6421 15.7366 22.3153 23.328 13.918 23.7688C4.06117 24.2742 4.78034 15.586 4.78034 15.586C4.78034 15.586 6.82151 20.3495 9.82509 21.0484C19.0051 23.2097 21.575 15.6291 22.0721 13.6721" fill="#D3651A"/>
</g>

<path d="M16.6783 11.6721C16.6149 11.6721 16.562 11.7259 16.562 11.8012C16.562 11.8657 16.6149 11.9194 16.6783 11.9194C16.9533 11.9194 17.2812 11.9194 17.609 11.9409C17.609 11.9409 18.6032 11.9409 19.5127 12.242C19.6079 12.2743 19.6714 12.328 19.7137 12.371C19.7348 12.4033 19.7665 12.4141 19.8088 12.4141C19.8406 12.4141 19.8617 12.4141 19.8934 12.3818C19.9463 12.3388 19.9463 12.2635 19.8934 12.2098C19.4281 11.6721 16.9533 11.6721 16.6678 11.6829L16.6783 11.6721Z" fill="white"/>
<path d="M16.2448 13.2205C16.1813 13.199 16.1179 13.2312 16.0967 13.2957C16.0756 13.3603 16.1073 13.4248 16.1708 13.4463C16.8794 13.6828 18.0744 14.1452 18.2119 14.4033C18.2331 14.4463 18.2754 14.4678 18.3177 14.4678C18.3388 14.4678 18.36 14.4678 18.3811 14.457C18.4446 14.4248 18.4552 14.3495 18.4235 14.285C18.1908 13.8656 16.5727 13.3172 16.2448 13.2097V13.2205Z" fill="white"/>
<path d="M16.9956 16.0699L16.8899 16.0484C16.837 16.0269 16.763 16.0161 16.6889 15.9946C16.636 15.9731 16.562 15.9623 16.4986 15.9408C16.4563 15.9408 16.414 15.9193 16.3716 15.9086L15.8428 15.6505C15.7794 15.5968 15.7159 15.543 15.6948 15.4785C15.6736 15.4247 15.6102 15.3925 15.5361 15.414C15.4833 15.4355 15.4515 15.5107 15.4727 15.5753C15.5784 15.8763 15.9803 16.0484 16.3611 16.1667C16.4245 16.1882 16.488 16.2097 16.5514 16.2204C16.6572 16.2527 16.7524 16.2742 16.837 16.2957L16.9428 16.3172C16.9428 16.3172 16.9639 16.3172 16.9745 16.3172C17.0274 16.3172 17.0802 16.2742 17.0908 16.2204C17.112 16.1559 17.0697 16.0914 17.0062 16.0699H16.9956Z" fill="white"/>
<path d="M53.0915 21.3818C49.538 18.5968 49.2524 15.6398 48.7871 12.0054C48.3746 8.75813 47.9727 5.69361 45.6989 3.77963C40.358 0.586085 23.6162 0.543074 23.447 0.543074C21.8395 0.564579 20.4223 1.34953 19.206 2.60759C19.1214 2.242 18.9734 1.88716 18.7513 1.57533C18.3071 0.940923 17.6091 0.586085 16.6889 0.510816C15.7794 0.4463 14.9651 0.88716 14.267 1.8334C12.7018 3.98393 12.2047 8.25275 12.6278 9.36028C13.0085 10.3603 13.844 11.1022 14.7324 11.2312C14.267 12.7366 13.9286 14.199 13.6959 15.4571C12.6912 16.8119 10.7241 18.7796 7.77338 18.7796C7.43495 18.7796 7.11767 18.7581 6.76866 18.7044C5.58415 17.2097 4.87556 15.5753 4.8544 15.5431L4.69576 15.1667L4.66404 15.5753C4.66404 15.5753 4.57943 16.7581 4.92844 18.2205C4.43136 18.0377 3.93429 17.8119 3.42665 17.5216C1.34317 16.3818 0.740342 12.328 0.740342 12.285C0.71919 12.1882 0.655734 12.1237 0.549975 12.1022H0.528823C0.444215 12.1022 0.370183 12.156 0.338455 12.242C0.296151 12.3495 -0.645113 15.0269 0.676886 17.5001C1.58642 19.199 3.35261 20.3495 5.92258 20.9302C6.00719 20.9517 6.11295 20.9732 6.19756 20.9839C6.34562 21.1775 6.50426 21.3818 6.68405 21.5753C7.70992 22.6506 9.0848 23.3603 10.777 23.6829C10.4068 24.156 10.0261 24.4678 9.62418 24.6291C8.61946 25.0377 7.69935 24.3925 6.89557 23.8334C6.30332 23.4248 5.79567 23.0807 5.3832 23.2528C5.08708 23.3818 4.89671 23.7366 4.75922 24.3818V24.4033V24.4248C4.87556 25.2635 6.16583 26.371 8.04836 26.7044C9.22229 26.8979 11.9932 26.9732 14.119 23.8549C19.4704 23.4893 22.3154 20.2205 23.796 17.3388C23.9547 17.4248 24.1027 17.4893 24.2719 17.5646C22.3154 21.2312 20.0098 25.4463 19.4387 26.0054C19.3858 26.07 19.3647 26.156 19.3858 26.242C19.4175 26.3173 19.4916 26.371 19.5762 26.371C19.6185 26.371 23.6162 26.3925 24.7161 27.2527C24.7584 27.2743 24.8007 27.2958 24.843 27.2958C24.8959 27.2958 24.9594 27.2743 25.0017 27.2205C25.044 27.1775 27.8678 23.8226 29.6445 18.8872C29.9195 18.9194 30.1839 18.9409 30.406 18.9732C30.0041 20.07 27.1909 27.7581 27.8678 28.1022L27.8889 28.1237H27.9312C29.3484 27.8334 32.1933 28.4248 33.7163 28.7474C34.0865 28.8226 34.3826 28.8872 34.5729 28.9087L34.6893 28.9302L35.2287 18.7581C35.768 18.8226 36.3709 18.8441 36.9949 18.7796C36.5401 21.8119 36.1276 25.2958 36.3709 26.9624L36.4026 27.1882L36.6247 27.1345C37.2064 26.9947 40.1465 26.2205 40.358 25.2097C40.4109 24.9624 40.4215 24.2958 40.4215 23.0377C40.4215 21.6829 40.4215 19.6183 40.5695 17.8011C41.3522 17.4248 42.0713 16.9194 42.6742 16.3173L39.6917 28.3603L39.7975 28.3818C39.9561 28.414 43.8269 29.156 44.8634 28.3818L44.8951 28.3603V28.3173C44.8951 28.3173 45.3605 25.9409 45.8575 23.2312C46.3546 20.5323 46.9046 17.4571 47.0949 15.9087C47.1795 15.1667 47.4016 13.414 47.5391 12.3925C48.7236 20.4033 52.531 21.5108 52.9752 21.6183L53.6309 21.7796L53.0492 21.4355L53.0915 21.3818ZM12.8181 9.28501C12.6278 8.75813 12.6595 7.43555 12.9027 6.0592C13.072 5.06996 13.5056 3.23125 14.4363 1.96243C15.0814 1.06996 15.8323 0.650601 16.6784 0.725869C17.535 0.790386 18.1802 1.12372 18.5926 1.70436C18.8253 2.0377 18.9628 2.41404 19.0368 2.80114C17.1437 4.8549 15.7371 8.01619 14.8064 11.0484C13.9709 10.9302 13.1989 10.242 12.8287 9.30651L12.8181 9.28501ZM7.78396 18.9839C10.6077 18.9839 12.5432 17.2635 13.6325 15.9087C13.6113 16.0162 13.5902 16.1237 13.5796 16.2205C13.2729 17.5753 12.9556 18.7689 12.6278 19.8011C11.75 20.3173 10.7347 20.7044 9.5713 20.8764C8.57716 20.5538 7.69935 19.7904 6.9696 18.9409C7.24458 18.9732 7.51956 18.9947 7.78396 18.9947V18.9839ZM12.5326 20.0592C12.3951 20.5108 12.2364 20.9087 12.0884 21.2958C11.4644 21.2528 10.7875 21.156 10.0789 20.9947C10.9885 20.8011 11.8028 20.4678 12.5432 20.0592H12.5326ZM5.99661 20.7259C-1.85078 18.9732 0.560551 12.3173 0.560551 12.3173C0.560551 12.3173 1.15281 16.5108 3.35261 17.7044C3.93429 18.0162 4.48424 18.2743 5.01304 18.4678C5.21399 19.2097 5.53127 19.9947 6.03892 20.7366C6.01776 20.7366 6.01776 20.7366 5.99661 20.7366V20.7259ZM8.12239 26.4893C6.40908 26.1882 5.12938 25.1775 5.00247 24.4033C5.1188 23.8441 5.26687 23.5323 5.48896 23.4463C5.80624 23.3173 6.27159 23.6398 6.82154 24.0054C7.62531 24.5646 8.64061 25.2635 9.74051 24.8226C10.1953 24.6398 10.6289 24.2743 11.0308 23.7259C11.6759 23.8334 12.3634 23.8872 13.1037 23.8872C13.3681 23.8872 13.6219 23.8872 13.8969 23.8657C12.8499 25.3065 10.9779 26.9839 8.13296 26.4893H8.12239ZM24.8853 27.07C23.722 26.1667 19.6291 26.156 19.6291 26.156C20.2531 25.5323 22.749 20.9302 24.5046 17.6398C26.1862 18.328 28.0793 18.6721 29.4753 18.8549C27.6986 23.7689 24.8853 27.0807 24.8853 27.0807V27.07ZM40.21 25.1345C39.9984 26.0592 36.6141 26.8979 36.6141 26.8979C36.3814 25.2635 36.7833 21.7689 37.2381 18.7366C38.2745 18.6183 39.3744 18.328 40.3897 17.8549C40.1571 20.8764 40.3157 24.5646 40.1994 25.1345H40.21ZM50.6696 19.7044C49.1255 17.9194 48.1102 15.1775 47.6766 11.5538L47.5708 10.7259L47.4757 11.5538C47.4757 11.5538 47.3805 12.3603 47.2536 13.2958C47.1372 14.2312 47.0103 15.3065 46.9363 15.8441C46.5555 18.8226 44.8845 27.5216 44.7576 28.199C43.8481 28.8119 40.6118 28.2635 39.9879 28.156L43.1184 15.5323L42.854 15.8441C42.2405 16.5431 41.4791 17.0915 40.6436 17.5216C40.5801 17.5538 40.5061 17.5861 40.432 17.6183C39.4273 18.1022 38.3274 18.4033 37.3016 18.5216C37.2275 18.5216 37.1535 18.5431 37.0795 18.5431C36.4132 18.5968 35.768 18.5968 35.1969 18.5108L35.0806 18.4893L34.5412 28.6614C34.3614 28.6291 34.1076 28.5753 33.8115 28.5108C32.5529 28.2527 30.4166 27.8119 28.8831 27.8119C28.5552 27.8119 28.2591 27.8334 28.0053 27.8764C27.836 27.371 29.1157 23.0915 30.6916 18.8979L30.7444 18.7689H30.607C30.3637 18.7474 30.0781 18.7151 29.7714 18.6829C29.708 18.6829 29.634 18.6614 29.5705 18.6614C28.185 18.4893 26.2919 18.1452 24.6209 17.4678C24.5575 17.4463 24.494 17.414 24.4306 17.3818C24.2719 17.3173 24.1027 17.242 23.9546 17.156C24.7161 15.6614 25.0863 14.2958 25.2555 13.5001C25.2766 13.4463 25.2343 13.3925 25.1815 13.371C25.1286 13.371 25.0757 13.3925 25.0546 13.4571C24.8853 14.2312 24.5046 15.5861 23.7749 17.07C23.7431 17.1237 23.7114 17.199 23.6797 17.2528C22.2308 20.0484 19.4704 23.2205 14.3199 23.6291C14.2353 23.6506 14.1401 23.6506 14.0555 23.6506C14.0132 23.6506 13.9709 23.6506 13.9286 23.6506C12.945 23.7044 12.0249 23.6721 11.1894 23.5323C11.1154 23.5108 11.0414 23.5108 10.9673 23.4893C9.26459 23.1882 7.90029 22.5001 6.885 21.4248C6.75808 21.2958 6.65232 21.1667 6.54656 21.0377C6.48311 20.9517 6.41965 20.8764 6.3562 20.7796C5.8274 20.0592 5.48896 19.2635 5.27744 18.5323C5.24572 18.4463 5.22456 18.371 5.20341 18.285C4.94959 17.328 4.89671 16.5001 4.89671 16.0054C5.16111 16.5646 5.72164 17.6183 6.50426 18.6291C6.56772 18.7044 6.63117 18.7904 6.69463 18.8657C7.38207 19.7151 8.22815 20.5001 9.19056 20.9087C9.31747 20.9624 9.45496 21.0269 9.60303 21.0592C9.66648 21.0915 9.74051 21.113 9.81455 21.1237C10.5866 21.3065 11.3269 21.4248 12.0355 21.4678C12.099 21.4678 12.173 21.4893 12.2364 21.4893C13.495 21.5753 14.6584 21.4463 15.7265 21.1237C15.8534 21.0807 15.9804 21.0377 16.0967 20.9947C17.2918 20.5753 18.3494 19.8979 19.2906 18.9517C20.3271 17.9087 21.0145 16.7044 21.4799 15.6614C21.5327 15.5431 21.5751 15.4355 21.6174 15.328C21.9135 14.6291 22.0827 14.0269 22.1779 13.6614C22.199 13.6076 22.1567 13.5431 22.1039 13.5323C22.051 13.5108 21.9981 13.5538 21.9769 13.6076C21.85 14.07 21.6491 14.7366 21.3318 15.5001C21.2472 15.5538 21.1414 15.6291 21.0463 15.7044H21.0251C19.9887 16.3173 17.6302 18.7474 15.9486 20.8334C14.9122 21.1775 13.7065 21.3603 12.3211 21.2743C12.4903 20.8441 12.6595 20.3818 12.8287 19.8764C12.8499 19.7904 12.8816 19.6936 12.9133 19.5968C13.2094 18.6183 13.5056 17.4893 13.7911 16.2312C13.8334 15.9947 13.8757 15.7581 13.918 15.5216C13.9392 15.3603 13.9709 15.1775 14.0026 15.0162C14.2565 13.7366 14.5737 12.4463 14.9545 11.2205C14.9756 11.156 14.9968 11.0915 15.0179 11.0269C15.5679 9.25275 16.2342 7.58608 16.9639 6.18823C17.5139 5.13447 18.2225 3.99469 19.0791 3.0377C19.1426 2.97318 19.206 2.90867 19.2589 2.84415C19.2801 2.82264 19.2906 2.81189 19.3118 2.79039L19.2801 2.87641L19.1214 3.29576L18.9628 3.72587C18.6243 4.0592 17.7042 5.90867 17.5033 6.48931C17.3764 6.86565 17.5667 7.25275 17.9475 7.40329C18.0004 7.42479 18.0744 7.45705 18.159 7.48931C18.5715 7.67211 19.2695 7.97318 19.83 7.98393C19.9569 7.98393 20.5915 7.8549 21.3318 5.23125L22.3365 5.56458C22.125 6.09146 21.427 7.86565 21.5222 8.42479C21.6068 8.90866 22.6009 9.32802 23.4999 9.55383C23.6162 9.58608 23.7326 9.59684 23.8383 9.59684C24.3037 9.59684 24.6738 9.31727 24.9911 8.72587C25.4247 7.95168 26.0064 6.27426 26.1439 5.57533C26.5881 5.32802 27.0111 5.06996 27.4342 4.81189C27.3178 5.2635 27.2861 5.60759 27.2755 5.63985C27.2755 5.71512 27.3178 5.76888 27.3813 5.77963C27.4447 5.77963 27.5082 5.72587 27.5082 5.66135C27.5082 5.66135 27.5611 5.20974 27.7303 4.61834C27.762 4.51082 27.8043 4.39254 27.8466 4.27426C28.0793 3.6506 28.4389 2.94092 29.0311 2.50006C29.6128 2.06996 30.332 1.94092 31.1675 2.12372C31.3261 2.15598 31.4636 2.23125 31.6011 2.31727C31.6857 2.37103 31.7597 2.4463 31.8232 2.51082C32.1193 2.81189 32.3097 3.23125 32.4366 3.59684C33.1875 5.70436 32.8702 9.53232 31.2204 11.6398C30.7762 12.2097 30.0993 12.4893 29.4013 12.371C28.661 12.242 28.037 11.7044 27.7514 10.9087C27.7303 10.8441 27.6668 10.8119 27.5928 10.8334C27.5293 10.8549 27.4976 10.9302 27.5188 10.9947C27.836 11.8764 28.5235 12.4893 29.3484 12.6183C29.4753 12.6398 29.5811 12.6506 29.708 12.6506C30.3637 12.6506 30.9771 12.3495 31.4002 11.8011C33.1135 9.59684 33.4307 5.73662 32.6587 3.52157C32.5001 3.09146 32.3203 2.73662 32.077 2.4678C32.7539 2.36028 33.3461 2.4678 33.8115 2.95168C34.6893 3.8334 34.4037 4.80114 34.4249 5.0592C34.4355 5.2635 34.6364 5.22049 34.6576 5.11297C34.6681 5.0592 34.9643 3.74737 33.9807 2.76888C33.399 2.18823 32.6904 2.06996 31.8655 2.242C31.6645 2.0592 31.4425 1.94092 31.1992 1.88716C30.3002 1.69361 29.5176 1.8334 28.8725 2.30651C28.1322 2.86565 27.7197 3.75813 27.4976 4.47856C27.0534 4.74737 26.5986 5.02694 26.1333 5.28501C24.695 3.0377 20.9828 3.14522 19.3224 3.57533C19.3012 3.57533 19.2695 3.57533 19.2483 3.59684L19.3224 3.40329L19.7031 2.38178C20.7607 1.39254 21.9981 0.715117 23.4364 0.704364C23.6056 0.704364 40.2946 0.747375 45.5826 3.90867C47.7824 5.74737 48.1737 8.77963 48.5756 11.9839C49.0092 15.3065 49.6755 18.9409 52.33 21.1345C51.9282 20.8872 51.1561 20.2312 50.659 19.6614L50.6696 19.7044ZM16.3188 20.7259C17.9792 18.6936 20.1579 16.5001 21.078 15.9517L21.1203 15.9302L21.1414 15.9087C20.3271 17.6506 18.857 19.7259 16.3188 20.7259ZM22.5903 5.48931C22.5903 5.48931 22.548 5.43555 22.5163 5.42479L21.2578 5.00544H21.226C21.226 5.00544 21.1837 5.00544 21.1732 5.00544C21.1414 5.02694 21.1203 5.0592 21.1097 5.09146C20.9511 5.6506 20.7395 6.32802 20.4963 6.86565C20.2636 7.39254 20.0098 7.79039 19.8194 7.79039C19.3012 7.76888 18.6349 7.48931 18.233 7.30651C18.1484 7.27426 18.0744 7.242 18.0215 7.22049C17.7571 7.12372 17.6302 6.86565 17.7148 6.61834C17.9792 5.86565 18.9311 4.11297 19.1003 3.95168C19.1003 3.95168 19.1073 3.95168 19.1214 3.95168C19.1849 3.93017 19.2589 3.90867 19.3435 3.89791C20.9193 3.45705 24.5363 3.32802 25.9324 5.4463C25.9112 5.73662 25.3401 7.63985 24.7796 8.67211C24.4411 9.29576 24.0816 9.51082 23.5633 9.37103C22.4423 9.10221 21.8077 8.69361 21.7654 8.4463C21.6914 7.97318 22.3471 6.23125 22.6221 5.59684C22.6221 5.56458 22.6221 5.53232 22.6221 5.50006L22.5903 5.48931Z" fill="white"/>
</svg>
