<?xml version="1.0" standalone="no"?>
<!DOCTYPE svg PUBLIC "-//W3C//DTD SVG 20010904//EN"
 "http://www.w3.org/TR/2001/REC-SVG-20010904/DTD/svg10.dtd">
<svg version="1.0" xmlns="http://www.w3.org/2000/svg"
 width="212.000000pt" height="237.000000pt" viewBox="0 0 212.000000 237.000000"
 preserveAspectRatio="xMidYMid meet">

<g transform="translate(0.000000,237.000000) scale(0.100000,-0.100000)"
fill="#000000" stroke="none">
<path d="M425 2361 c-11 -5 -29 -19 -40 -31 -19 -21 -20 -38 -23 -366 l-3
-345 -174 3 -175 3 0 -407 0 -408 174 0 175 0 3 -180 3 -180 28 -27 c27 -28
29 -28 170 -31 l142 -3 21 65 21 65 -126 3 -126 3 -3 143 -3 142 616 0 615 0
0 408 0 407 -612 0 -613 0 0 305 0 305 482 3 482 2 3 -207 c5 -313 5 -313 315
-313 l203 0 0 -600 0 -600 -138 0 -138 0 20 -65 21 -65 142 0 c89 0 152 4 168
12 56 25 55 10 55 740 l0 673 -278 277 -277 278 -555 -1 c-305 0 -564 -4 -575
-8z m1364 -529 c-149 -2 -174 0 -190 14 -17 15 -19 34 -19 193 l0 176 190
-190 190 -190 -171 -3z m-1239 -417 c44 -23 60 -53 60 -113 0 -101 -41 -139
-161 -149 l-69 -6 0 -78 0 -79 -70 0 -69 0 -3 220 -3 220 143 0 c107 0 150 -4
172 -15z m458 -13 c44 -32 74 -94 79 -167 7 -79 -10 -137 -53 -184 -44 -49
-89 -61 -238 -61 l-116 0 0 221 0 220 148 -3 c135 -3 150 -5 180 -26z m482
-17 l0 -45 -100 0 -100 0 0 -40 0 -40 85 0 85 0 0 -45 0 -45 -85 0 -85 0 0
-90 0 -90 -70 0 -70 0 0 220 0 220 170 0 170 0 0 -45z"/>
<path d="M380 1295 l0 -45 40 0 c38 0 60 18 60 49 0 20 -33 41 -66 41 -34 0
-34 0 -34 -45z"/>
<path d="M820 1209 l0 -121 43 7 c55 9 75 30 83 85 13 96 -22 150 -96 150
l-30 0 0 -121z"/>
<path d="M1090 480 l0 -139 -106 -3 -106 -3 178 -167 179 -167 75 72 c41 40
122 116 178 170 l104 97 -106 0 -106 0 0 140 0 140 -145 0 -145 0 0 -140z"/>
</g>
</svg>
