<?xml version="1.0" encoding="UTF-8" standalone="no"?>
<svg
   version="1.0"
   width="50.000000pt"
   height="50.000000pt"
   viewBox="0 0 50.000000 50.000000"
   preserveAspectRatio="xMidYMid meet"
   id="svg18"
   sodipodi:docname="self-account_active.svg"
   inkscape:version="1.2.2 (732a01da63, 2022-12-09)"
   xmlns:inkscape="http://www.inkscape.org/namespaces/inkscape"
   xmlns:sodipodi="http://sodipodi.sourceforge.net/DTD/sodipodi-0.dtd"
   xmlns="http://www.w3.org/2000/svg"
   xmlns:svg="http://www.w3.org/2000/svg">
  <defs
     id="defs22" />
  <sodipodi:namedview
     id="namedview20"
     pagecolor="#ffffff"
     bordercolor="#000000"
     borderopacity="0.25"
     inkscape:showpageshadow="2"
     inkscape:pageopacity="0.0"
     inkscape:pagecheckerboard="0"
     inkscape:deskcolor="#d1d1d1"
     inkscape:document-units="pt"
     showgrid="false"
     inkscape:zoom="12.555"
     inkscape:cx="29.231382"
     inkscape:cy="33.373158"
     inkscape:window-width="1920"
     inkscape:window-height="1017"
     inkscape:window-x="-8"
     inkscape:window-y="-8"
     inkscape:window-maximized="1"
     inkscape:current-layer="svg18" />
  <g
     transform="translate(0.000000,50.000000) scale(0.100000,-0.100000)"
     fill="#000000"
     stroke="none"
     id="g16"
     style="fill:#95aa99;fill-opacity:1">
    <path
       d="M32 408 c-17 -17 -17 -279 0 -296 15 -15 248 -17 248 -2 0 5 -50 11 -117 12 l-118 3 0 135 0 135 205 0 205 0 3 -90 c4 -127 22 -135 22 -9 0 64 -4 104 -12 112 -17 17 -419 17 -436 0z"
       id="path2"
       style="fill:#95aa99;fill-opacity:1" />
    <path
       d="M135 343 c-16 -16 -17 -48 -1 -98 5 -15 0 -24 -24 -37 -16 -9 -30 -24 -30 -33 0 -12 15 -15 90 -15 75 0 90 3 90 15 0 9 -14 24 -30 33 -24 13 -29 22 -24 37 22 71 9 115 -36 115 -10 0 -26 -7 -35 -17z m54 -12 c13 -9 12 -25 -4 -92 -5 -21 -2 -27 22 -39 l28 -14 -32 -4 c-18 -2 -48 -2 -65 0 l-33 4 28 14 c23 11 27 19 23 37 -3 13 -9 34 -12 48 -11 45 10 68 45 46z"
       id="path4"
       style="fill:#95aa99;fill-opacity:1" />
    <path
       d="M280 310 c0 -6 30 -10 70 -10 40 0 70 4 70 10 0 6 -30 10 -70 10 -40 0 -70 -4 -70 -10z"
       id="path6"
       style="fill:#95aa99;fill-opacity:1" />
    <path
       d="M280 260 c0 -6 30 -10 70 -10 40 0 70 4 70 10 0 6 -30 10 -70 10 -40 0 -70 -4 -70 -10z"
       id="path8"
       style="fill:#95aa99;fill-opacity:1" />
    <path
       d="M280 210 c0 -12 47 -12 75 0 15 6 8 9 -27 9 -27 1 -48 -3 -48 -9z"
       id="path10"
       style="fill:#95aa99;fill-opacity:1" />
    <path
       d="M351 186 c-87 -48 -50 -186 49 -186 51 0 100 49 100 99 0 75 -83 124 -149 87z m104 -31 c50 -49 15 -135 -55 -135 -41 0 -80 39 -80 80 0 70 86 105 135 55z"
       id="path12"
       style="fill:#95aa99;fill-opacity:1" />
    <path
       d="M413 112 c-19 -24 -24 -25 -42 -14 -17 10 -21 10 -21 -1 0 -6 10 -18 22 -26 20 -12 24 -11 50 20 15 19 28 37 28 42 0 14 -15 5 -37 -21z"
       id="path14"
       style="fill:#95aa99;fill-opacity:1" />
  </g>
</svg>
