<svg width="75" height="75" viewBox="0 0 75 75" fill="none" xmlns="http://www.w3.org/2000/svg">
<path fill-rule="evenodd" clip-rule="evenodd" d="M37.3202 0C16.9005 0 0 16.9005 0 37.3202C0 57.7398 16.9005 74.6404 37.3202 74.6404C57.7398 74.6404 74.6404 57.7398 74.6404 37.3202C74.6404 16.9005 57.7398 0 37.3202 0ZM39.5733 53.2174C39.15 53.6787 38.3234 53.772 38.3234 53.772H35.5862C35.5862 53.772 29.5473 54.1403 24.2275 48.5212C18.426 42.3905 13.3033 30.2272 13.3033 30.2272C13.3033 30.2272 13.0076 29.4292 13.3279 29.0451C13.6885 28.6108 14.6718 28.5837 14.6718 28.5837L21.2148 28.5404C21.2148 28.5404 21.8306 28.6427 22.272 28.9724C22.637 29.2451 22.841 29.7521 22.841 29.7521C22.841 29.7521 23.8982 32.4661 25.2981 34.9211C28.033 39.7151 29.3053 40.763 30.2327 40.2493C31.5857 39.5014 31.1803 33.4732 31.1803 33.4732C31.1803 33.4732 31.2049 31.2865 30.4993 30.3112C29.9528 29.5565 28.9224 29.3361 28.4677 29.2747C28.0981 29.2246 28.7029 28.3563 29.4869 27.9677C30.6651 27.3835 32.7436 27.3494 35.2009 27.3743C37.1161 27.3948 37.6672 27.5152 38.4153 27.6995C40.1515 28.1246 40.0973 29.4873 39.9804 32.4283C39.9453 33.3078 39.9049 34.3285 39.9049 35.5075C39.9049 35.7725 39.8973 36.0549 39.8895 36.3454C39.8488 37.8522 39.8022 39.5774 40.7805 40.2197C41.2823 40.547 42.5075 40.2674 45.574 34.9848C47.0277 32.4799 48.1163 29.536 48.1163 29.536C48.1163 29.536 48.3561 29.011 48.7256 28.7861C49.1041 28.5564 49.615 28.6269 49.615 28.6269L56.5006 28.5837C56.5006 28.5837 58.5703 28.3313 58.904 29.2815C59.2557 30.2748 58.1311 32.598 55.3179 36.4031C52.6443 40.0201 51.3457 41.3478 51.4702 42.525C51.5608 43.3815 52.4048 44.1584 54.0209 45.6796C57.4027 48.8661 58.3092 50.5424 58.5269 50.9452C58.545 50.9787 58.5583 51.0033 58.568 51.0193C60.0845 53.5719 56.8857 53.772 56.8857 53.772L50.7685 53.8585C50.7685 53.8585 49.4558 54.122 47.7267 52.9173C46.8209 52.2867 45.9358 51.257 45.0926 50.276C43.8051 48.778 42.6156 47.3941 41.6005 47.7209C39.8958 48.271 39.9474 51.9967 39.9474 51.9967C39.9474 51.9967 39.9607 52.7945 39.5733 53.2174Z" fill="#04121B" fill-opacity="0.48"/>
</svg>
