<svg width="76" height="76" viewBox="0 0 76 76" fill="none" xmlns="http://www.w3.org/2000/svg">
<g clip-path="url(#clip0_1810_270)">
<path d="M45.3286 45.3286C39.3571 51.49 38.9229 59.1714 38.4071 76C54.0957 76 64.9257 75.9457 70.5171 70.5171C75.9457 64.9257 76 53.58 76 38.4071C59.1714 38.95 51.49 39.3571 45.3286 45.3286ZM0 38.4071C0 53.58 0.0542857 64.9257 5.48286 70.5171C11.0743 75.9457 21.9043 76 37.5929 76C37.05 59.1714 36.6429 51.49 30.6714 45.3286C24.51 39.3571 16.8286 38.9229 0 38.4071ZM37.5929 0C21.9314 0 11.0743 0.0542857 5.48286 5.48286C0.0542857 11.0743 0 22.42 0 37.5929C16.8286 37.05 24.51 36.6429 30.6714 30.6714C36.6429 24.51 37.0771 16.8286 37.5929 0ZM45.3286 30.6714C39.3571 24.51 38.9229 16.8286 38.4071 0C54.0957 0 64.9257 0.0542857 70.5171 5.48286C75.9457 11.0743 76 22.42 76 37.5929C59.1714 37.05 51.49 36.6429 45.3286 30.6714Z" fill="#868D92"/>
<path d="M76 38.4071V37.5929C59.1714 37.05 51.49 36.6429 45.3286 30.6714C39.3571 24.51 38.9229 16.8286 38.4071 0H37.5929C37.05 16.8286 36.6429 24.51 30.6714 30.6714C24.51 36.6429 16.8286 37.0771 0 37.5929V38.4071C16.8286 38.95 24.51 39.3571 30.6714 45.3286C36.6429 51.49 37.0771 59.1714 37.5929 76H38.4071C38.95 59.1714 39.3571 51.49 45.3286 45.3286C51.49 39.3571 59.1714 38.9229 76 38.4071Z" fill="white"/>
</g>
<defs>
<clipPath id="clip0_1810_270">
<rect width="76" height="76" fill="white"/>
</clipPath>
</defs>
</svg>
